<svg xmlns="http://www.w3.org/2000/svg" viewBox="0 0 578.04 334.12"><defs><style>.cls-1{fill:#dbbb67;}.cls-2{font-size:11.06px;}.cls-2,.cls-4,.cls-6{fill:#fff;font-family:HelveticaNeue-Medium, Helvetica Neue;font-weight:500;}.cls-3{fill:#d9b557;}.cls-4{isolation:isolate;}.cls-4,.cls-6{font-size:11.35px;}.cls-5{fill:#c5a24e;}.cls-7{fill:#ad9044;}.cls-10,.cls-8,.cls-9{fill:#00949a;}.cls-8{opacity:0.5;}.cls-9{opacity:0.7;}.cls-11{fill:#00757a;}.cls-12{fill:#005a5f;}.cls-13{fill:#004649;}.cls-14{letter-spacing:0.01em;}.cls-15{letter-spacing:-0.02em;}</style></defs><g id="Layer_2" data-name="Layer 2"><g id="Layer_1-2" data-name="Layer 1"><rect class="cls-1" x="513.77" width="63.96" height="30.34"/><rect class="cls-1" x="513.77" y="33.75" width="63.96" height="30.34"/><text class="cls-2" transform="translate(518.52 53.13)">Bhutanese</text><rect class="cls-1" x="513.77" y="67.51" width="64.27" height="30.34"/><text class="cls-2" transform="translate(523.07 86.88)">Burmese</text><rect class="cls-1" x="513.77" y="101.26" width="64.27" height="30.34"/><text class="cls-2" transform="translate(527.27 120.64)">Hmong</text><rect class="cls-1" x="513.77" y="135.01" width="64.27" height="30.34"/><text class="cls-2" transform="translate(517.74 154.39)">Indonesian</text><rect class="cls-1" x="513.77" y="168.76" width="64.27" height="30.34"/><text class="cls-2" transform="translate(526.9 188.14)">Laotian</text><rect class="cls-1" x="513.77" y="202.52" width="64.27" height="30.34"/><text class="cls-2" transform="translate(520.29 221.89)">Malaysian</text><rect class="cls-1" x="513.77" y="236.27" width="64.27" height="30.34"/><text class="cls-2" transform="translate(518.75 255.65)">Mongolian</text><rect class="cls-1" x="513.77" y="270.02" width="64.27" height="30.34"/><text class="cls-2" transform="translate(521.6 289.4)">Nepalese</text><rect class="cls-3" x="444.23" width="65.49" height="32.49"/><text class="cls-4" transform="translate(464.97 15.07)">Thai<tspan x="2.32" y="11.35">1%</tspan></text><rect class="cls-5" x="444.23" y="36.02" width="65.49" height="52.84"/><text class="cls-6" transform="translate(447.43 61.91)">Cambodian<tspan x="21.44" y="11.35">2%</tspan></text><rect class="cls-7" x="444.23" y="92.28" width="65.49" height="52.84"/><text class="cls-6" transform="translate(452.34 118.17)">Pakistani<tspan x="15.14" y="11.35">2%</tspan></text><rect class="cls-8" x="444.23" y="148.87" width="65.49" height="185.25"/><rect class="cls-9" x="243.82" width="197.19" height="80.97"/><rect class="cls-10" x="243.82" y="84.38" width="197.12" height="80.97"/><rect class="cls-11" x="243.82" y="168.76" width="197.17" height="165.35"/><rect class="cls-12" x="133.13" width="105.68" height="334.12"/><rect class="cls-13" width="128.64" height="334.12"/><text class="cls-6" transform="translate(42.41 164.39)">Chinese<tspan x="9.25" y="11.35">23%</tspan></text><text class="cls-6" transform="translate(169.45 164.27)">Indian<tspan x="4.1" y="11.35">19%</tspan></text><text class="cls-6" transform="translate(325.12 249.29)">Filipino<tspan x="6.94" y="11.35">18%</tspan></text><text class="cls-6" transform="translate(312.84 121.02)"><tspan class="cls-14">V</tspan><tspan x="7.05" y="0">ietnamese</tspan><tspan x="21.71" y="11.35">9%</tspan></text><text class="cls-6" transform="translate(320.77 39.6)">Ko<tspan class="cls-15" x="14.5" y="0">r</tspan><tspan x="18.3" y="0">ean</tspan><tspan x="9.89" y="11.35">9%</tspan></text><text class="cls-6" transform="translate(454.12 237.75)">Japanese<tspan x="16.51" y="11.35">7%</tspan></text><rect class="cls-1" x="513.77" y="303.77" width="64.27" height="30.34"/><text class="cls-2" transform="translate(518.34 323.36)">Sri Lankan</text><text class="cls-2" transform="translate(514 18.7)">Bangladeshi</text></g></g></svg>