<svg xmlns="http://www.w3.org/2000/svg" xmlns:xlink="http://www.w3.org/1999/xlink" viewBox="0 0 282.58 291.45"><defs><style>.cls-1,.cls-10{fill:none;}.cls-2{clip-path:url(#clip-path);}.cls-3{fill:#7d9a9b;}.cls-4{fill:#d49f77;}.cls-10,.cls-11,.cls-12,.cls-13,.cls-14,.cls-15,.cls-16,.cls-17,.cls-18,.cls-19,.cls-4,.cls-5,.cls-6,.cls-7,.cls-8,.cls-9{stroke:#fff;stroke-miterlimit:10;stroke-width:0.25px;}.cls-5{fill:#e7b290;}.cls-6{fill:#c6baa4;}.cls-7{fill:#4c6067;}.cls-8{fill:#d9dada;}.cls-9{fill:#978e7d;}.cls-11{fill:#0f0e0d;}.cls-12{fill:#110e0d;}.cls-13{fill:#cda19f;}.cls-14{fill:#94795e;}.cls-15{fill:#4b688a;}.cls-16{fill:#373c51;}.cls-17{fill:#23150f;}.cls-18{fill:#e04742;}.cls-19{fill:#3f5774;}</style><clipPath id="clip-path"><circle class="cls-1" cx="141.29" cy="141.29" r="141.29"/></clipPath></defs><g id="Layer_2" data-name="Layer 2"><g id="Asian_Fam" data-name="Asian Fam"><g id="Asian_Family" data-name="Asian Family"><g class="cls-2"><circle class="cls-3" cx="141.29" cy="141.29" r="141.29"/><path id="Mom_left_leg" data-name="Mom left leg" class="cls-4" d="M167.67,235.69l14.2.15-1.25,2.77s-.54,8.59-1.29,9.79,4.78,6.58,5.08,16.14c.45,3.59,1.5,10.32-.75,14.65,0,2.55-.15,9.87-.15,9.87l-12.7.15s-5.24-18.09-4.94-19S167.67,235.69,167.67,235.69Z"/><path id="Dad_left_leg" data-name="Dad left leg" class="cls-5" d="M134.54,227.65l.13,3.5s-1.25,6.13,0,7c.12.88,2.88,12.51,2.25,17.77,0,1.88-2,9.39-3.75,10.89a13.33,13.33,0,0,0-.63,3.38l-.4,4.79-.78,7.84-.62,6.2h-6.21l-5.46-12.63L113.18,235l-1-6.57Z"/><path id="Dad_right_leg" data-name="Dad right leg" class="cls-5" d="M144.33,228.6l2.15,4.76s2.38,5.44,2.15,7.82a11.93,11.93,0,0,1,.34,3.28c-.11.68-1.45,9-1.05,11.32-.1,1.22.71,8.34,1.83,10.58.51,1.52,1.73,6.09,1.43,7.31a10.16,10.16,0,0,0-.23,2.64l1,6.15,2.78,6.65h8.68l2-15.33.33-4.3,4.64-19.79-1.86-23Z"/><path id="Dad_shorts" data-name="Dad shorts" class="cls-6" d="M105.13,162.07l.88,3.51.12,4.88.38,61.19L114,233.4l3.13-.37s16.64-1.13,17.52-1.88a12.62,12.62,0,0,0,1.37.13s1.25-9.64,1.76-9.89c.25,1.38,1,6.51.5,9.76a31.37,31.37,0,0,0,2.5,2.13s14.52.62,17.14-.5c2.63,0,13.64.5,13.64.5l-1.5-75.46Z"/><path id="Asian_Dad_Body_Outline" data-name="Asian Dad Body Outline" class="cls-5" d="M100,164.09l8.91-24.89s2-4.82,1.67-8.91c.38-3,.93-9.1.93-9.1l-5.57-.93s-2-1.48-6.87-.55l-3-.93s-3.34-6.69-2.6-8.36a18,18,0,0,1-.18-2.23s-3.72-1.3.55-7.42c.37-3.35,4.09-16.9,6.32-17.46.37-3.15.74-8,.74-8l2.6-3.53,2-4.27.19-2s8-6.32,11.32-5.76a36.62,36.62,0,0,1,6-.56s4.64-4.08,6.12-3.52c1.67-2.23.56-2,3.9-4.65.74-.37.56-3.9.56-3.9s-4.64-5.2-3.9-9.47a26.84,26.84,0,0,0-.08-4.75s-.75-.53-.32-3.51c-.21-.85-1-1.81.11-3.09-.22-1-.32-5.12-.32-5.12s-1.07-1.17.1-5.11a12.75,12.75,0,0,1,5.23-7.35c3.19-1.82,4.47-2.67,9.37-2.45A15.34,15.34,0,0,1,151.69,8a32.79,32.79,0,0,1,7.35,6,9.32,9.32,0,0,1,.64,2.13,15.89,15.89,0,0,1,.53,4.26c-.1,1.92-.42,6.71-.42,6.71s1.28,1.18,0,4.8c.21,1.6.1,5.11-2.35,5.86l-.64.21s-.85,5-1.92,5.76c-.21,1.17-.42,2.55-1.59,3.19l1.17-.53.21,3.62,2.75-1.42,3.9,6.1s7.64,3.74,8.15,5.09c1.53.85,8,6.62,8,6.62l6.11,8,.85,32.23.68,41.23L185,159.35Z"/><path id="Dad_shirt_top" data-name="Dad shirt top" class="cls-7" d="M93.32,108.19s-3.64-1.19.55-7.42c.87-3.22,3.6-16,6.32-17.46a74.15,74.15,0,0,0,.74-8s4.59-6.41,4.64-7.8l.05-1.39s5.74-5.28,9.21-6.19c2.87-.3,7.55-.6,7.55-.6s5.09-3.78,6.77-3.7c1.08-1.44,2.95-4.68,3.9-4.65s-.55,9.25.65,9.55l.76,1.82.45,2.26.76,5.74.3,3.77s6.64-8.75,8.91-8.9a4.58,4.58,0,0,1,1.66-.61l-.15-3.77.45-1.06s-4.07-4.38,1.21-4.23h2.11s3.28-6,4.51-5.64a19.3,19.3,0,0,0,2.75-1.42l3.9,6.1,6.06,3.53,10.06,8.18,1.11,1.48.91,23.56s-11.17,16.91-11.93,16.76c-1.06-3.47-2.26-5.59-3.93-7-1-1-1.51-3.62-10-3.92-.91.15-11.33,1.81-12.69,2s-13.44-.75-13.44-.75L120.42,98l-7.86.61s-3.24,2-4.3,4c-3.7-.93-9.38-4.76-13.6-2C93.6,101.93,93.32,108.19,93.32,108.19Z"/><path id="Dad_shirt_botttom" data-name="Dad shirt botttom" class="cls-7" d="M111.51,121.19l-.93,9.1-.2,4.26-1.47,4.65,1.6,1s3.7-.39,3.56,2.51c1.46,1.19,5.68,2.78,5.55,7.53.79,1.85,7.27,12.68-3.43,12.29-.27.13-1.37,2.11-2.79,1.93-1,1.13-2,2-3.91,1.48l-.06.59a7.09,7.09,0,0,0,3.5-.29c1.18.06,8,1.12,9.77.71,2.2.47,7.29,1.6,9.49.65,2.73-.15,6.41.07,8.84-1,2-.44,10.74-.15,12.8-1.1,1.62.07,10.52-.22,10.52-.22l1,.13s.35-2.91,1.41-4c.35-1.77,1-7.51,1-7.51s.36-6.62,1.06-7.59l.53-1.06-.26-5.56-.16-.85s-5.52-1.12-6.49-1.42c-.75-.22-7.47-2.46-8.14-2.83s-.9-5,.67-6.87c.45-1.72,4.78-10,4.78-10l1.57-2.58a33.93,33.93,0,0,1-6.88.86,18.07,18.07,0,0,1-12.9.72c-1.43.57-17,4.3-19.49,4.3S111.51,121.19,111.51,121.19Z"/><path id="Dad_right_sock" data-name="Dad right sock" class="cls-8" d="M151.18,273.67l14-.36.15.89a11.43,11.43,0,0,1,0,2.58c-.2.4-.3,2.93-.4,3.17s-.44,3.33-.49,3.48-.35,3-.45,3.17a20.87,20.87,0,0,0-.25,2.18l-.1.5-11.31-.3s-.69-2-.35-2.13-.09-3.27.05-3.32-.74-2.88-.69-3.73-.84-3.72-.69-4.21-.05-2.23.14-2.23S151.18,273.67,151.18,273.67Z"/><path id="Dad_right_sock-2" data-name="Dad right sock" class="cls-8" d="M118.84,273.67l14-.36.15.89a11.43,11.43,0,0,1,0,2.58c-.19.4-.29,2.93-.39,3.17s-.45,3.33-.5,3.48-.35,3-.45,3.17-.24,2.18-.24,2.18l-.1.5-11.31-.3s-.7-2-.35-2.13-.1-3.27,0-3.32-.75-2.88-.7-3.73-.84-3.72-.69-4.21,0-2.23.15-2.23S118.84,273.67,118.84,273.67Z"/><path id="Dad_shorts_crotch" data-name="Dad shorts crotch" class="cls-9" d="M130,179.51s2.12,16,2.79,16.09c.56,1.57,1,16,1,16l.33,14.65.78,4.58.68.44,2.22-9.86-.55-19.19S129.88,181.86,130,179.51Z"/><path class="cls-10" d="M131.22,196.5s-7.49,4.47-8.83,4.58"/><path class="cls-10" d="M131.11,203.65c-1,.67-5.59,5.59-7.05,5.81"/><line class="cls-10" x1="132.45" y1="207.11" x2="130.99" y2="208.23"/><path class="cls-10" d="M132,217.62c-1,1.34-6.59,7.71-8.61,8.38"/><path id="Dad_arms" data-name="Dad arms" class="cls-5" d="M94.66,100.61s3.4-3.17,13.6,2a34,34,0,0,1,3.82-3.68l5.85-.64s5.32-.53,8.19.32c2.24,0,12,.53,12,.53s4.26,0,5.43-.21,12.55-2.66,15-1.06,3-.43,6.17,4.57a37,37,0,0,1,2.8,5.7l-6.27,7s-5.57.87-6.53.87a19.61,19.61,0,0,1-13.25.71c-2.17.68-16.21,3.87-16.63,3.87a59.15,59.15,0,0,1-8.09.53c-2.23-.11-9-.11-9.57-.43s-3.26-1.9-8.12-1c-1.77-.59-3.47-.06-5-5.38C93.36,111,92.44,101.66,94.66,100.61Z"/><path class="cls-10" d="M109.21,103.17s5.21,2,6.6,3.51c1.91.1,7.12.95,10.31,3.08,2.45,1.17,8.19,3.72,10.11,5.1a26.67,26.67,0,0,1,3.4,2.34"/><path class="cls-10" d="M106.55,116.46s18.72,3,24.89-1.6"/><path class="cls-10" d="M116.76,103.06s3.83,1.7,4,2.76"/><path class="cls-10" d="M140.06,108.27s12.12,5.32,12.12,6.49"/><path class="cls-10" d="M140.91,112.63s6.8,3,9.46,2.13"/><path class="cls-10" d="M111.55,109.55s10.42,1.27,11.49.32"/><path class="cls-10" d="M157.88,30.52s1.08-2.17,1.41-1"/><path class="cls-10" d="M157.44,31.93s2.72.87.44,2.93"/><path class="cls-10" d="M132,25.56a1.86,1.86,0,0,1,1.58-2,7.09,7.09,0,0,1,4.12-.58c.59.13.64.45.64.45l0,.68a23.52,23.52,0,0,1-3.62.72A7.42,7.42,0,0,1,132,25.56Z"/><path class="cls-10" d="M151.79,25.67a1.85,1.85,0,0,0-1.58-2,7.15,7.15,0,0,0-4.12-.59c-.59.14-.63.46-.63.46l-.05.68A24.8,24.8,0,0,0,149,25,7.43,7.43,0,0,0,151.79,25.67Z"/><path class="cls-10" d="M132.32,27.77l1.53-.68s2.75-1.68,4.58-.5c.29.4,0,1.14-.3,1.18a21.48,21.48,0,0,1-5.81,0Z"/><path class="cls-10" d="M145,27.17s1.38-1.45,4.29.07c1.09.51,1.67.8,1.67.8a17.35,17.35,0,0,1-4.87.22l-1.6-.36S144.72,27.17,145,27.17Z"/><path class="cls-10" d="M140.5,27.53A28.77,28.77,0,0,0,139,31.46c0,.58-2,2.69-.72,3s1.31.08,1.31.08"/><path class="cls-10" d="M142.39,35c.51,0,.43-1.09,1.53-.07"/><path class="cls-10" d="M131.77,38.08a62.13,62.13,0,0,1,3.06,5.74c.29,1,2,6.25,4.29,5.89"/><path class="cls-10" d="M151.4,38.59s-5.16,11.7-8.5,11.34"/><path class="cls-10" d="M135.05,38s4.21-1.38,5.67-.36c.8.07,3.56-.87,5.23.73l1.24.65a3.16,3.16,0,0,1-2.33,2.62c-1.31-.15-3.49-.44-3.49-.44a15.33,15.33,0,0,0-3,.22C137.23,40.84,134.68,38.59,135.05,38Z"/><path class="cls-10" d="M143.26,26.62s.6,4.27,1.87,4.27"/><path class="cls-10" d="M147,34.82s2.61,2.14,2.41,3"/><path id="Dad_Hair" data-name="Dad Hair" class="cls-11" d="M129.42,26.28l-.22-4.93s-2-3.13,1.42-8.46c1.83-2.48,4.78-6.68,10.52-6.56s4.79-.89,12,2.36l4.14,3.43a8.76,8.76,0,0,1,3,7.34c-.18,2.36-.47,7.09-.47,7.09s-2.9,2.49-2.9,3.31c-.3-.71-.24-6.5-.24-6.5s-2.89-1.12-2.42-7.39c-.59-.89-4.32-3.73-7.57-3.67-.89.12-4.08.65-5.62-.23-.83.11-2.78-.36-4.49,1.47-.95.48-5.15,2.66-6.09,7.4.06,1.3-.06,5.67-.06,5.67Z"/><path class="cls-10" d="M147.46,66.43s3.45-4.94,3.75-6.44"/><path class="cls-10" d="M152,60.14s4,4.79,5.69,2,3.75-6.6,3.75-6.6"/><path class="cls-10" d="M122.58,60.59s.45,3.6,2,1.65,5.84-6.45,5.84-6.45,3.45,8.25.3,9.29a56.9,56.9,0,0,1,1.2,6l1.65,4.2"/><path class="cls-10" d="M138.62,84.72s7-15.89,10.94-17.39"/><path class="cls-10" d="M154.05,79.17s2.85-10.64,6.6-12.59"/><path class="cls-10" d="M153.75,88s1.95-9.75,4.2-11.1"/><path class="cls-10" d="M159.75,77.22s3.9-16.63,9.74-14.53"/><path class="cls-10" d="M111.19,98.66s2.1-8.4,1.2-14.09"/><path class="cls-10" d="M112.24,79.92s-.9-6.89.45-7.79"/><path class="cls-10" d="M134.25,80.32s.52,2.08-1.56,2.08"/><path class="cls-10" d="M129.22,128.65s2.05,1.57.05,2.16"/><path class="cls-10" d="M128.32,143.78s2.24,2-.12,1.89"/><path class="cls-10" d="M134.87,78.49s9.89-10.42,11.89-11"/><path id="Mom_left_hair" data-name="Mom left hair" class="cls-12" d="M179.46,91.36l-3.93,5.4s1.15,5.74,4.26,3.45c.82-2,2-1.64,2-1.64s3.28,6.23,4.76,4.59c.49-2.13-.12-8.22-.12-8.22L195,90.69l3.28-9.51L185,51l5.33-5.92,9.26-10s-12.29-3.93-19.84,10.66c-1,3-1.47,3.12-1.31,4.43s0,19.68,0,19.68Z"/><path id="Mom_face_arms" data-name="Mom face arms" class="cls-4" d="M154.24,134.62s-1.5-2.15.67-6.87c1.25-2.61,2.91-7.31,3.83-8.14.55-.83,1.82-4.47,2.52-4.45s6.7-7.45,6.7-7.45l3.69-4.79,14.94-8.49s4.06-6,7-6.73c1.29-1.85.83-2.22,2.21-3,.19-1.57.19-4.25.19-4.25s-2.77.28-3.69-.46-7.66-9.22-7.66-9.22-2.21-2.4-1.93-5.07c-.09-2-1-8.67-1-8.67s-.37-6.46,1.2-8.12c1.2-1.38,3.51-4.79,7.47-3.87h1.39s5.62,4.15,5.62,7.65c.83,2.4,2.49,6.83,2.49,6.83l4.61,9,.83,5.35-3.87,2.58L211,78.11s9.22,6.18,9.5,6.91,3.2,11.75,3.2,11.75l3,9.76s-4,6.36-6.93,8.34c-.85,1.84-15.27,13.43-18,14.71-.7,1.13-6.64,5.65-8.05,5.93s-6.51,2-8.49,1.42-10.32,1.41-10.6,1.84S159.68,138,154.24,134.62Z"/><path id="Mom_shirt_top" data-name="Mom shirt top" class="cls-13" d="M175.52,97.34l-3.68,5.09s-2.4,13.86-1.7,14.14,2.41,2.68,4.1,2.68a30.42,30.42,0,0,1,6.23,1c2.82,0,7.63-.14,9.33.85s12.58-9.33,12.58-9.33l4.24-6.5s8.91-7.64,15.55-5.09c2.83,2.68,4.81,5.23,4.53,6.36s-6.93,8.34-6.93,8.34,4.95,1.13,6.36.43a18,18,0,0,1,3.11-1.14l.71-7.77s1.56-16-5.23-19c-4.81-2.12-7.21-3.11-10.18,0-2.12,1.84-17.25,8.2-21.92,8.06a32.21,32.21,0,0,1-6.22-.56S178.77,92.82,175.52,97.34Z"/><path id="Mom_shirt_bottom" data-name="Mom shirt bottom" class="cls-13" d="M168.87,138.87s.49,5.27.42,6.41,4.46,2.9,4.46,2.9,8.68-1.13,9.94-.5c1.76-.26,13.58-1.76,16.1-1.39,1.88-.37,8.42-.5,8.42-.5l3.4-.25s2.26-2.64,2.14-4.53,1.88-8.55,1.88-8.55l8.05-17a31.45,31.45,0,0,1-3.91-.61c-.87,1.36-10.93,10.17-12.82,11-1.13.88-4.61,3.67-5.14,3.66s-4.29,4.64-6.93,5.52-7.8,1.89-7.8,1.89-6.54-.38-10.19,1.13A16.57,16.57,0,0,1,168.87,138.87Z"/><path id="Mom_hand" data-name="Mom hand" class="cls-4" d="M190.8,120.8s4.8-7.2,7.9-7.5c1.4-.5,2.57-2.18,3.68-1.54s0,1.64-.88,2.14a3.6,3.6,0,0,1-2.2.2s5.6,1.2,3.5,2c-.6.6-4.7-.2-4.7-.2l-.7.5s5.9.7,4.2,2a26.09,26.09,0,0,1-4.5.2s-.4,2.4-3.4,2C192.7,120.7,190.8,120.8,190.8,120.8Z"/><path class="cls-10" d="M169.76,117.81a5.73,5.73,0,0,0-3.86,6.13"/><path class="cls-10" d="M162.24,123.51s9.67,4.19,11.5,7"/><path class="cls-10" d="M175.24,131.45s8.43,6.66,11.84,5.54"/><path class="cls-10" d="M186.52,132.42s1.61,3.55,5.37,1.08"/><path class="cls-10" d="M158.48,131.35s7.42,3.43,12.25,1.93"/><path id="Mom_right_leg" data-name="Mom right leg" class="cls-4" d="M191.59,233.9v3.74S194,253.48,195,253.48c.6,2-.29,15.4-.29,17.34s.59,18.39.59,18.39l11.37-.15s6-23.17,6.12-26.61-.44-14.5-2.54-17.94c0-1.94-.45-11.51-.45-11.51Z"/><path id="Mom_skirt" data-name="Mom skirt" class="cls-14" d="M169.29,145.28s-2,14.25-2.71,15a18,18,0,0,0-2.23,5c-.15,1-2.94,16-2.94,16l-3.84,46.23s-.53,6.49.14,7.29a23.87,23.87,0,0,0,2.25,2.11h9.27l6.89.14s-1.33,2.25,4.5,1.59c4.9.39,29.94-3.05,29.94-3.05L221.82,234s10.9,1.33,8.7-8.09-10-71.55-15.44-73.75l-2.4-4-1.07-2.58-9.78.45-2,.3s-12.55.64-14.5,1.15c-1.5.25-7.94-.09-11.54.74l-1.66-.74Z"/><path id="Mom_right_hair" data-name="Mom right hair" class="cls-12" d="M199.63,35.1s8-1,11.16,6.4c1.47,2.13,5.57,6.23,5.57,16.23.49,2.46.66,18.86,3.77,23.29.66,1.31,3.12,6.07,2.13,7.38s-3.6-3.12-3.6-3.12-11.32,7-12.14,8.69a9.3,9.3,0,0,1-1.19.62L204,95.81l-.78-1.22s-1.44.93-1.65,1.86c-.57.36-3.44.93-3.79-.07s2.5-21,2.5-21l-.95-17-2-5.63s-.22-4-5.62-7.65a5.75,5.75,0,0,0-1.39,0Z"/><path class="cls-10" d="M192.34,54.45s-2.93,1.38-2.93,2.38c.77-.06.11.77,3.1-.89.39-.44,3.16-.44,3.16-.44s2.05-.22,1.11-.83S192.34,54.45,192.34,54.45Z"/><path class="cls-10" d="M181.7,57.08s3.17.25,3.13,1-1.49.6-2.83.6A5.33,5.33,0,0,1,181.7,57.08Z"/><path class="cls-10" d="M185.57,59s.82.81.82,1.16"/><path class="cls-10" d="M182.1,60.14s3.15-.45,3.15,1c-.45,1.05-3,.9-3,.9Z"/><path class="cls-10" d="M191.54,59.59s.6-2.27,4.78-1.55c.84.6-.59,1.55-.59,1.55A4.8,4.8,0,0,1,191.54,59.59Z"/><path class="cls-10" d="M186.76,59.24a4.1,4.1,0,0,1,.84,2.15"/><path class="cls-10" d="M187.24,62.58s-1.19,8.25,1.32,6.57"/><path class="cls-10" d="M190.35,68.92s0-1.2,1.91-.6"/><path class="cls-10" d="M193.34,65.45s2.51,2.75,3.58,2.63"/><path class="cls-10" d="M193.34,66.64s0,1.2-.36,1.44"/><path class="cls-10" d="M186.88,70.83a5.27,5.27,0,0,0,1.2,1.43"/><path class="cls-10" d="M188.69,72.31s1.24-.87,2.11-.62c.51,0,.7-.73,2.43-.41,1.07,0,2.66-.23,2.66-.23s-1.26,3-3.32,3.37a2.78,2.78,0,0,1-2.75-1A4.84,4.84,0,0,0,188.69,72.31Z"/><path class="cls-10" d="M206.55,101.52s1.8-12.59,12-12"/><path class="cls-10" d="M205.75,132.5s4.4,8,6.39,8.2"/><path class="cls-10" d="M194.76,142.7s6.79-.4,10.79,1.6a35.11,35.11,0,0,0,4.79.79"/><path class="cls-10" d="M191.46,102.25s2.14-3.2,5.34-3.91"/><polygon id="Mom_skirt_shadow" data-name="Mom skirt shadow" class="cls-10" points="173.26 162.39 171.28 202.54 169.59 231.1 169.23 236.88 174.68 237.04 173.26 162.39"/><path class="cls-10" d="M189.66,158.72s2.83,22.62.85,27.42"/><path class="cls-10" d="M206.63,148.25a23.63,23.63,0,0,1,0,4.53"/><path class="cls-10" d="M208.89,148.54a15.24,15.24,0,0,1,0,3.67"/><path class="cls-10" d="M206.34,156.45S214.54,183,213.7,185"/><path class="cls-10" d="M189.1,155.32s13-.28,14.7-1.41"/><path class="cls-10" d="M212.85,153.34s3.39,8.49,3.67,10.47"/><path class="cls-10" d="M165.91,168.05s-2.26,28.84-2.83,30.25"/><path id="Boy_left_leg" data-name="Boy left leg" class="cls-4" d="M66.86,268.76,83,269.6,82.14,275s-1.07,11.22-1.31,12.17a34.77,34.77,0,0,0-.36,4.06L66,291.32s-.48-15.51.6-17.66A48.2,48.2,0,0,0,66.86,268.76Z"/><path id="Boy_left_arm" data-name="Boy left arm" class="cls-4" d="M63.38,174.14H73.56l-.12,2.22s.82,7,.59,8.77c0,1.64-.94,18.12-.82,20,.11,1.52,0,9.59,0,9.59s1.75,7.6.93,11.58a38.07,38.07,0,0,1,0,5.49s-2,3.16-3.27,3.63a1.44,1.44,0,0,1,.35-2.11,23.67,23.67,0,0,0,.47-5.49l-.82,4.44a15.59,15.59,0,0,1-2.46,2.22c-.46.12-1.17-.35-1.17-.35s-.35-1.4.35-1.63,1.06-5.62,1.06-5.62l-1.17,3.75L66,233s-2.46-.35-2.11-.7a9.46,9.46,0,0,0,.94-2l.7-4.44s-1.52,3.16-2,3.39a9.24,9.24,0,0,0-.58,2s-2.11,2.34-1.64-2.22a20.84,20.84,0,0,1,1.17-3.74l.23-5.62s.59-6.43,1.76-7c-.12-2-.82-11.58-.59-13.33-.23-2-1.75-15.55-1.17-21.75C62.8,174.72,63.38,174.14,63.38,174.14Z"/><path id="Boy_right_leg" data-name="Boy right leg" class="cls-4" d="M98.37,268.05s-.36,12.29.36,14.8c.24,1.31,1.55,8.47,2.62,8.35s12.18,0,12.18,0,1.19-19.45-.84-23.51S98.37,268.05,98.37,268.05Z"/><path id="Boy_shorts" data-name="Boy shorts" class="cls-15" d="M71.72,216.91l42.22.68,2.92,5.39s1.8,20.21.9,24.48c0,2.69.9,13.7.23,14.82v5.39s.67,3.37-5.84,3.59h-9.43S97.77,274,96,267a43.52,43.52,0,0,0-1.35-6.52L91.49,274s.67,3.14-8.31.9c-3.15.22-9.21-1.57-9.21-1.57s-.9,2.24-7.19-1.58c.23-3.14.9-7.63.9-7.63s-1.35-8.31.9-9.66c1.12-3.14,1.35-9.21,1.35-9.21l.22-9.43Z"/><path id="Boy_head" data-name="Boy head" class="cls-4" d="M77.34,124.42s8-4.81,7.54-6.25a4.22,4.22,0,0,0,0-3.29c-.61-.62-3.83-3.84-3.9-5.89-.34-.41-3.84.41-5.35-2.2-.34-1.85-1.09-5,.83-3.83.89.41,2.26-7.4,2.26-7.4l13.7-6.45,9,1.65,3.43,4.8.48,3.7,2-.55s1.17,3.08-1.23,5.07c-.76,1-.14,1.58-1.85,1.23.13,1,.48,5.07-2.33,7.47-.14,1-.21,6.86-.21,6.86l2.61,4,.27,8.36-14,2.13-14.32-6.72Z"/><path id="Boy_shirt" data-name="Boy shirt" class="cls-16" d="M76.36,177.69s-10.58-2.41-15.22-1.3c.93-3.71-.56-1.11,1.11-4.27.19-2.6,1.12-15.59,1.86-17.82,0-2.23.93-9.84.93-9.84a11.78,11.78,0,0,1,2.22-6.87c1.49-3,3.53-6.13,3.53-6.13l4.27-5.57s1.3-4.27,3.9-2c1.86,1.11,4.09,2.79,4.09,2.79s6.68,4.45,14.11,3.15a11.49,11.49,0,0,0,5.38-3.34s.93-5.2-.93-7.06c4.09,1.3,13.74,4.83,17.08,9.66,1.49,3,5.39,20.79,5.39,20.79s-1.3,13.19-3.16,13.93-3.53,1.48-3.53,1.48,2.79,19.13,2.23,26.93c0,3.52-.37,29.7-.37,29.7s.37,1.49-5.94,2.05-26,.92-26,.92l-13-.37v-3.09s-.72-6.11-1.17-6.38c0-.27.27-13.47.27-13.47l.36-10,.27-8.18L73.59,177Z"/><path id="Boy_hair" data-name="Boy hair" class="cls-17" d="M80.24,107.14s-2.74-4.46-3.49-4.39c-.62-.27-3.5.82-3.15-4.45-.14-2.47-.55-9,1.3-11.45,1-2,3.36-5.82,9.46-8.36,5-1,9.93-1.23,13.7,1.3,1.92,1,5.83,2.68,9.19,10.15a11.93,11.93,0,0,1,.61,7.6,2,2,0,0,1-.75,1.3s0,2.88-1.37,3.16c-.34.27-.76,1.23-1.65,1,0-1.51.07-3.29.07-3.29s-1,.27-.82-2.13c-.55-.41-1.1-.14-1.3-2.88-.21-.68-1.65-.61-1.85-1.92-.35,0-3-.61-3.29-1.16-.55.55-1.37,1.78-5.83,1.64-.82.07-1.85.35.21-1.37-1.78,1.24-7,5.07-6,3.29a17.62,17.62,0,0,1,1-1.85c-2,2-4.87,6.44-4.6,4.11s-2.05.07-2.05.07a20.17,20.17,0,0,0-.55,4.87A48,48,0,0,0,80.24,107.14Z"/><path class="cls-10" d="M82.44,99.08a3.87,3.87,0,0,1,2.18-1.21,12.37,12.37,0,0,0,3,0c.49-.16.49-1.21-.72-1.29s-3.31-.08-3.31-.08L82.2,98S81.07,98.84,82.44,99.08Z"/><path class="cls-10" d="M98.57,94.49a4.94,4.94,0,0,0-2.58,1c-.73.73-1,1.54,1,1a5.11,5.11,0,0,1,2.9-.32,10.88,10.88,0,0,0,1.37-.32S101.88,95,98.57,94.49Z"/><path class="cls-10" d="M83.33,101.1a9.28,9.28,0,0,0,3.87-.16,8.34,8.34,0,0,1,1.86-.33s.16-1.93-3.55-1.13C84.38,100,83.25,100.45,83.33,101.1Z"/><path class="cls-10" d="M95.34,99.57s0-1.94,3-1.94c1-.08,4.35.4,1.61,1.21A9.29,9.29,0,0,1,95.34,99.57Z"/><path class="cls-10" d="M89,101.57a3,3,0,0,1-2.81,1.17"/><path class="cls-10" d="M90.38,104.79s-3.63,2.54-3.22,4"/><path class="cls-10" d="M89.9,105.82s-.48,2.27,2.13,1.1"/><path class="cls-10" d="M94,107.26a1.19,1.19,0,0,1,1.65-.68"/><path class="cls-10" d="M94.77,102.74A1.86,1.86,0,0,0,96,104.66"/><path class="cls-10" d="M83.86,110.08s2.82,3.84,4.12,3.77"/><path class="cls-10" d="M88.87,111.31s2.88-1.44,4.26-1.1c.89,0,2.12-.82,4.53-.34.82.14-1.45,2.33-3.5,2.61A10,10,0,0,1,88.87,111.31Z"/><path class="cls-10" d="M85.3,119.41s1.86,3.36,2.75,3.15"/><path class="cls-10" d="M95.39,125.72s2.2,3.5,2.75,2.81"/><path class="cls-10" d="M100.67,123.66a13.77,13.77,0,0,1-.13,3.23"/><path id="Boy_red_shirt_detail" data-name="Boy red shirt detail" class="cls-18" d="M78.5,149.82s14.12-11,41.12-9.51c0,.46-.92,15.19-1.84,17.64,0,1.69-.39,7.3-.39,7.3l1.31,11.12s1.69,17.49.92,22.09c0,3.53-.37,23.42-.37,23.42s-1.2,1.58-5.94,2.05-26,.92-26,.92l-13-.37s-.24-8.73-1.18-9.47.63-23.52.63-23.52L73.59,177l2.2.57S79,179.26,78,174.43a25.06,25.06,0,0,0-.17-3.75S81.54,167,80,163.51c1.5-1.5,2-5.08.5-8.58A49.47,49.47,0,0,1,78.5,149.82Z"/><path id="Boy_shirt_pocket_detail" data-name="Boy shirt pocket detail" class="cls-16" d="M108.29,147.43s7.59-.42,8.84-.17c.08.5.41,11.17.41,11.17s.25,6.08-2.08,7.5a6.71,6.71,0,0,1-5.5-4.84c-.25-2.25-1-5.41-1.17-6.5A30,30,0,0,1,108.29,147.43Z"/><path id="Boyy_shorts_detail" data-name="Boyy shorts detail" class="cls-10" d="M101.07,234.26s1.47-5.17,3.44-4.31"/><path class="cls-10" d="M76.08,242.63s0,18-.86,19.44"/><path id="Boy_shorts_shadow" data-name="Boy shorts shadow" class="cls-19" d="M99.47,238.81l-4.84,21.67s2,10.21,3,9.84,3.32-3.2,3.32-3.2S100.2,241.39,99.47,238.81Z"/></g></g></g></g></svg>