<svg xmlns="http://www.w3.org/2000/svg" xmlns:xlink="http://www.w3.org/1999/xlink" viewBox="0 0 710.32 646.22"><defs><style>.cls-1,.cls-19,.cls-2,.cls-32,.cls-34{fill:none;}.cls-10,.cls-2{stroke:#004649;}.cls-10,.cls-13,.cls-14,.cls-15,.cls-16,.cls-17,.cls-18,.cls-19,.cls-2,.cls-20,.cls-21,.cls-22,.cls-23,.cls-24,.cls-25,.cls-26,.cls-27,.cls-28,.cls-31,.cls-32,.cls-33,.cls-34,.cls-35,.cls-36,.cls-37,.cls-38,.cls-39,.cls-40,.cls-41,.cls-42,.cls-43,.cls-44,.cls-45,.cls-46,.cls-52,.cls-53,.cls-54,.cls-55,.cls-56,.cls-57,.cls-58,.cls-59,.cls-60,.cls-61,.cls-62{stroke-miterlimit:10;}.cls-3{font-size:19.8px;font-family:Futura-Bold, Futura;font-weight:700;}.cls-3,.cls-9{fill:#00464a;}.cls-4{letter-spacing:0em;}.cls-5{letter-spacing:0.01em;}.cls-6{letter-spacing:-0.01em;}.cls-7{letter-spacing:0em;}.cls-8{letter-spacing:0.01em;}.cls-10{fill:#004649;}.cls-11{clip-path:url(#clip-path);}.cls-12{fill:#7d9a9b;}.cls-13{fill:#d49f77;}.cls-13,.cls-14,.cls-15,.cls-16,.cls-17,.cls-18,.cls-19,.cls-20,.cls-21,.cls-22,.cls-23,.cls-24,.cls-25,.cls-26,.cls-27,.cls-28,.cls-52,.cls-53,.cls-54,.cls-55,.cls-56,.cls-57,.cls-58,.cls-59,.cls-60,.cls-61,.cls-62{stroke:#fff;}.cls-13,.cls-14,.cls-15,.cls-16,.cls-17,.cls-18,.cls-19,.cls-20,.cls-21,.cls-22,.cls-23,.cls-24,.cls-25,.cls-26,.cls-27,.cls-28,.cls-31,.cls-32,.cls-33,.cls-34,.cls-35,.cls-36,.cls-37,.cls-38,.cls-39,.cls-40,.cls-41,.cls-42,.cls-43,.cls-44,.cls-45,.cls-46,.cls-52,.cls-53,.cls-54,.cls-55,.cls-56,.cls-57,.cls-58,.cls-59,.cls-60,.cls-61,.cls-62{stroke-width:0.25px;}.cls-14{fill:#e7b290;}.cls-15{fill:#c6baa4;}.cls-16{fill:#4c6067;}.cls-17{fill:#d9dada;}.cls-18{fill:#978e7d;}.cls-20{fill:#0f0e0d;}.cls-21{fill:#110e0d;}.cls-22{fill:#cda19f;}.cls-23{fill:#94795e;}.cls-24{fill:#4b688a;}.cls-25{fill:#373c51;}.cls-26{fill:#23150f;}.cls-27{fill:#e04742;}.cls-28{fill:#3f5774;}.cls-29{clip-path:url(#clip-path-2);}.cls-30{fill:#e3948a;}.cls-31{fill:#a97656;}.cls-31,.cls-32,.cls-35,.cls-36,.cls-39,.cls-41,.cls-42,.cls-44,.cls-45,.cls-46{stroke:#939598;}.cls-33{fill:#153e4b;}.cls-33,.cls-34,.cls-38,.cls-40,.cls-43{stroke:#6d6f71;}.cls-35,.cls-37{fill:#f7dfd8;}.cls-36{fill:#4da1c8;}.cls-37{stroke:#a7aaac;}.cls-38{fill:#67473a;}.cls-39,.cls-40{fill:#e6c3b8;}.cls-41{fill:#fff;}.cls-42,.cls-58{fill:#a5bde2;}.cls-43,.cls-44{fill:#86a7d7;}.cls-45{fill:#dac0a2;}.cls-46,.cls-57{fill:#523e33;}.cls-47{clip-path:url(#clip-path-3);}.cls-48{font-size:24.62px;fill:#595a5c;font-family:Futura-Medium, Futura;font-weight:500;}.cls-49{letter-spacing:0.03em;}.cls-50{fill:#e1c478;}.cls-51{fill:#314779;}.cls-52{fill:#b78b74;}.cls-53{fill:#e57c59;}.cls-54{fill:#8e94a6;}.cls-55{fill:#3f465e;}.cls-56{fill:#3e271b;}.cls-59{fill:#879ab9;}.cls-60{fill:#d1ab94;}.cls-61{fill:#775041;}.cls-62{fill:#b89884;}</style><clipPath id="clip-path"><circle class="cls-1" cx="162.04" cy="301.72" r="141.29"/></clipPath><clipPath id="clip-path-2"><circle class="cls-1" cx="560.36" cy="140.73" r="140.73"/></clipPath><clipPath id="clip-path-3"><circle class="cls-1" cx="560.78" cy="465.2" r="141.29"/></clipPath></defs><g id="Layer_2" data-name="Layer 2"><g id="BlackFam"><polygon id="Triangle_board" data-name="Triangle board" class="cls-2" points="513.98 119.73 186.33 302.36 519.64 494.8 513.98 119.73"/><text class="cls-3" transform="translate(15.43 124.34)">Supe<tspan class="cls-4" x="52.72" y="0">r</tspan><tspan x="61.95" y="0">ior</tspan></text><text class="cls-3" transform="translate(16.93 605.67)">In<tspan class="cls-5" x="20.15" y="0">f</tspan><tspan x="28.11" y="0">e</tspan><tspan class="cls-4" x="40.92" y="0">r</tspan><tspan x="50.15" y="0">ior</tspan></text><text class="cls-3" transform="translate(15.71 639.41)"><tspan class="cls-6">F</tspan><tspan class="cls-7" x="10.71" y="0">o</tspan><tspan class="cls-8" x="24.57" y="0">r</tspan><tspan x="33.91" y="0">eigner</tspan></text><text class="cls-3" transform="translate(614.2 639.41)">Insider</text><polygon class="cls-9" points="6.98 56.45 0 69.14 13.96 69.14 6.98 56.45"/><line class="cls-10" x1="6.78" y1="66.94" x2="6.67" y2="616.37"/><polygon class="cls-9" points="710.32 616.67 697.22 623.65 697.22 609.7 710.32 616.67"/><line class="cls-10" x1="697.42" y1="616.35" x2="5.55" y2="617.33"/><g id="Asian_Family" data-name="Asian Family"><g class="cls-11"><circle class="cls-12" cx="162.04" cy="301.72" r="141.29"/><path id="Mom_left_leg" data-name="Mom left leg" class="cls-13" d="M188.42,396.12l14.2.15L201.37,399s-.54,8.6-1.29,9.8,4.78,6.58,5.08,16.14c.45,3.59,1.5,10.32-.75,14.65,0,2.54-.15,9.87-.15,9.87l-12.7.15s-5.23-18.09-4.94-19S188.42,396.12,188.42,396.12Z"/><path id="Dad_left_leg" data-name="Dad left leg" class="cls-14" d="M155.29,388.08l.13,3.5s-1.25,6.13,0,7c.12.87,2.88,12.51,2.25,17.77,0,1.88-2,9.38-3.75,10.89a13.78,13.78,0,0,0-.63,3.37l-.4,4.8-.78,7.84-.62,6.2h-6.2l-5.47-12.63-5.89-41.45-1-6.57Z"/><path id="Dad_right_leg" data-name="Dad right leg" class="cls-14" d="M165.08,389l2.15,4.76s2.38,5.44,2.16,7.82a12.26,12.26,0,0,1,.33,3.28c-.11.68-1.45,9-1.05,11.32-.1,1.22.72,8.34,1.83,10.57.51,1.53,1.73,6.1,1.43,7.32a10.09,10.09,0,0,0-.23,2.63l1,6.15,2.78,6.66h8.68l2-15.33.34-4.3,4.63-19.8-1.85-23Z"/><path id="Dad_shorts" data-name="Dad shorts" class="cls-15" d="M125.88,322.5l.88,3.5.13,4.88.37,61.2,7.51,1.75,3.13-.37s16.64-1.13,17.52-1.88a12.62,12.62,0,0,0,1.37.13s1.26-9.64,1.76-9.89c.25,1.38,1,6.51.5,9.76a31.37,31.37,0,0,0,2.5,2.13s14.52.62,17.14-.5c2.63,0,13.65.5,13.65.5l-1.51-75.46Z"/><path id="Asian_Dad_Body_Outline" data-name="Asian Dad Body Outline" class="cls-14" d="M120.75,324.52l8.91-24.89s2.05-4.82,1.68-8.91c.37-3,.92-9.1.92-9.1l-5.57-.93s-2-1.48-6.87-.55l-3-.93s-3.34-6.69-2.6-8.36a18,18,0,0,1-.18-2.23s-3.72-1.3.55-7.42c.37-3.35,4.09-16.9,6.32-17.46.37-3.16.74-8,.74-8l2.6-3.53,2-4.27.19-2s8-6.32,11.32-5.76a36.71,36.71,0,0,1,5.95-.56s4.64-4.08,6.12-3.53c1.68-2.22.56-2,3.9-4.64.75-.37.56-3.9.56-3.9s-4.64-5.2-3.9-9.47a26.84,26.84,0,0,0-.08-4.75s-.74-.53-.32-3.51c-.21-.86-1-1.81.11-3.09-.21-1-.32-5.12-.32-5.12s-1.07-1.17.11-5.11a12.77,12.77,0,0,1,5.22-7.36c3.19-1.81,4.47-2.66,9.37-2.45a15.45,15.45,0,0,1,7.89,1.71,32.79,32.79,0,0,1,7.35,6,9.17,9.17,0,0,1,.64,2.13,15.89,15.89,0,0,1,.53,4.26c-.1,1.92-.42,6.71-.42,6.71s1.28,1.17,0,4.8c.21,1.6.1,5.11-2.35,5.86l-.64.21s-.85,5-1.91,5.76c-.22,1.17-.43,2.55-1.6,3.19l1.17-.53.21,3.62,2.75-1.43,3.91,6.11s7.63,3.73,8.14,5.09c1.53.85,8,6.62,8,6.62l6.11,8,.85,32.24.68,41.23-.12,11.59Z"/><path id="Dad_shirt_top" data-name="Dad shirt top" class="cls-16" d="M114.07,268.62s-3.64-1.19.55-7.42c.88-3.22,3.6-16,6.32-17.46a74.15,74.15,0,0,0,.74-8s4.59-6.41,4.64-7.8l.05-1.39s5.74-5.29,9.21-6.19c2.87-.3,7.55-.61,7.55-.61s5.09-3.77,6.77-3.7c1.08-1.43,2.95-4.68,3.9-4.64s-.55,9.25.66,9.55l.75,1.81.45,2.27.76,5.74.3,3.77s6.65-8.76,8.91-8.91a4.64,4.64,0,0,1,1.66-.6l-.15-3.78.45-1.05s-4.07-4.38,1.21-4.23h2.12s3.27-6,4.5-5.64a18.22,18.22,0,0,0,2.75-1.43l3.91,6.11,6,3.53,10.06,8.18,1.12,1.48.9,23.56S189,268.7,188.28,268.55c-1.06-3.47-2.26-5.59-3.92-6.95-1.06-1.05-1.51-3.62-10-3.92-.91.15-11.33,1.81-12.69,2s-13.44-.75-13.44-.75l-7.09-.46-7.85.61s-3.25,2-4.31,4c-3.7-.93-9.38-4.76-13.6-2C114.35,262.35,114.07,268.62,114.07,268.62Z"/><path id="Dad_shirt_botttom" data-name="Dad shirt botttom" class="cls-16" d="M132.26,281.62l-.92,9.1-.21,4.26-1.47,4.65,1.6,1s3.7-.39,3.57,2.51c1.45,1.19,5.68,2.78,5.54,7.53.8,1.85,7.27,12.68-3.43,12.28-.27.14-1.37,2.12-2.79,1.94-1,1.12-2,2-3.91,1.48l-.06.59a7.09,7.09,0,0,0,3.5-.29c1.18.06,8.06,1.12,9.77.71,2.2.47,7.29,1.6,9.49.65,2.73-.15,6.41.07,8.84-1,2-.44,10.74-.15,12.8-1.1,1.62.07,10.52-.22,10.52-.22l1,.13s.35-2.91,1.41-4c.36-1.77,1-7.51,1-7.51s.36-6.62,1.06-7.59l.53-1.06-.26-5.57-.16-.84s-5.52-1.12-6.49-1.42c-.75-.22-7.47-2.46-8.14-2.84s-.9-5,.67-6.87c.45-1.71,4.78-10,4.78-10l1.58-2.58a34,34,0,0,1-6.88.86,18.07,18.07,0,0,1-12.9.72c-1.44.57-17.06,4.3-19.5,4.3S132.26,281.62,132.26,281.62Z"/><path id="Dad_right_sock" data-name="Dad right sock" class="cls-17" d="M171.93,434.1l14-.37.15.9a11.43,11.43,0,0,1,0,2.58c-.2.39-.3,2.92-.4,3.17s-.44,3.33-.49,3.47-.35,3-.45,3.18a20.87,20.87,0,0,0-.25,2.18l-.1.5-11.31-.3s-.69-2-.34-2.13-.1-3.28,0-3.33-.75-2.87-.7-3.72-.84-3.72-.69-4.21-.05-2.24.15-2.24S171.93,434.1,171.93,434.1Z"/><path id="Dad_right_sock-2" data-name="Dad right sock" class="cls-17" d="M139.59,434.1l14-.37.14.9a12,12,0,0,1,0,2.58c-.2.39-.3,2.92-.4,3.17s-.45,3.33-.5,3.47-.35,3-.44,3.18a20.87,20.87,0,0,0-.25,2.18l-.1.5-11.31-.3s-.7-2-.35-2.13-.1-3.28,0-3.33-.75-2.87-.7-3.72-.84-3.72-.69-4.21-.05-2.24.15-2.24S139.59,434.1,139.59,434.1Z"/><path id="Dad_shorts_crotch" data-name="Dad shorts crotch" class="cls-18" d="M150.74,339.94s2.12,16,2.79,16.09c.56,1.57,1,16,1,16l.33,14.64.79,4.59.67.44,2.22-9.86-.55-19.2S150.63,342.28,150.74,339.94Z"/><path class="cls-19" d="M152,356.93s-7.49,4.47-8.83,4.58"/><path class="cls-19" d="M151.86,364.08c-1,.67-5.59,5.59-7,5.81"/><line class="cls-19" x1="153.2" y1="367.54" x2="151.74" y2="368.66"/><path class="cls-19" d="M152.75,378.05c-1,1.34-6.59,7.71-8.61,8.38"/><path id="Dad_arms" data-name="Dad arms" class="cls-14" d="M115.41,261s3.4-3.17,13.6,2a34,34,0,0,1,3.82-3.68l5.85-.64s5.32-.53,8.19.32c2.24,0,12,.53,12,.53s4.26,0,5.43-.21,12.55-2.66,15-1.06,3-.43,6.17,4.57a36.55,36.55,0,0,1,2.8,5.7l-6.26,7s-5.58.87-6.54.87a19.58,19.58,0,0,1-13.24.71c-2.18.68-16.22,3.87-16.64,3.87a59.15,59.15,0,0,1-8.09.53c-2.23-.11-9-.11-9.57-.43s-3.26-1.9-8.12-1c-1.77-.59-3.47-.06-5-5.38C114.12,271.46,113.19,262.09,115.41,261Z"/><path class="cls-19" d="M130,263.59s5.21,2,6.6,3.51c1.91.11,7.12,1,10.31,3.09,2.45,1.17,8.19,3.72,10.11,5.1a26.67,26.67,0,0,1,3.4,2.34"/><path class="cls-19" d="M127.3,276.89s18.72,3,24.89-1.6"/><path class="cls-19" d="M137.51,263.49s3.83,1.7,4.05,2.76"/><path class="cls-19" d="M160.81,268.7s12.12,5.32,12.12,6.49"/><path class="cls-19" d="M161.66,273.06s6.8,3,9.46,2.13"/><path class="cls-19" d="M132.3,270s10.43,1.27,11.49.31"/><path class="cls-19" d="M178.63,191s1.08-2.17,1.41-1"/><path class="cls-19" d="M178.2,192.36s2.71.87.43,2.93"/><path class="cls-19" d="M152.73,186a1.85,1.85,0,0,1,1.58-2,7.16,7.16,0,0,1,4.12-.59c.59.14.64.46.64.46l0,.68a23.27,23.27,0,0,1-3.62.72A7.38,7.38,0,0,1,152.73,186Z"/><path class="cls-19" d="M172.54,186.1a1.84,1.84,0,0,0-1.58-2,7.06,7.06,0,0,0-4.12-.59c-.59.14-.63.45-.63.45l-.05.68a24.57,24.57,0,0,0,3.62.73A7.43,7.43,0,0,0,172.54,186.1Z"/><path class="cls-19" d="M153.07,188.2l1.53-.69s2.76-1.67,4.58-.49c.29.4,0,1.13-.3,1.18a21.48,21.48,0,0,1-5.81,0Z"/><path class="cls-19" d="M165.76,187.6s1.38-1.45,4.29.07c1.09.51,1.67.8,1.67.8a17.35,17.35,0,0,1-4.87.22l-1.6-.36S165.47,187.6,165.76,187.6Z"/><path class="cls-19" d="M161.25,188a28.9,28.9,0,0,0-1.45,3.93c0,.58-2,2.69-.73,3.05s1.31.08,1.31.08"/><path class="cls-19" d="M163.14,195.45c.51,0,.44-1.09,1.53-.07"/><path class="cls-19" d="M152.52,198.5a62.51,62.51,0,0,1,3.06,5.75c.29,1,2,6.25,4.29,5.89"/><path class="cls-19" d="M172.16,199s-5.17,11.71-8.51,11.35"/><path class="cls-19" d="M155.8,198.43s4.21-1.38,5.67-.36c.8.07,3.56-.87,5.23.73l1.24.65a3.14,3.14,0,0,1-2.33,2.62c-1.31-.15-3.49-.44-3.49-.44a15.33,15.33,0,0,0-3,.22C158,201.27,155.43,199,155.8,198.43Z"/><path class="cls-19" d="M164,187.05s.6,4.27,1.87,4.27"/><path class="cls-19" d="M167.75,195.25s2.6,2.14,2.4,3"/><path id="Dad_Hair" data-name="Dad Hair" class="cls-20" d="M150.17,186.71l-.22-4.93s-1.95-3.14,1.42-8.46c1.83-2.48,4.79-6.68,10.52-6.56s4.79-.89,12,2.36l4.14,3.43a8.76,8.76,0,0,1,3,7.34c-.17,2.36-.47,7.09-.47,7.09s-2.9,2.49-2.9,3.31c-.29-.71-.23-6.5-.23-6.5s-2.9-1.13-2.43-7.39c-.59-.89-4.32-3.73-7.57-3.67-.89.12-4.08.65-5.62-.24-.82.12-2.78-.35-4.49,1.48-.95.48-5.14,2.66-6.09,7.39.06,1.3-.06,5.68-.06,5.68Z"/><path class="cls-19" d="M168.21,226.86s3.45-4.94,3.75-6.44"/><path class="cls-19" d="M172.71,220.57s4,4.79,5.69,2,3.75-6.6,3.75-6.6"/><path class="cls-19" d="M143.33,221s.45,3.59,1.95,1.65,5.85-6.45,5.85-6.45,3.44,8.24.29,9.29a56.9,56.9,0,0,1,1.2,6l1.65,4.19"/><path class="cls-19" d="M159.37,245.15s7-15.89,10.94-17.39"/><path class="cls-19" d="M174.81,239.6S177.65,229,181.4,227"/><path class="cls-19" d="M174.51,248.44s1.94-9.74,4.19-11.09"/><path class="cls-19" d="M180.5,237.65s3.9-16.63,9.74-14.54"/><path class="cls-19" d="M131.94,259.09s2.1-8.4,1.2-14.09"/><path class="cls-19" d="M133,240.35s-.9-6.89.45-7.79"/><path class="cls-19" d="M155,240.75s.52,2.08-1.56,2.08"/><path class="cls-19" d="M150,289.08s2,1.57,0,2.16"/><path class="cls-19" d="M149.07,304.21s2.25,2-.11,1.89"/><path class="cls-19" d="M155.63,238.91s9.88-10.42,11.89-10.95"/><path id="Mom_left_hair" data-name="Mom left hair" class="cls-21" d="M200.21,251.79l-3.93,5.4s1.15,5.74,4.26,3.44c.82-2,2-1.64,2-1.64s3.28,6.24,4.76,4.6c.49-2.14-.11-8.22-.11-8.22l8.63-4.25,3.28-9.51-13.28-30.17,5.33-5.92,9.27-10s-12.3-3.94-19.85,10.66c-1,2.95-1.47,3.12-1.31,4.43s0,19.68,0,19.68Z"/><path id="Mom_face_arms" data-name="Mom face arms" class="cls-13" d="M175,295s-1.5-2.14.67-6.87c1.25-2.6,2.91-7.3,3.83-8.13.55-.83,1.82-4.47,2.53-4.45s6.69-7.45,6.69-7.45l3.69-4.8,14.94-8.48s4.06-6,7-6.73c1.29-1.85.83-2.22,2.22-3,.18-1.56.18-4.24.18-4.24s-2.77.28-3.69-.46-7.65-9.22-7.65-9.22-2.22-2.4-1.94-5.07c-.09-2-1-8.67-1-8.67s-.36-6.46,1.2-8.12c1.2-1.38,3.51-4.8,7.47-3.87h1.39s5.62,4.15,5.62,7.65c.83,2.4,2.49,6.83,2.49,6.83l4.61,9,.83,5.35L222.19,237l9.59,1.56s9.23,6.18,9.5,6.92,3.2,11.75,3.2,11.75l3,9.76s-4,6.36-6.93,8.34c-.85,1.84-15.27,13.43-18,14.7-.71,1.14-6.65,5.66-8.06,5.94s-6.51,2-8.49,1.42-10.32,1.41-10.6,1.83S180.43,298.39,175,295Z"/><path id="Mom_shirt_top" data-name="Mom shirt top" class="cls-22" d="M196.27,257.77l-3.68,5.09s-2.4,13.85-1.69,14.14,2.4,2.68,4.1,2.68a30.42,30.42,0,0,1,6.22,1c2.82,0,7.63-.14,9.33.85s12.58-9.33,12.58-9.33l4.24-6.5s8.91-7.64,15.56-5.09c2.82,2.68,4.8,5.23,4.52,6.36s-6.93,8.34-6.93,8.34,4.95,1.13,6.36.42a18.46,18.46,0,0,1,3.11-1.13l.71-7.77s1.56-16-5.23-18.95c-4.81-2.12-7.21-3.11-10.18,0-2.12,1.84-17.25,8.2-21.91,8.06a32,32,0,0,1-6.22-.56S199.52,253.24,196.27,257.77Z"/><path id="Mom_shirt_bottom" data-name="Mom shirt bottom" class="cls-22" d="M189.62,299.3s.49,5.27.42,6.41,4.46,2.9,4.46,2.9,8.68-1.13,9.94-.51c1.76-.25,13.58-1.76,16.1-1.38,1.88-.38,8.42-.5,8.42-.5l3.4-.25s2.26-2.64,2.14-4.53,1.88-8.55,1.88-8.55l8.05-17a31.45,31.45,0,0,1-3.91-.61c-.87,1.36-10.93,10.16-12.81,11.05-1.14.88-4.62,3.67-5.14,3.65s-4.3,4.65-6.94,5.53-7.8,1.88-7.8,1.88-6.54-.37-10.19,1.14A16.57,16.57,0,0,1,189.62,299.3Z"/><path id="Mom_hand" data-name="Mom hand" class="cls-13" d="M211.55,281.23s4.8-7.2,7.9-7.5c1.4-.5,2.57-2.18,3.68-1.54s0,1.64-.88,2.14a3.6,3.6,0,0,1-2.2.2s5.6,1.2,3.5,2c-.6.6-4.7-.2-4.7-.2l-.7.5s5.9.7,4.2,2a26.09,26.09,0,0,1-4.5.2s-.4,2.4-3.4,2C213.45,281.13,211.55,281.23,211.55,281.23Z"/><path class="cls-19" d="M190.52,278.24a5.73,5.73,0,0,0-3.87,6.12"/><path class="cls-19" d="M183,283.93s9.66,4.19,11.49,7"/><path class="cls-19" d="M196,291.88s8.43,6.66,11.84,5.53"/><path class="cls-19" d="M207.27,292.85s1.61,3.55,5.37,1.07"/><path class="cls-19" d="M179.24,291.78s7.41,3.43,12.24,1.93"/><path id="Mom_right_leg" data-name="Mom right leg" class="cls-13" d="M212.34,394.33v3.73s2.39,15.85,3.44,15.85c.59,1.94-.3,15.4-.3,17.34s.59,18.39.59,18.39l11.37-.15s6-23.17,6.13-26.61-.45-14.5-2.55-17.94c0-1.94-.44-11.51-.44-11.51Z"/><path id="Mom_skirt" data-name="Mom skirt" class="cls-23" d="M190,305.71s-2,14.25-2.71,15a18,18,0,0,0-2.23,5c-.15,1-2.93,16-2.93,16l-3.85,46.23s-.53,6.49.14,7.28a23.07,23.07,0,0,0,2.25,2.12H190l6.89.14s-1.33,2.25,4.5,1.58c4.9.4,29.94-3,29.94-3l11.26-1.59s10.9,1.33,8.7-8.09-10-71.55-15.44-73.75l-2.4-4L232.36,306l-9.78.45-2,.3s-12.55.64-14.49,1.15c-1.51.25-8-.09-11.55.74l-1.65-.74Z"/><path id="Mom_right_hair" data-name="Mom right hair" class="cls-21" d="M220.39,195.53s8-1,11.15,6.4c1.47,2.13,5.57,6.23,5.57,16.23.49,2.46.66,18.86,3.77,23.29.66,1.31,3.12,6.06,2.14,7.38s-3.61-3.12-3.61-3.12-11.32,7-12.14,8.69a9.3,9.3,0,0,1-1.19.62l-1.28,1.22L224,255s-1.43.93-1.65,1.86c-.57.36-3.44.93-3.79-.07s2.5-21,2.5-21l-.94-17-2-5.62s-.22-4-5.62-7.65a5.75,5.75,0,0,0-1.39,0Z"/><path class="cls-19" d="M213.1,214.87s-2.94,1.39-2.94,2.39c.77-.06.11.77,3.1-.89.39-.44,3.16-.44,3.16-.44s2.05-.23,1.11-.83S213.1,214.87,213.1,214.87Z"/><path class="cls-19" d="M202.45,217.51s3.17.25,3.13,1-1.48.6-2.83.6A5.38,5.38,0,0,1,202.45,217.51Z"/><path class="cls-19" d="M206.32,219.45s.82.82.82,1.17"/><path class="cls-19" d="M202.85,220.56s3.15-.45,3.15,1.06c-.45,1-3,.9-3,.9Z"/><path class="cls-19" d="M212.3,220s.59-2.27,4.78-1.55c.83.6-.6,1.55-.6,1.55A4.78,4.78,0,0,1,212.3,220Z"/><path class="cls-19" d="M207.52,219.66a4.16,4.16,0,0,1,.83,2.16"/><path class="cls-19" d="M208,223s-1.19,8.25,1.32,6.57"/><path class="cls-19" d="M211.1,229.34s0-1.19,1.91-.59"/><path class="cls-19" d="M214.09,225.88s2.51,2.75,3.58,2.63"/><path class="cls-19" d="M214.09,227.07s0,1.2-.36,1.44"/><path class="cls-19" d="M207.63,231.26a5.27,5.27,0,0,0,1.2,1.43"/><path class="cls-19" d="M209.44,232.74s1.25-.87,2.12-.62c.5,0,.69-.73,2.42-.41,1.08,0,2.67-.23,2.67-.23s-1.27,3-3.32,3.37a2.77,2.77,0,0,1-2.76-1A5,5,0,0,0,209.44,232.74Z"/><path class="cls-19" d="M227.3,262s1.8-12.59,12-12"/><path class="cls-19" d="M226.5,292.93s4.4,8,6.4,8.2"/><path class="cls-19" d="M215.51,303.12s6.79-.39,10.79,1.6a34.28,34.28,0,0,0,4.8.8"/><path class="cls-19" d="M212.22,262.68s2.13-3.2,5.34-3.91"/><polygon id="Mom_skirt_shadow" data-name="Mom skirt shadow" class="cls-19" points="194.01 322.82 192.03 362.97 190.34 391.53 189.98 397.31 195.43 397.47 194.01 322.82"/><path class="cls-19" d="M210.41,319.14s2.83,22.62.85,27.43"/><path class="cls-19" d="M227.38,308.68a23.62,23.62,0,0,1,0,4.53"/><path class="cls-19" d="M229.64,309a15.33,15.33,0,0,1,0,3.68"/><path class="cls-19" d="M227.1,316.88s8.2,26.58,7.35,28.56"/><path class="cls-19" d="M209.85,315.75s13-.28,14.7-1.41"/><path class="cls-19" d="M233.6,313.77s3.39,8.48,3.67,10.46"/><path class="cls-19" d="M186.66,328.48s-2.26,28.84-2.83,30.25"/><path id="Boy_left_leg" data-name="Boy left leg" class="cls-13" d="M87.62,429.19l16.11.84-.84,5.37s-1.07,11.22-1.31,12.17a34.77,34.77,0,0,0-.36,4.06l-14.44.12s-.48-15.52.6-17.66A46.31,46.31,0,0,0,87.62,429.19Z"/><path id="Boy_left_arm" data-name="Boy left arm" class="cls-13" d="M84.14,334.57H94.31l-.12,2.22s.82,7,.59,8.77c0,1.63-.94,18.12-.82,20,.12,1.52,0,9.59,0,9.59s1.75,7.6.93,11.58a38.07,38.07,0,0,1,0,5.49s-2,3.16-3.27,3.63a1.44,1.44,0,0,1,.35-2.11,23.08,23.08,0,0,0,.47-5.49l-.82,4.44a15.59,15.59,0,0,1-2.46,2.22c-.46.12-1.17-.35-1.17-.35s-.35-1.4.36-1.64,1.05-5.61,1.05-5.61L88.23,391l-1.52,2.34s-2.46-.35-2.11-.7a9.46,9.46,0,0,0,.94-2l.7-4.44s-1.52,3.16-2,3.39a9.09,9.09,0,0,0-.58,2S81.56,394,82,389.41a21.26,21.26,0,0,1,1.17-3.75l.23-5.61s.59-6.43,1.76-7c-.12-2-.82-11.58-.59-13.33-.23-2-1.75-15.56-1.17-21.75C83.55,335.15,84.14,334.57,84.14,334.57Z"/><path id="Boy_right_leg" data-name="Boy right leg" class="cls-13" d="M119.12,428.48s-.36,12.29.36,14.8c.24,1.31,1.55,8.47,2.63,8.35s12.17,0,12.17,0,1.19-19.45-.84-23.51S119.12,428.48,119.12,428.48Z"/><path id="Boy_shorts" data-name="Boy shorts" class="cls-24" d="M92.47,377.34l42.23.68,2.92,5.39s1.79,20.21.89,24.48c0,2.69.9,13.7.23,14.82v5.39s.67,3.37-5.84,3.59h-9.43s-4.94,2.7-6.74-4.26a43.52,43.52,0,0,0-1.35-6.52l-3.14,13.48s.67,3.14-8.31.9c-3.15.22-9.21-1.58-9.21-1.58s-.9,2.25-7.19-1.57c.23-3.14.9-7.63.9-7.63s-1.35-8.31.9-9.66c1.12-3.14,1.35-9.21,1.35-9.21l.22-9.43Z"/><path id="Boy_head" data-name="Boy head" class="cls-13" d="M98.09,284.85s8-4.81,7.54-6.25a4.25,4.25,0,0,0,0-3.29c-.62-.62-3.84-3.84-3.91-5.89-.34-.42-3.84.41-5.35-2.2-.34-1.85-1.09-5,.83-3.83.89.41,2.26-7.41,2.26-7.41l13.7-6.44,9,1.65,3.43,4.79.48,3.7,2-.54s1.17,3.08-1.23,5.07c-.75,1-.14,1.57-1.85,1.23.14,1,.48,5.07-2.33,7.47-.14,1-.21,6.85-.21,6.85l2.61,4,.27,8.36-14,2.12-14.32-6.71Z"/><path id="Boy_shirt" data-name="Boy shirt" class="cls-25" d="M97.11,338.12s-10.58-2.41-15.22-1.3c.93-3.71-.56-1.11,1.11-4.27.19-2.6,1.12-15.59,1.86-17.82,0-2.23.93-9.84.93-9.84A11.75,11.75,0,0,1,88,298c1.48-3,3.52-6.13,3.52-6.13l4.27-5.57s1.3-4.27,3.9-2c1.86,1.11,4.09,2.78,4.09,2.78s6.68,4.46,14.11,3.16a11.49,11.49,0,0,0,5.38-3.34s.93-5.2-.93-7.06c4.09,1.3,13.74,4.83,17.09,9.66,1.48,3,5.38,20.79,5.38,20.79s-1.3,13.19-3.16,13.93-3.52,1.48-3.52,1.48,2.78,19.13,2.22,26.92c0,3.53-.37,29.71-.37,29.71s.37,1.49-5.94,2-26,.93-26,.93l-13-.37v-3.1s-.72-6.1-1.17-6.37c0-.27.27-13.47.27-13.47l.36-10.06.27-8.17-.45-6.28Z"/><path id="Boy_hair" data-name="Boy hair" class="cls-26" d="M101,267.57s-2.75-4.46-3.5-4.39c-.62-.27-3.49.82-3.15-4.46-.14-2.46-.55-9,1.3-11.44,1-2.06,3.36-5.82,9.46-8.36,5-1,9.93-1.23,13.7,1.3,1.92,1,5.83,2.67,9.19,10.14a12,12,0,0,1,.61,7.61,2,2,0,0,1-.75,1.3s0,2.88-1.37,3.16c-.34.27-.75,1.23-1.65,1,0-1.5.07-3.29.07-3.29s-1,.28-.82-2.12c-.55-.41-1.1-.14-1.3-2.88-.21-.68-1.65-.62-1.85-1.92-.34,0-3-.61-3.29-1.16-.55.55-1.37,1.78-5.83,1.64-.82.07-1.85.34.21-1.37-1.78,1.24-7,5.07-6,3.29a17.62,17.62,0,0,1,1-1.85c-2,2-4.87,6.44-4.59,4.11s-2.06.07-2.06.07a20.71,20.71,0,0,0-.55,4.87A47.94,47.94,0,0,0,101,267.57Z"/><path class="cls-19" d="M103.2,259.51a3.83,3.83,0,0,1,2.17-1.21,12.46,12.46,0,0,0,3,0c.48-.16.48-1.21-.73-1.29s-3.31-.08-3.31-.08L103,258.38S101.82,259.27,103.2,259.51Z"/><path class="cls-19" d="M119.32,254.91a5,5,0,0,0-2.58,1c-.72.73-1,1.53,1,1.05a5.11,5.11,0,0,1,2.9-.32,10.88,10.88,0,0,0,1.37-.32S122.63,255.4,119.32,254.91Z"/><path class="cls-19" d="M104.08,261.53a9.17,9.17,0,0,0,3.87-.17,8.74,8.74,0,0,1,1.86-.32s.16-1.93-3.55-1.13C105.13,260.4,104,260.88,104.08,261.53Z"/><path class="cls-19" d="M116.1,260s0-1.93,3-1.93c1-.08,4.35.4,1.61,1.21A9.16,9.16,0,0,1,116.1,260Z"/><path class="cls-19" d="M109.76,262a3,3,0,0,1-2.81,1.16"/><path class="cls-19" d="M111.13,265.22s-3.63,2.54-3.22,4"/><path class="cls-19" d="M110.65,266.25s-.48,2.27,2.13,1.1"/><path class="cls-19" d="M114.77,267.69a1.19,1.19,0,0,1,1.65-.68"/><path class="cls-19" d="M115.52,263.16a1.86,1.86,0,0,0,1.24,1.92"/><path class="cls-19" d="M104.62,270.51s2.81,3.84,4.11,3.77"/><path class="cls-19" d="M109.62,271.74s2.89-1.44,4.26-1.1c.89,0,2.12-.82,4.53-.34.82.14-1.44,2.33-3.5,2.61A10.14,10.14,0,0,1,109.62,271.74Z"/><path class="cls-19" d="M106.06,279.84s1.85,3.36,2.74,3.15"/><path class="cls-19" d="M116.14,286.15s2.2,3.5,2.75,2.81"/><path class="cls-19" d="M121.43,284.09a13.88,13.88,0,0,1-.14,3.23"/><path id="Boy_red_shirt_detail" data-name="Boy red shirt detail" class="cls-27" d="M99.25,310.25s14.12-11.05,41.12-9.51c0,.46-.92,15.19-1.84,17.64,0,1.69-.38,7.3-.38,7.3l1.3,11.12s1.69,17.49.92,22.09c0,3.53-.37,23.42-.37,23.42s-1.2,1.58-5.94,2-26,.93-26,.93l-13-.37s-.24-8.73-1.18-9.47.63-23.53.63-23.53l-.18-14.45,2.2.56s3.17,1.67,2.17-3.16a25,25,0,0,0-.17-3.75s3.75-3.67,2.17-7.17c1.5-1.5,2-5.08.5-8.58A50.61,50.61,0,0,1,99.25,310.25Z"/><path id="Boy_shirt_pocket_detail" data-name="Boy shirt pocket detail" class="cls-25" d="M129,307.85s7.59-.41,8.84-.16c.08.5.42,11.17.42,11.17s.25,6.08-2.09,7.5a6.72,6.72,0,0,1-5.5-4.84c-.25-2.25-1-5.41-1.17-6.5A30.08,30.08,0,0,1,129,307.85Z"/><path id="Boyy_shorts_detail" data-name="Boyy shorts detail" class="cls-19" d="M121.82,394.69s1.47-5.17,3.44-4.31"/><path class="cls-19" d="M96.83,403.05s0,18-.86,19.45"/><path id="Boy_shorts_shadow" data-name="Boy shorts shadow" class="cls-28" d="M120.22,399.24l-4.84,21.67s2,10.2,3,9.83,3.32-3.2,3.32-3.2S121,401.82,120.22,399.24Z"/></g></g><g id="White_Family" data-name="White Family"><g class="cls-29"><circle class="cls-30" cx="560.36" cy="140.73" r="140.73"/><circle class="cls-30" cx="560.36" cy="140.73" r="140.73"/><path id="W_dad_shirt" data-name="W dad shirt" class="cls-31" d="M536.24,83.71l9.58-16.12,3.27-3.27A5.75,5.75,0,0,1,553.53,59c4.44-1.17,19.62-6.07,19.62-6.07s1.64-5.61,2.57-5.14c1.38-.54,22.09.46,22.09.46s3.89,1,3.45,3.57a6.81,6.81,0,0,1,.66,3l8.13,3.12s6.68,1.45,8.35,3.89c1.22.78,7.9,3,8.57,15.25.55,1.89,2.22,12.47,1.67,14.25.11,1.56.76,7.12.76,7.12s0,5.88-.84,7.56-.28,8.4-2,9.52-3.64,8.68-5.32,9.8-3.36,6.44-4.76,7.28-4.76,3.64-4.76,3.64.28,6.16-.28,7.28-14,3.55-14,3.55l-12.8,3.61L551.55,140.1,537.39,98.24Z"/><g id="W_dad_shirt_details" data-name="W dad shirt details"><path class="cls-32" d="M582.57,57.73l-2-1.66-.45.61.15,2.41s.3,1.95-.75,2.86a1.22,1.22,0,0,1-1.81,0l-5-8.44"/><path class="cls-32" d="M593.11,57.43s2.41,1-.3,4.37c.45,1.8.3,4.21,3.47,1.05l3.16-3.16L602.15,57"/><path class="cls-32" d="M585,65.26s-4.22,13.4-1.66,39.61l.15,4.36s.31,13.71.16,14.76,1.35,10.69,1,11.6-1.66,8.28-1.36,8.73"/><path class="cls-32" d="M585.73,66.46s1.65.86.08,1.51"/><path class="cls-32" d="M585.16,78.86s1.79,1.5.07,2.57"/><path class="cls-32" d="M585.3,94.11a1.16,1.16,0,0,1,0,2.15"/><path class="cls-32" d="M585.62,108.44s1.93,1.63.12,2.59"/><path class="cls-32" d="M585.86,123.4s2.17,1.15.06,2.11"/><path class="cls-32" d="M586.27,138.49s2,.62.24,1.94"/><path class="cls-32" d="M588.86,66s15.6-1.69,16.38-4.29"/><path class="cls-32" d="M556.35,60.76s8.45,4.81,11,4.42"/><path class="cls-32" d="M561.68,96s7.94,12.35,7.94,14.82"/><path class="cls-32" d="M566,96s7.16,14,9,14.69"/><path class="cls-32" d="M588.47,88.2S598,105.36,600,106.53"/><path class="cls-32" d="M596.27,94.44s7.28,13.78,8.06,13.78"/><path class="cls-32" d="M565.45,133.32s8.46.91,10.93,8.84"/><path class="cls-32" d="M591.2,112.38s3.51,12.75,5.33,13.79"/><path class="cls-32" d="M578.59,144.5s-.78-11.18,2.47-1.17"/><path class="cls-32" d="M561.16,138.39s5.07.26,6,3.25"/><path class="cls-32" d="M603,92.36s.26,5.59,2,6.5"/><path class="cls-32" d="M622.15,66s-8.72,15.61-5.85,24.19"/></g><path id="W_dad_pants" data-name="W dad pants" class="cls-33" d="M548.93,136l29.41,10.13,7.48,1s7-.72,7.71,0c5.3-1.45,16.63-4.82,16.63-4.82s2.42-1.45,3.14,3.86S618.39,169,618,172.86c1.14,3.44,1.53,12.25,1.53,17.22s.38,16.85,0,18.76.38,17.22.38,19.9.76,24.12.76,26.42,2.3,12.63,2.68,15.31,1.54,16.07.77,17.61-14.93,8.8-17.23,2.29-7.27-25.26-6.89-27.94l.39-2.68c-1.15-.38-3.06-15.31-2.68-19.14s-1.92-17.22-1.92-21.05c-2.29-5.36-10.33-27.95-10.33-27.95S582,174.77,578.58,184s-7.27,45.55-9.57,46.7c-.38,2.29-.77,8.42-1.15,10s-.38,32.15-.38,32.15l.91,16.44a15.86,15.86,0,0,1,.46,4.15c-.16,1.69-17.21,4.61-18.13-.15a42.89,42.89,0,0,1-.92-7.22s-1.38-6.46-.46-7.84c-.77-2.3-3.23-18.59-2.77-19.51s-3.22-84.19-3.22-84.19L541.81,140Z"/><g id="W_dad_pants_details" data-name="W dad pants details"><line class="cls-34" x1="568.09" y1="143.07" x2="565.76" y2="150.23"/><line class="cls-34" x1="569.92" y1="143.74" x2="568.26" y2="150.9"/><line class="cls-34" x1="565.1" y1="151.06" x2="567.43" y2="151.73"/><path class="cls-34" d="M591.73,146.9s1.33,7,.83,7.83"/><path class="cls-34" d="M593.53,147.06s1,5.67.86,6.33"/><path class="cls-34" d="M592.73,155.39s1.66-.17,1.83-.66"/><path class="cls-34" d="M608.49,142.65s1.33,7,.83,7.83"/><path class="cls-34" d="M610.29,142.81s1,5.67.86,6.33"/><path class="cls-34" d="M609.49,151.14s1.66-.17,1.83-.66"/><line class="cls-34" x1="555.28" y1="146.57" x2="562.6" y2="149.57"/><path class="cls-34" d="M570.59,151.23s5.83,2.5,6.66,2.5"/><path class="cls-34" d="M581.41,155.06s9.32.33,9.82-.17"/><path class="cls-34" d="M598.89,153.73s8.82-1.83,9.65-2.33"/><path class="cls-34" d="M580,156.64s2.09,16,.27,19.67"/><path class="cls-34" d="M586.17,156.91s1.9,20.94-3.45,18.49"/><path class="cls-34" d="M563,150.29s.91,9.88-11.24,7.52"/><path class="cls-34" d="M551.89,149.84s8.16-.28,6.35,2.35c-.63,1.54-1.72,3.36-1.27,4.81"/><path class="cls-34" d="M600.86,155.91s.36,9.94,15.15,5.29"/><path class="cls-34" d="M614.58,153.35s-10.21,1.29-7.56,3.54c1,1.4,2.66,3,2.31,4.51"/><path class="cls-34" d="M554.16,162.8s11.82,1.18,14,3.88"/><path class="cls-34" d="M566.65,172.93c2.2,1.18,10.3,3.71,11.65,6.75"/><path class="cls-34" d="M599.4,169.89s7.59-3.38,12-1.35"/><path class="cls-34" d="M557,184.07s6.25-1.52,9-.68"/><path class="cls-34" d="M569.69,182.55s5.74-1.69,7.6-.68"/><path class="cls-34" d="M589.27,190.82s5.57-3.55,9-2"/><path class="cls-34" d="M611.38,217.65a9.77,9.77,0,0,1,5.4,1.36"/><path class="cls-34" d="M607.67,223.9s3.88-1.86,7.09.51"/><path class="cls-34" d="M555.34,212.76s5.07,5.06,7.26,4.56"/><path class="cls-34" d="M568.85,192.67l4,9.62"/><path class="cls-34" d="M556,237.74s14.68-6.92,9.45-1.35"/><path class="cls-34" d="M600.75,238.25s10-3.88,9.45-1.86"/><path class="cls-34" d="M615.43,191s-6.92,4.38-6.41,6.41"/><path class="cls-34" d="M615.26,276.39s13.17,7.94,4,12.49"/><path class="cls-34" d="M619.31,257.83s-1.85,6.41-2.87,7.09"/><path class="cls-34" d="M565.13,274.54s-5.91,11.81-1,10.12"/><path class="cls-34" d="M548.59,259.68s3,5.91,4.9,5.74"/><path class="cls-34" d="M581.54,148.83s2.23,1.62.21,3.24"/></g><g id="W_mom_legs" data-name="W mom legs"><path class="cls-35" d="M523.19,257l15.31,1s-5.43,27.91-6.59,29.07c.39,1.16-2.32,12.41-1.55,14.15a38,38,0,0,1,1.55,6l-12.6.77Z"/><path class="cls-35" d="M500.71,257l11.63-.19,1.93,51.74s-8.91,1.56-8.33-1.74,2.54-6.32,1.62-8.47a21.43,21.43,0,0,1-1.07-7.34c-.76-2.91-4-17.29-4-17.29Z"/></g><path id="W_mom_skirt" data-name="W mom skirt" class="cls-36" d="M499.62,134.44l44.24-.41.35,1.6s.48,3.07.06,3.31-.53,1.95-.23,2.6c.05.77,1.09,13.11,1.09,13.11l3,10.86,4.57,30.28s2.14,25.57,1.86,27.57c.28,1.14,1,31.13,1,31.13s1.85,5-2.43,3.72c-2.29,0-7.86.14-7.86.14s.86,3.43-13.28,2.57c-5.43-.28-5.86-2-5.86-2l-17,.14s-14.57-.14-18.57-1.85C490.85,256.21,499.62,134.44,499.62,134.44Z"/><path id="W_dad_head" data-name="W dad head" class="cls-37" d="M575.54,48.4l.64-6s-.51-2.94-1.15-3.19c-.38-1,0-2.26-1.32-2.77-1-.93-2.21-4.17-2.21-6.13-.09-1.45.17-4.43,1.53-2.55-.68-2.39-1.45-7.16-1.45-7.16s-.6-6.05.85-7.24l3.92-3.24s10.9-7.92,17.8-.85c.68.6,8.35,1,7.24,7.07.09,1,.17,4.35-.25,5.37-.09,1-.09,4.26-.43,4.34,1,0,7.07,0-.68,9.37-.34,1-.68,2.39-.68,2.39a26.8,26.8,0,0,1-1.54,3.32c-.08.85,0,6,0,6l-.08,3.33s.51,2,.85,2.13.43,1,.43,1a11.58,11.58,0,0,1-6.82,3.74,23.28,23.28,0,0,0-2.89,2.9,2.11,2.11,0,0,0,.34,2.13c.34.6-1.71,2.13-3.58,2.13-.77-1.45-2.13-3.92-2.13-3.92L582.82,58a10.19,10.19,0,0,0-2.13-2.55c-.93-.6-3.57-2-3.57-2S574.4,50.31,575.54,48.4Z"/><g id="W_dad_face_details" data-name="W dad face details"><path class="cls-32" d="M599.75,27.64s.14,2.42.07,2.9"/><path class="cls-32" d="M600.58,30s.9,2-.2,2.49"/><path class="cls-32" d="M602.17,27.57a3.63,3.63,0,0,1,.42,2.56"/><path class="cls-32" d="M573.14,29.78s-1.32-.27-.69,2"/><path class="cls-32" d="M574,29.85a28.8,28.8,0,0,0,.2,3.74"/><path class="cls-32" d="M576.59,23.91s.35-1.94,3.88-1.8c1-.07,4.14-.35,3.18.9-.76.34-1.11.14-3.32.21C579.43,23.49,577.7,24.32,576.59,23.91Z"/><path class="cls-32" d="M597.1,23.42s-.34-1.93-3.87-1.79c-1-.07-4.15-.35-3.18.89.76.35,1.11.14,3.32.21C594.27,23,596,23.84,597.1,23.42Z"/><path class="cls-32" d="M578.05,25.91a3.72,3.72,0,0,1,5.53-.28C583.3,26.26,579.22,26.4,578.05,25.91Z"/><path class="cls-32" d="M595.47,25.57a3.71,3.71,0,0,0-5.53-.28C590.21,25.91,594.29,26.05,595.47,25.57Z"/><path class="cls-32" d="M585.58,25.5s.14,3.38-.69,3.87"/><path class="cls-32" d="M583.58,32.2a1.65,1.65,0,0,1,2.07,0"/><path class="cls-32" d="M587.93,31.93s0-.83,1.59-.07"/><path class="cls-32" d="M590.14,30.13s1.11,1,.14,1.38"/><path class="cls-32" d="M580.88,35.73a40.35,40.35,0,0,1,5.46-.28c.9.07,3.8-.34,4.91-.07a3.74,3.74,0,0,0,1.38.21s-2.69,3.8-6.08,3.66C583.92,38.91,581.85,37.73,580.88,35.73Z"/><path class="cls-32" d="M578.05,27.85a10.77,10.77,0,0,0,3.38-.21"/><path class="cls-32" d="M595.19,27.5a3.92,3.92,0,0,0,2-.28"/></g><path id="W_dad_hair" data-name="W dad hair" class="cls-38" d="M573,27.76l1,.85s-.56-7.33,0-8c.13-1.8,1.59-6.22,2.55-6.78.49-.62,3-3.45,6.09-3.25l6.22-.2a5.36,5.36,0,0,1,2.49.9c1,.76,5.18,7.53,6.91,7.39a26.64,26.64,0,0,1,1,5.74l.14,1.8,1.3-.14.43-4.34.25-5.37s1.54-5.15-6.89-7.09l-.9-.41s-2.83-4.43-12.86-1.11l-1.38.69s-6.46,4-6.93,4.94a19.1,19.1,0,0,0-.81,1.9l0,5.34Z"/><path class="cls-32" d="M577,42.22s5.07,8,9.34,6.88c2.77-.24,9.1-2.45,10.36-7.28"/><path class="cls-38" d="M578.81,35.1s3.09-2.93,6.75-1.9c.47.47,1.66.95,2.06.39.08-.71,3.41-1.58,6.43-.07a2.75,2.75,0,0,1,.64,1.58,15.87,15.87,0,0,0-7.7-.56C584.44,34.7,586,33.59,578.81,35.1Z"/><path class="cls-32" d="M614.49,94.19s1.2,11.17.4,13.57"/><path class="cls-32" d="M614.89,113.21a91,91,0,0,1-2.93,9.05"/><path class="cls-32" d="M611.43,126s1.45,8.07.33,10.22"/><path class="cls-32" d="M616.75,107.09s4.92-1.33,5.46-4"/><path class="cls-32" d="M615.29,118.4s4.52,1.73,5.72-.14"/><path class="cls-32" d="M623.27,110.28c1.2-.26,3.72-1.33,4-2.26"/><path class="cls-32" d="M621.14,112.94s4.52-.93,5.32-2.12"/><path class="cls-32" d="M619.68,114.67s5.45.54,6.52-1.46"/><path class="cls-32" d="M612.36,124.38a9,9,0,0,0,6.79,0"/><g id="W_mom_skirt_details" data-name="W mom skirt details"><path class="cls-32" d="M551,201.43s2,47.44.25,49.72"/><path class="cls-32" d="M530.78,256a10.89,10.89,0,0,0,0,3.19"/><path class="cls-32" d="M532.9,145.18s9,.22,9.61-.21"/></g><g id="W_girl_legs" data-name="W girl legs"><path class="cls-39" d="M492.37,250.21s-.77,10.27.2,12a57.23,57.23,0,0,0-1.17,7.37c0,1.74-1.55,15.7-.19,17.83.39,3.88,3.88,22.09,3.88,22.09l7.56-.19s-.78-4.26-1.55-4.46c.38-1.35.58-13.95,1.35-18,.2-3.69.2-9.11-.19-10.27.77-1.75,4.07-11.63,2.71-14.73.39-3.49.39-9.11.39-9.11Z"/><path class="cls-39" d="M511.37,250s-1,11.24-1.36,12.79a14.78,14.78,0,0,0,1,11.63c.19,2.33-3.29,15.51-.39,20,.58,2.13.58,16.47,0,17.05l7.76-3.29s5.42-26.75,4.07-30.63c-.2-4.26,0-13.56.77-15.31,1-2.71,3.1-16.08,3.1-16.08Z"/><path class="cls-39" d="M493.54,267.65s2.9,7.75,7.94,3.88"/><path class="cls-39" d="M517.76,266.87s-6,1.36-.38,7.76"/></g><path id="W_girl_skirt" data-name="W girl skirt" class="cls-33" d="M485.85,200.35l40.16.8.23,1.38s1.38,3,.69,3.9c.23,1.49,5.86,17.33,5.86,17.33l1.37,7.69.81,11.13-1,5.17s2.18,7.23-1,5.74c-2.41,0-12.28-.58-12.28-.58l-2-.34s1,2.52-8,1.49c-1.84,0-18.25,1.72-18.25,1.72s-7.23.8-8.73-1.49c-1.49-.69-8.26-1.61-8.26-1.61l6.31-35.81Z"/><path id="W_girl_left_arm" data-name="W girl left arm" class="cls-39" d="M484.08,196.73s-2.39,11.33-1.63,19.82c.22,2.28.65,12.08,1,13.17.43,1.52-.76,8.71-.66,10,.66,1.31,3.49,3.05,3.71,3.81s1.41,2.62,3,.11c.87,0,2.62,2.62,2.83-.87-.54-3.26-1.41-6.86-1.19-7.51-.77-2.07-.66-3.7-1.85-4.46.32-1.2,1.08-19.38,2.28-19.82.44-2.17.87-12.19.55-13S484.08,196.73,484.08,196.73Z"/><path id="w_girl_right_arm" data-name="w girl right arm" class="cls-40" d="M526,194.35l8-2,.25,1.07s.58,6,1.24,6.86c.41,1.24,2.48,14.8,2.07,20.34.16,1.49,1,11.41,1,11.41s2.89,7.52,2.07,10.08c.08,1.24.41,4.14-2,4.55a21.76,21.76,0,0,1-3.39,1.4H532.9s-3.14-.82-.58-2c-.7.08-2.35-.15-.58-1.53.6-.37,1.44-1,1.44-1s.59.13.19-2.74a19.43,19.43,0,0,1-.42-3.35s-1.72.07-.84-5.21c.2-.39.66-.61-.33-5.08-.94-2.91-3.11-11.1-3.11-11.1a49.75,49.75,0,0,1-1.18-9.13A108.35,108.35,0,0,0,526,194.35Z"/><path id="W_girl_shirt" data-name="W girl shirt" class="cls-41" d="M488.38,166.33s6.77-4.29,7.76-3.8,13.7,3.8,13.7,3.8l9.91-4.79s0-3.13,4.12,1c2.15,1.33,11.39,4.79,12.55,7.76,1.32,2.48,4.46,8.09,1.81,7.43l-.82.83s4.29,6.27.82,5.28c-1.15,1.16-2.14,1.16-1.48,4.13s-1.49,5.45-5.28,6.77a14.34,14.34,0,0,1-6.11,1s2.47,1.65,1,2.47c-.33,1.32,2.47,4.63-1,4.63-1.82,1.15-8.75,2.47-12.88,1.81-3.3.17-6.6.83-11.39-3-1.49.83-4.95,3-8.42,1.49a2.48,2.48,0,0,1,1-2.15s1.16-2-7.76-2.64c-1.48-.5-4.62.33-4.29-1.16,1.16-1,2.81-3.63,2.48-4.78a4.22,4.22,0,0,0-1.65-2s.33-1.48,1.15-1.48-1.32-3.14,1.65-7.76C486.56,174.26,486.4,168.15,488.38,166.33Z"/><path id="W_mom_right_arm" data-name="W mom right arm" class="cls-35" d="M555.78,119.43l.56,2.79s-1.67,8.64-.7,11.14c.42,1.82-2.09,19.1-4.18,21.88-.83,2.23-2.92,11.71-6.69,13.94-1.67,2.09-9.06,9.48-9.06,9.48L532,181.39s-2.62,1.34-2.19-1.33c1.23-.91,3.52-2.3,3.52-2.3l-.21-.21s-6,3.25-6.3,3.25c-.53-.05-4.91-.16-.48-3,1-.53,5.12-2.77,5.66-2.67.69-.21.59-.42.59-.42l-9.67,2s-4.59.38-.43-2.29c.7-.48,3.74-2,6.25-1.6.43-.17-.16-.43-.16-.43l-6.94,1.81s-2.83-1.49,2.19-3.47c1-.37,6.51-2.61,8-2.35,1.17-.1,2.45-1.71,2.45-1.71s1.23-1.12-1-.26c-2.19.69-3.15.91-3.15.91a5,5,0,0,1-4.43.37c-.7-.27-1.6-1.66,2.45-3.58,1.82-.53,5.56-1.28,5.56-1.28l7-1.55a3,3,0,0,0,2.15-2.2,46.36,46.36,0,0,0,.42-5.79s.42-11.86.8-12.28l1.77-2-1.12-7.62L542.81,122Z"/><g id="W_mom_right_hand_details" data-name="W mom right hand details"><path class="cls-32" d="M527.9,165.38s.37,1.27.16,1.48a6.2,6.2,0,0,1-1.63.42s-1.06-.11-.69-.74C525.85,166,526.21,165.33,527.9,165.38Z"/><path class="cls-32" d="M523.26,172.4s.37,1.09.16,1.27a7.13,7.13,0,0,1-1.64.36s-1-.09-.68-.64C521.2,172.94,521.57,172.35,523.26,172.4Z"/><path class="cls-32" d="M523,174.88s.37,1.08.16,1.27a7.13,7.13,0,0,1-1.64.36s-1-.09-.68-.64C520.94,175.42,521.31,174.83,523,174.88Z"/><path class="cls-32" d="M527.06,178.94s.37,1.08.16,1.27a7.13,7.13,0,0,1-1.64.36s-1.05-.09-.68-.64C525,179.48,525.37,178.89,527.06,178.94Z"/><path class="cls-32" d="M531.92,180.25s.35.88.15,1a8.15,8.15,0,0,1-1.55.29s-1-.07-.65-.51C530,180.69,530.32,180.22,531.92,180.25Z"/><path class="cls-32" d="M529.64,171.87s3.69-.79,4.43-.48"/><path class="cls-32" d="M537.61,169.65c.21,0,3.74-2.11,4.27-2"/><path class="cls-32" d="M528.06,170.18s1.32.74.74,1.37"/><path class="cls-32" d="M529.59,173.19s.63.73.32,1.21"/><path class="cls-32" d="M535,169.18s.95.79.63,1.11"/><path class="cls-32" d="M536.76,172s.74,1,.53,1.26"/><path class="cls-32" d="M539.13,171.6s2.38-1,2.75-1.68"/><path class="cls-32" d="M530.65,164.42s.73.72.57,1.21"/><path class="cls-32" d="M532.11,176.07s1.46.72,1,1.05"/><path class="cls-32" d="M534.37,177.93s.81.24.57.48"/><path class="cls-32" d="M544.81,165.39s2.83-2.11,2.91-3.64"/></g><path id="W_mom_shirt" data-name="W mom shirt" class="cls-42" d="M490.72,129l-2.81-3s-1.4-6.38-4.51-7.16c1.4-1.56,3.42-3.74,3.42-3.74l2.18-9.34s.31-21.49,13.4-21.34c4.67-.62,8.41-1.24,8.41-1.24l3.11-5.76,21-.32.46.94s1.56-.78,2,2l2.49,2.18s6.85,2.65,7.47,3.43c1.25.15,8.73,1.25,9.82,7.47,1.71,5.14,2.64,7,3.11,8.73.16,2-.62,5.91,0,7.47-.16,2.18-.31,5.14-.78,5.92a11.34,11.34,0,0,1,1.25,3.58s-7.32,5.14-9.35,10.75c.16,2.64-4.2,8.1-10.12,5.91l-9.5.47H500.06s-4.52-6.54-3.74-7.16A38.26,38.26,0,0,1,490.72,129Z"/><path id="W_mom_shirt_shadow" data-name="W mom shirt shadow" class="cls-43" d="M485.88,120.79l2,5.29,2.81,3,5.6-.15.51-2.06S488.69,125.14,485.88,120.79Z"/><path id="W_mom_shirt_pocket" data-name="W mom shirt pocket" class="cls-44" d="M535.57,104.79s15,3.93,17,9.54c-.7,3.93-6,19.23-6,19.23s-.41,1.5-2.66.47-10.81-3.41-11.8-3.13C531.92,128.93,532.62,107.59,535.57,104.79Z"/><g id="W_mom_shirt_details" data-name="W mom shirt details"><path class="cls-32" d="M527.62,81.49s1.07,5.61,3.18,3.78a48.44,48.44,0,0,0,7.72-1.82l1.41-1.13"/><path class="cls-32" d="M519,85.13s3.23,1.27,4.21,0a23.14,23.14,0,0,0,2.06-3.64"/><path class="cls-32" d="M506.93,100.29s-.56,8.29,1.27,8.29"/><path class="cls-32" d="M508.06,111s-4.78,10.39-4.07,12.22"/><path class="cls-32" d="M499.92,102.68s-3.09,21.34-2.53,22.74"/><path class="cls-32" d="M502.3,88.08s.42,9.69-1.68,12.78"/><path class="cls-32" d="M487.42,118.26s7,5.76,9.13,5.62"/><path class="cls-32" d="M527.57,90.75s.42,12.91,0,14.74"/><path class="cls-32" d="M527.43,110.82s-.84,12.92-1.68,13.76"/><path class="cls-32" d="M526.17,83.17a1.55,1.55,0,0,0-.28,2.1"/><path class="cls-32" d="M547.65,115.17s1.68,4.5,2.1,4.22"/><path class="cls-32" d="M535.85,108.86s13.9,4.21,14.74,7.16"/><path class="cls-32" d="M556.91,95.52s-4.63,16.71-3.79,18.81"/><path class="cls-32" d="M558.46,100.57a31.07,31.07,0,0,1-2.11,3.09"/><path class="cls-32" d="M559.58,104.36s-2.25,4.36-3.37,4.78"/><path class="cls-32" d="M559.16,111.52s-.56,2.81-1.55,3.37"/><path class="cls-32" d="M557.47,112.65s-6,5.61-6.31,10"/><path class="cls-32" d="M552,90.61s-2.11,8.42-1.41,9.82"/><path class="cls-32" d="M546.1,117.84s1,3.09,1.83,3.65"/></g><path id="W_girl_hair" data-name="W girl hair" class="cls-45" d="M494.55,162.76s.73,6.59-.73,7.2c-.74,1.84-3.67,10.26-5.74,10.51-2.94,1.95-3.3,4.15-4.28,3.91s1.1-7.33,1.59-10,4.4-20.15,5.25-19.42c-1-2.32-.85-7,0-7.08,1.1-2.81.24-7.82,1.1-7.45.73-2.32-1.22-4.4,1.71-4.77.37-1.58.12-7,2.81-6.35,1.22-1.71,9.65-7.57,13.56-5.37,1.09-.24,9.89-2.93,13.06,3.18,1.35,1.58,2.81,5,2.2,6.47a7.46,7.46,0,0,1,1.35,7.45c1.09,2.44,4.27,1.83,3.29,7.69-.12,2,1.35,3.18-.73,4.89.61,2,3.54,5.37,2.32,7.69a27.11,27.11,0,0,0-.73,4.64l-6.71-3.4s-2-2.21-2.82-2-12.46,1.83-12.46,1.83l-10.38-.24Z"/><path id="W_mom_hair" data-name="W mom hair" class="cls-46" d="M516.71,78.85s7.7,10.19.17,11.61A4.63,4.63,0,0,1,514,92.15a4.27,4.27,0,0,1-4.52,1.24c-1.33.17,4-.45,3.54-2,.27-.89-.26-3.55-1.15-4,.09,1.33-.62,5-2.21,5.32a3.45,3.45,0,0,1-1.6.8s3.37-3.19,2.57-5c-1.51-.71-6.29-2.74-5.94-4.25.36-1.15,3.28-5.76,4.35-5.5a32.59,32.59,0,0,1,1.24-7.44s-2.57-1.24-2.31-7.71c.71-5.76,5.67-20.2,5.67-20.2s4.61-8.78,10.55-9a31.37,31.37,0,0,1,7.18.17s4.07-2.83,7,.71a30.43,30.43,0,0,1,7.53,16.4c.62,2.12,1.86,12.49,1.6,12.85.26.88,2.65,6.47-.45,8.86-.35.71-.26,3.72.71,4s6.56,6.64,4.17,9.57a43.64,43.64,0,0,0-4.49-1.17l-7.47-3.43-2.49-2.18s-.42-2.49-2-2S516.71,78.85,516.71,78.85Z"/><path id="W_mom_head" data-name="W mom head" class="cls-35" d="M516.82,78.57s3.3-4.95,2.34-7.15c-.69-1.65-2.75-9.49-2.34-12-.14-2.34,1.24-10.18,3.16-12.38.69-1.65,4.54-6.33,7.43-7,1.79-.13,9.07-2.2,11,6.47,1.1,2.06,2.34,10.72,1.79,11.69a5.47,5.47,0,0,1-.42,4.81c-1.1.28-1.65,6.74-3.3,6.74-.55,1.24-1.73,7.07-1.07,8.35.26.37-.07.81-.83,1s-5.11,1.79-6.75,1.79c-.16.38-.21.55-.21.55h-2.34a5.6,5.6,0,0,0-3-.82C521.36,80.4,517.12,79.3,516.82,78.57Z"/><g id="W_mom_head_details" data-name="W mom head details"><g id="W_mom_head_details-2" data-name="W mom head details"><path class="cls-32" d="M519.48,54.16s1.88-1.89,3.77-.87a13.38,13.38,0,0,1,2.43,1.57S521.36,56.83,519.48,54.16Z"/><path class="cls-32" d="M530.46,54.94a4.3,4.3,0,0,1,4.09-1.65c1.17.55,2.82,1.81,1.49,2S531.88,55.88,530.46,54.94Z"/><path class="cls-32" d="M518.69,52s2.67-1.1,4-.31c.86.07,3.14.39,3.14.39s.62-.71-.79-.94c-.55-.16-2.9-1.18-5-.32S518.69,52,518.69,52Z"/><path class="cls-32" d="M537.68,52.2s-2.67-1.1-4-.32c-.86.08-3.14.39-3.14.39s-.63-.7.79-.94c.54-.15,2.9-1.17,5-.31S537.68,52.2,537.68,52.2Z"/><path class="cls-32" d="M524.58,61.69s2-.16,2,.63"/><path class="cls-32" d="M529.29,62.24s.15-.63.94-.39"/><path class="cls-32" d="M526.23,57.14s-.47,3.22-1,3.45"/><path class="cls-32" d="M521,64.59a3.9,3.9,0,0,1,2.2-3.37c.62-.71,1.72-1.49,2-2.51"/><path class="cls-32" d="M531.72,61.06s2,3.14,2.43,3.14"/><path class="cls-32" d="M522,64.67s3.06-1.41,5.49-.78c1.1,0,4.32-.08,5.18.7l.39.4s-2.35,3.84-5.72,3.61C526.23,68.52,522.7,67.73,522,64.67Z"/><path class="cls-32" d="M539.18,59.18a7.77,7.77,0,0,0-.32,2.59"/><path class="cls-32" d="M540,60.28c.08.47-.31.94,0,1.1"/><path class="cls-32" d="M526.46,54.34a9.5,9.5,0,0,1,.08,1.7"/></g><path class="cls-32" d="M520.23,72.14s9.31,5.64,14.58-.81"/><path class="cls-32" d="M520.5,67.85s1.88,5.27,3.85,5"/></g><g id="W_girl_left_arm_details" data-name="W girl left arm details"><path class="cls-32" d="M489.38,241.89s-1.64-.13-1.35-2.11"/><path class="cls-32" d="M487.82,238.93s1.9,0,1.94,3.38"/><path class="cls-32" d="M490.35,243.19l1.06-.63s1-.42.46,1.1C491.58,244.21,491.45,244.71,490.35,243.19Z"/><path class="cls-32" d="M487.15,243.07s.08,1.6,1.13.88"/><path class="cls-32" d="M490.18,240.45s1,1.06,1.18-.12"/></g><g id="w_girl_right_arm_details" data-name="w girl right arm details"><path class="cls-32" d="M533.13,233.79s1.92,5.11,2.36,5"/><path class="cls-32" d="M535.84,238.34s.74,10.18,2.41,6.12c.37-.91.7-7.22.7-7.22"/><path class="cls-32" d="M538.55,243.06s.44,4-5.33,3.71c0,0-.65.58-.11,1.12"/><path class="cls-32" d="M537,243.49l1.18-.08s0,1.44-.48,1.53C537.37,244.85,537,245.2,537,243.49Z"/><path class="cls-32" d="M538.64,242.05s1.05-.17,1.18,0"/><path class="cls-32" d="M538.42,244.28s.26-.35.87,0"/><path class="cls-32" d="M533.57,241.75s1,.78,1.35.61"/><path class="cls-32" d="M533.18,239.6s1.18.4,1.44.09"/><path class="cls-32" d="M532,244.19s1,1.18,1.35,1.14"/><path class="cls-32" d="M539.78,244.72s-.62.57-.35.92"/><path class="cls-32" d="M535.21,248.08s-.06-1-.33-1"/><path class="cls-32" d="M528,198.84s4.17,1.15,5.22.53"/></g><g id="W_girl_shirt_details" data-name="W girl shirt details"><path class="cls-32" d="M498.47,177.41s17.36,1.74,24.52-1.51"/><path class="cls-32" d="M488.06,183.17l-.11,7.16s.86,4.55-2.61,1.62"/><path class="cls-32" d="M484.37,195.32a3.89,3.89,0,0,0,3.47-1.85"/><path class="cls-32" d="M528,193.36s6-3.79,7.16-6.29"/><path class="cls-32" d="M535.47,182.84s.11-2.06,1.41-2.17"/><path class="cls-32" d="M494.35,180.13s-.33,3,.43,3"/><path class="cls-32" d="M493.48,187.18s1.41-.54,1.41-3.15"/><path class="cls-32" d="M493.7,188.37a9.55,9.55,0,0,1,1.08,3.15"/><path class="cls-32" d="M501.18,181.1s-.76,8.58-.54,10"/><path class="cls-32" d="M506.83,182.41s-1.31,8.13-.22,10.3"/><path class="cls-32" d="M520.28,182.73s1.08,9.12,2,10.2"/><path class="cls-32" d="M526,181.54s-.87,7.7-.22,8.89"/><path class="cls-32" d="M525.6,192.06s-1.74,3.37-1,4.88"/><path class="cls-32" d="M525.6,199.22c.32-1.62-.87-1.52-.87-1.52"/></g><g id="W_girl_skirt_details" data-name="W girl skirt details"><path class="cls-32" d="M493.88,207.69s-2.64,13.89-3.21,14.23"/><path class="cls-32" d="M498.58,208.84s-.34,38.56.69,40.4"/><path class="cls-32" d="M496.52,204.25a43.14,43.14,0,0,0-.35,4.71"/><path class="cls-32" d="M498.7,203.79s-.8,4.71-.69,5.17"/><path class="cls-32" d="M496.4,210.33s.35,39.94.69,40.75"/><path class="cls-32" d="M523.26,204.48s.46,3.56.11,4"/><path class="cls-32" d="M524.64,204a23,23,0,0,1,.23,4.25"/><path class="cls-32" d="M523.15,211.25S522,247.4,519.7,249"/><path class="cls-32" d="M525,211.48s-1.15,33.51-2.87,36.15"/><path class="cls-32" d="M476.32,251.65s5.51-.12,6.54.46"/><path class="cls-32" d="M485,243.73s-.8,7-.69,7.46"/><path class="cls-32" d="M484.81,251.76s4.71-.23,5.4.69"/><path class="cls-32" d="M492.62,252.11s4-.58,5.51,0"/><path class="cls-32" d="M500.42,251.88s8.15-2.18,10.56-.8"/><path class="cls-32" d="M515.91,250.62s2.19-.81,3-.35"/><path class="cls-32" d="M521,249.47s11.14.57,12.17.34"/><line class="cls-32" x1="508.23" y1="209.87" x2="510.98" y2="247.75"/><path class="cls-32" d="M500,207.35s8.15.69,8.61.57"/><path class="cls-32" d="M513.16,207s8.15.35,8.61-.23"/><path class="cls-32" d="M513.85,209.87s3,35.12,2.52,36.39"/><path class="cls-32" d="M482.4,226.4s-2.52,23.87-3.1,24"/></g><path id="W_dad_hand" data-name="W dad hand" class="cls-35" d="M488.8,105.39s-4.2-2.93-3.25-5.13c-.21-1.57-.63-3-.32-3.15-.42-1.25-.63-1.67-.21-2.09-.1-.84-.94-4.51.74-5.14s5.13-2,5.13-2l2.1-1.67S495.82,78,498.54,83a6.52,6.52,0,0,1-.94,2.62L495,87.37s8.07.73,6.08,3.14c0,.84,2.62,3.25-2.94,3.36,1.68.41,4.61,1.88.32,3.24-1.26.42,1.36,3.15-3.36,4C494,101.83,489.32,103.09,488.8,105.39Z"/><g id="W_dad_hand_details" data-name="W dad hand details"><path class="cls-32" d="M493.63,85.74a1.34,1.34,0,0,0,1.77.79"/><path class="cls-32" d="M489.05,92.21s1.77-1.65,9.1-1.28"/><path class="cls-32" d="M500.29,88.91s-1.77-.36-1.65.73c.25.61.13.8,2.14.86C501.27,90,501.57,89.16,500.29,88.91Z"/><path class="cls-32" d="M500.65,91.54s-1.77-.36-1.65.73c.25.61.13.8,2.14.86C501.63,92.64,501.93,91.79,500.65,91.54Z"/><path class="cls-32" d="M499.73,94.9s-1.51-.26-1.38.66c.23.51.13.67,1.83.66C500.58,95.8,500.81,95.07,499.73,94.9Z"/><path class="cls-32" d="M497.08,98.6s-1.32,0-1.1.73c.25.41.19.56,1.65.35C497.92,99.27,498,98.61,497.08,98.6Z"/><path class="cls-32" d="M487.85,96.23a12.8,12.8,0,0,1,5.88-1.31c1.17-.15,3.89-.58,3.89-.58"/><path class="cls-32" d="M488,100.12a12.4,12.4,0,0,1,4.72-1.31c.92-.34,3.5-1.56,4.52-1.17"/><path class="cls-32" d="M485.47,91s.58,1.36.14,1.8"/><path class="cls-32" d="M486,94.58a4.3,4.3,0,0,1,.24,1.65"/><path class="cls-32" d="M486.63,101.48s.63.64.54,1.12"/><path class="cls-32" d="M491.45,88.4s-.25,1.22.24,1.41"/><path class="cls-32" d="M492.08,92.44a.68.68,0,0,0-.24,1.12"/><path class="cls-32" d="M490.86,96.23s-.39,1.32.39,1.51"/><path class="cls-32" d="M490.77,100.61s-.2,1.31.24,1.31"/></g><path id="W_girl_head" data-name="W girl head" class="cls-39" d="M494.53,163.16s5.85-4.39,7-4.39a3.83,3.83,0,0,0,1.16-4.23c-.58-2-1.6-5-1.6-5s-7.31-6.72-3.51-6.72c2.57-4.15.12-15.39,12.7-11.48,1.47,0,9.77-2.69,10.39,1.34.85,1.84,2.32,5.74,1.83,8.67,1.1-.61,3.17-3.29,2.68-.24-.48,1.34-1.83,6.23-3.29,6.47-.37,1-1,6.11-2.57,7-.36,1.22-2,4.88.25,5.37s1.46.61,1.46.61.49,8.55-7,11.72c-2,.74-9.65,2.94-15.39-3.66C495.89,165.2,494.53,163.16,494.53,163.16Z"/><g id="W_girl_face_details" data-name="W girl face details"><path class="cls-32" d="M503.8,144.39s2.24-2,4.16-1c.4.56,1.92,1.76-.48,2.08C506.28,145.51,503.56,145.11,503.8,144.39Z"/><path class="cls-32" d="M519.3,143.57s-2.24-2-4.16-1c-.4.56-1.92,1.76.48,2.08C516.82,144.69,519.54,144.29,519.3,143.57Z"/><path class="cls-32" d="M502,142.68a6.5,6.5,0,0,1,4.2-.82c1.19.09,2.38.27,2.38.27s1.28-.82-.64-1.19c-2-.09-4.39-.09-4.85.46S501.67,142.4,502,142.68Z"/><path class="cls-32" d="M520.69,141.86a6.56,6.56,0,0,0-4.21-.83c-1.19.09-2.37.28-2.37.28s-1.28-.83.64-1.19c2-.09,4.38-.09,4.84.46S521,141.58,520.69,141.86Z"/><path class="cls-32" d="M509.9,148.07s-1.37.37-.46,1.92"/><path class="cls-32" d="M509.9,150.27s.73-.28,1,0"/><path class="cls-32" d="M513.19,149.81a2.46,2.46,0,0,1,1.46-.27"/><path class="cls-32" d="M507.61,149.35s-3.56,2.93-1.19,4.3"/><path class="cls-32" d="M516.12,149.08s3.1,2.1,1.64,3.2"/><path class="cls-32" d="M507.25,152.46a31.31,31.31,0,0,1,5-.55c.73-.09,3.84-.64,4.38-.36s-1.82,3.84-3.93,3.75C511.54,155.39,509.44,155.66,507.25,152.46Z"/><path class="cls-32" d="M522.33,142.77s1.92.82.09,2.93"/><path class="cls-32" d="M522,143.59s0,2-.09,2.38"/><path class="cls-32" d="M498.2,144.23a13.42,13.42,0,0,1,2.1,2.75"/><path class="cls-32" d="M503.32,154.75l5.48,4a5.89,5.89,0,0,0,5.49.46c2.37-1.28,5.05-4.65,5.05-4.65"/></g><path id="W_mom_left_arm" data-name="W mom left arm" class="cls-35" d="M490.72,129s-5.45,16.66-4.22,22.36c-.09,1.84-1.84,9.55-1.58,10.25-.52,1.14-5.34,7.1-3.33,7.54-.79.52-1.49,1.66.7,2.8.27.53.09,1.23.62,1.49-.09.52-.18,2,.43,2.54-.32.49-.95,2,.2,2.77.29.41,2.17,3.1,3.76,2.77a1.31,1.31,0,0,0-.11-2.1c-.26-.41,3.28.07,3.28.07s4.77.3,1.78-2.47a8.21,8.21,0,0,0-2.48-.44l1.81-.22,2,.11s4.13,0,1.33-2.62l-3.65,0,4.17-.11s3-1.81-2.88-2.54c-1.51-.19-3.43-.37-4.1-1.18s-2.17-2.37-2.17-2.37-.19-1,.95-.85,1-.14,1-.14,1.44,3.58,1.92,3.69,2.44,1.21,3.29.07a18.82,18.82,0,0,0-1.55-5.5c.07-.18-.45-4.61-2.18-4.65a22.16,22.16,0,0,1,.23-4.11l.54-1.26s-1.31-6.32.17-7.11c.27-.74,1.15-5.73.77-7.05a6,6,0,0,0,.33-3.62c.22-1,.95-1.72,1.71-1.55.26-2.13.26-5.81,2.13-6.35l.6-.33Z"/><g id="W_mom_left_hand_details" data-name="W mom left hand details"><path class="cls-32" d="M490.1,169.1s1.27-1.19,2.25-.22c.25.77.42,1.61-.26,1.57C491.63,170.45,490.48,170.79,490.1,169.1Z"/><path class="cls-32" d="M493.45,173.25s1.61-1,2.21-.46c.21.21.29,1-2,.84C493.41,173.29,493.45,173.25,493.45,173.25Z"/><path class="cls-32" d="M493.07,175.6s1.73-1,2.37-.5c.22.22.32,1.09-2.19.91C493,175.64,493.07,175.6,493.07,175.6Z"/><path class="cls-32" d="M490.15,178.61s1.87-1.13,2.56-.54c.25.25.35,1.19-2.37,1C490.1,178.66,490.15,178.61,490.15,178.61Z"/><path class="cls-32" d="M485.29,180.37s1.67-.36,2,.25c.12.24,0,1-2,.12C485.25,180.39,485.29,180.37,485.29,180.37Z"/><path class="cls-32" d="M483.65,170.83l2.59,1.91s.93.77,3.94.89"/><path class="cls-32" d="M484.88,164.94s1,1.19,1.45,1.06"/><path class="cls-32" d="M484.67,166.34s1.06.8,1.49.68"/><path class="cls-32" d="M483.7,174l2.16,1.73a8.12,8.12,0,0,0,2.67.68"/><path class="cls-32" d="M483.65,177a4.94,4.94,0,0,0,2.76,1.61"/><path class="cls-32" d="M489.45,166s.54-1.82,1.82-.49"/><path class="cls-32" d="M486.9,171.84s-.44-1.28.69-1.08"/><path class="cls-32" d="M486.31,175.33s-.1-1.18.69-1.13"/><path class="cls-32" d="M486.85,178s-.49-1.08.44-1"/><path class="cls-32" d="M483.31,177.88s-.39-.74.49-.19"/></g></g></g><g id="Black_Family" data-name="Black Family"><g class="cls-47"><text class="cls-48" transform="translate(424.44 601.88)">Bla<tspan class="cls-49" x="35.45" y="0">c</tspan><tspan x="47.81" y="0">k</tspan></text><circle class="cls-50" cx="560.78" cy="465.2" r="141.29"/><g id="Black_Family-2" data-name="Black Family"><polygon id="B_Dad_undershirt" data-name="B Dad undershirt" class="cls-51" points="493.63 472.23 449.72 580.67 559.73 590.44 565.52 467.05 493.63 472.23"/><path id="B_girls_legs" data-name="B girls legs" class="cls-52" d="M535.56,606.7l109.23-.47s4.48-19.11-8-26.9c-5.66-2.12-85.17.47-85.17.47l-12.5,3.78Z"/><path id="B_girls_shorts" data-name="B girls shorts" class="cls-53" d="M541.69,574.61s-24.53,5.9-12.26,29.49a3.88,3.88,0,0,1,.7,2.6h5.43s5.19-21.94,10.62-21.24C550.66,581.69,541.69,574.61,541.69,574.61Z"/><g id="B_Dad_Undershirt_details" data-name="B Dad Undershirt details"><path class="cls-19" d="M501.74,489.06s6.83,3,10.4,2.08"/><path class="cls-19" d="M502.63,492.62S519,506,517.49,511.93"/><path class="cls-19" d="M538.87,481.63s-4.45,20.2-8.31,24.06"/><path class="cls-19" d="M544.22,509.56s-16,32.67-26.14,35.94"/><path class="cls-19" d="M471.74,570.16s15.74-10.1,19.6-19.31"/><path class="cls-19" d="M495.21,551.15s16.93-5.95,19.6-14"/><path class="cls-19" d="M490.75,574s40.4-31.49,41-27.63"/><path class="cls-19" d="M521.05,508.07s-4.75,24.66-3.56,27"/><path class="cls-19" d="M515.41,491.44s-2.68,1.78.29,3.56"/><path class="cls-19" d="M520.16,500.94s-5,.6-.6,3.27"/><path class="cls-19" d="M524.61,512.53s-5.34.59-1.48,3.86"/><path class="cls-19" d="M523.13,524.41s-4.16-1.19-1.49,3.56"/><path class="cls-19" d="M527,528s-.3,6.54-.89,7.73"/><path class="cls-19" d="M485.11,547S472,565.4,469.66,566.59"/><path class="cls-19" d="M529.4,562.79s3.39-4.18,4.7-3.66"/></g><path id="B_Dad_Shirt_Left" data-name="B Dad Shirt Left" class="cls-54" d="M407.32,582s4-10.33,6.36-11.12-.27-6.36.53-9-.27-5.56.26-6.89-1.06-5.3,0-6.88-.26-5.57,1.33-6.63-1.59-4.5,1.59-10.33c.53-3.44-.53-9,1.85-11.92.53-2.65,2.39-14.3,3.45-15.1.53-2.65,5-19.07,6.88-19.87.8-3.44,3.45-11.65,5.83-12.45s19.34-12.18,42.12-14c6.36-1.06,9.54-1.85,9.54-1.85l6.36-4.51s4-5,9.27-4.23c.18,2-1.92,6.49-1.92,8.06-2.09,0-6.54.79-6.54,1.84s2.35,20.67,4.45,23.55,2.09,5.76,1.31,6.81c1,1.83,0,10.21-7.86,12.56.77,4,3,9.94-1.46,13.92-.64,1.91-22.16,38.74-22.16,38.74s-4,3.67-5.58,4.3-2.87,11.16-2.87,11.16,8.35,4.48,8.1,6.68-10.24,31.45-10.24,31.45l-51,.25Z"/><path id="B_Dad_Jeans" data-name="B Dad Jeans" class="cls-55" d="M406.72,589.93s27.06.48,38.77,13.41c1.21.73.24,2.43.24,2.43s5.85-10.72,14.87-9,10.24,1.71,10.24,1.71l15.61-2.93,9.75,6.83,2.93,4.15-41.21-.25-51,.25Z"/><path id="B_Dad_arm" data-name="B Dad arm" class="cls-52" d="M442.8,598.93s-7.13-14.27,9.84-26.41c4-1.35,10.41-1.16,12.14-.2a20.54,20.54,0,0,1,3.38,2.49s17.44,2.53,20.91,2.33,6.17.39,13.5-5c3.66-1.93,7.9-5.78,11-5.78h3.08c-.19-.39,8.68-2.32,8.68-2.32s1.73-.58,4.63,3.47c1.92,1.35,5.4,2.12,6.36,4.24,0,1.55-1.93,3.47-6.75,2.7l-4.82-.77-.55,0-10.05-.73s18.12,2.31,14.65,8.1c-1,2.51-.77,3.28-15.23,1.35.19.19,20.24,1.54,13.3,9.45a7.15,7.15,0,0,1-4.61.82c-1.83-.19-4.75-.73-10-1.79,0,.19,21.21,2.89,11.37,9.64a13.7,13.7,0,0,1-5,0c-3.4-.44-7.15-1.37-8.5-1.37-2.12,0,18.12,1.74,7.52,6.94-3.47,0-18.48.45-18.48.45s-9.48-2.18-11.6-6.23c-1.73,0-24.94-1.85-26.93-3.53-2-.33-5.84-.71-11.63,4.3C445.69,600.66,444.54,600.28,442.8,598.93Z"/><g id="B_Dad_Right_Shirt_Details" data-name="B Dad Right Shirt Details"><path class="cls-19" d="M420.1,522.43s19.88-5.26,29.24.59"/><path class="cls-19" d="M440.57,560.15c-13.16-7.31-22.52,7.31-22.52,7.31"/><path class="cls-19" d="M415.42,565.12s14.62-14.62,24-7.89"/><path class="cls-19" d="M421.27,585,435,567.76s5.56-6.14,12-3.8"/><path class="cls-19" d="M415.13,575.36s1.75,9.65,7,13.74"/><path class="cls-19" d="M439.11,480.32s13.15,24.57,13.15,31.29"/><path class="cls-19" d="M445.54,479.45s27.49-14.62,36-12.87"/><path class="cls-19" d="M487.06,455.93l-5.55,6.26,2,27.78s-3.8,5.85,5.85.59l9.65-5.26"/><path class="cls-19" d="M496.73,489s-3.7-.43-1.85,2.85"/><path class="cls-19" d="M488.46,508.79s-2.71-.86-1.57,2.71"/><path class="cls-19" d="M475.19,534.18s-3-1.43-1.85,3"/><path class="cls-19" d="M477.25,492.28s-15.93,35-16.3,37.86"/><path class="cls-19" d="M463.39,503.71s-7.5,16.49-7.88,19.12"/><path class="cls-19" d="M455.7,534.81s.29,19.31-3.86,23.46"/><path class="cls-19" d="M435.2,571.35s.89,15.15,3,15.15"/></g><path id="B_Dad_Shirt_right" data-name="B Dad Shirt right" class="cls-54" d="M541.63,461.26s40.35,24.6,28.77,46.32c-3.25,5.06-18.81,25.87-18.81,25.87S548,512.64,549.23,511c0-3.07-1.08-16.1-2.53-15.56-.9-2.89-4-25.69-10.31-28.4C538.92,462,541.63,461.26,541.63,461.26Z"/><path id="B_Dad_head" data-name="B Dad head" class="cls-52" d="M502.69,447.19l-1.92,8.06s-6.9-.14-6.72,2.39,3.08,18.09,3.08,18.09,11.94,14.66,17.55,12.67c2.17.36,2.71-.73,5.6,4.88,1.63,1.81,3.08,1.81,3.08-1.45s-.9-4.34,3.08-5.42c2.35-1.09,9.95-5.61,9.22-13.93.73-1.63,2.9-2.9,4.35-5.25,2.71-2,13.57-16.47,13.2-19.54.37-1.45,1.09-5.25,1.09-5.25s2.17-3.8,2.53-5.79,3.44-7.24-.54-7.24c-.18-1.44,4.16-15.92-.18-26.23-2-3.8-6.15-14.47-22.26-15.2-2.17.54-12.66-.54-21.89,12.12-1.26,1.81-4.16,9.41-4.52,17.19-1.27,0-3.44-3.62-5.79,3.8a17.61,17.61,0,0,0-.18,13.21,3,3,0,0,0,1.81,1.27Z"/><g id="B_Dad_head_details" data-name="B Dad head details"><path class="cls-19" d="M508,412.29s9.22-6.79,10.31-11.49c1.08-2.61,2.17-3.4,5.15-2.88s24.69,7.32,28.76,6.28c1.9,0,3.8,3.39,3.52,9.14,1.09,3.66,1.9,7.84,1.9,7.84"/><path class="cls-19" d="M510.93,423.56s3.12-4.93,9.53-2.63c1.81.33,7.88.82,9.2,2.63.82,1-.82,3.12-3.62,2.46-3.28-2-6.24-2.95-9.36-2.3l-3.12.66C515.2,424.22,511.92,424.54,510.93,423.56Z"/><path class="cls-19" d="M540.17,426.84s6.07-.16,8.7,1.48c1.81.33,3.94.49,4.27,3.45.17,1.81-.82,1.15-5.58-1C544.77,430.46,536.23,428.65,540.17,426.84Z"/><path class="cls-19" d="M514.55,427.83s8.87-3.45,12.31,2.3c.5,1.48-1.14,2-3.28,1S516.19,430.46,514.55,427.83Z"/><path class="cls-19" d="M510.28,427.5s1.8,1,2.46.49"/><path class="cls-19" d="M509.78,429s2.8.82,4,.49"/><path class="cls-19" d="M538.53,433.91s6.24-3.29,11.66,1.64c1.47,1.8-2.47,2.3-4.6,1.48S539.18,435.55,538.53,433.91Z"/><path class="cls-19" d="M527.69,433.91s1.31,8-2,6.07"/><path class="cls-19" d="M523.25,438.5s-5.09,3.78,0,4.27"/><path class="cls-19" d="M524.4,443.76a7.55,7.55,0,0,1,3.12,2.79"/><path class="cls-19" d="M532.61,447.37s2.3-1.15,4.11-.16"/><path class="cls-19" d="M535.9,435.06s-.5,5.74,1.48,6.24"/><path class="cls-19" d="M512.41,446.39s2.79-2.63,4.27-2.14"/><path class="cls-19" d="M540.33,443.92s1.48,8.05,2.79,8.22"/><path class="cls-19" d="M504.86,423.07s-2.3,2.46-2.14,3.61"/><path class="cls-19" d="M504.69,419.78s-2.3.82-2.3,2.3"/><path class="cls-19" d="M503.38,428.81c.49,1.32,1,2.63-.49,2.47"/><path class="cls-19" d="M555.44,432.92s1-1.48,1.31-1"/><path class="cls-19" d="M549.53,424.05s4.1,2.14,4.43,5.42"/></g><path id="B_Dad_beard" data-name="B Dad beard" class="cls-56" d="M503.28,435.57s-.69,20.7,2.94,22.67c.82,1.65,4.45,17.47,14.17,16.15,3.13.17,12.58.78,15.27-1.91s12.91-15.72,12.91-15.72l3.13-4.61s-1-3.8-2.14-2.64-7.74,8.9-7.74,8.9,2.63-6.76-11.05-9.56c-3.13-.82-10.87-4.12-14-2.31-1.64.5-5.43,4.29-6.09,6.92-.83-1-2-11.7-4.95-13.51A42.32,42.32,0,0,0,503.28,435.57Z"/><path id="B_dad_lips" data-name="B dad lips" class="cls-1" d="M515.7,448.52s7.22-2,13,1.81c1.48,0,7.56-.49,11,4.43,0,1.81-6.4,11.5-14.45,8.21C522.43,462.15,515.37,458.38,515.7,448.52Z"/><path id="B_Dad_teeth" data-name="B Dad teeth" class="cls-52" d="M518.65,450.16s7.72,2.63,8.71,2.63c.82.49,8,1.32,8.7,2.14s-3.45,5.58-8.37,4.27C524.57,458.21,517.67,454.27,518.65,450.16Z"/><path id="B_DadFace_space_under_lip" data-name="B DadFace space under lip" class="cls-52" d="M515.61,452.15s-4.94-.17,1.32,14c1.32.66,3.3,4.12,10.38,4.12,4.78-1.15,8.24-2.3,10.88-8.73,1.15-3,2.47-6.43-.49-3.3-1.49,2-5.44,6.76-11.54,5.11C521.87,461.37,518.41,460.72,515.61,452.15Z"/><path id="B_dad_hair" data-name="B dad hair" class="cls-56" d="M508,411.38s2.49-13.15,7.33-15.36c2.77-2.49,8.71-7.75,16.19-7.75,3.32-.28,10.37-.14,15.22,3.46,2.35,1.38,8.3,6.57,9.34,11.45,1.31,3.35,3,11.24,1.45,16.5-.42-1.66-1.85-6.34-1.85-6.34s.52-9-3.52-9.14-13.21-1.46-28.76-6.28c-1-.24-3.34-1.34-5.15,2.88C517.85,402.38,512.45,410.41,508,411.38Z"/><path id="B_mom_hair" data-name="B mom hair" class="cls-57" d="M594.79,450.88l-19-7.86,3.25-10.59s.17-5.3,1.36-5.47c-3.75,0-5.63-2-3.41-3.25,1.36-.85,2.73-1.53,2.73-1.53l2.73-.18s.86-3.58,1.88-2.9.34-6.83,2-5.81c.69-2.56.52-4.27,1.71-4.27.86-2.9.34-7.34,2-6.15,1.37-1.71-.17-2.9,2.22-4.61,1.37-1.88.17-4.44,2.57-4.61,1.19-1.88,4.61-6.15,5.29-5.47s1.2-5.81,3.59-5.13c1-2.9,6.32-8.71,9-7,1-1.54,8.37-4.27,11.79-1,3.76-1.36,12.81-6.15,15.21-1.36.85.68,4.27-1.2,5.12,2.9,1.37.17,10.08,3.59,12.47,9.23,1.88,2,5,6.83,4.78,9.56,1.37,1.54,4.28,5.64,4.28,9.4,1,2.39,4.78,5.64,4.1,10.42,1,2.91,4.1,4.78,3.58,8.71,1.54,2.74,2.57,6.15,4.1,6.33,1,1.7,2.74,5,2.22,7.51,1.54,1.37,4.79,4.61,3.93,9.74.52,1.54,3.25,8.37,1.2,9.91-.34,1.36,5.81,3.41,2.39,7.17a5.92,5.92,0,0,0-.85,3.25s.68-5.47-1-6-4.1-4.61-4.1-4.61,1-3.93-.85-3.93-.34-5.64-2.39-5.3-1-3.76-2.05-3.93-1.54-3.41-2-3.58-.17-2.4-.86-3.25-3.41.34-2,2.05,2.22,6.32,2.74,6.83.51,3.25,1.53,4.27,2.39,6,1.71,9.74c.68,1.88,6.32,10.42,3.93,13.5-.85,2.9-2.22,3.59-2.22,3.59s-2.39-5.13-4.44-5c-.17-3.24,1.54-9.57-.69-10.08.52-4.95,1.71-4.78-.34-6.49-.85,1.37-2.73,10.08-1,13s.68,5,.68,5,5,5.46,2.56,6a7.3,7.3,0,0,0-3.93,2.73L669.79,478,668.42,475Z"/><path id="B_mom_shirt_right" data-name="B mom shirt right" class="cls-58" d="M607.37,453.18H627l7.11-10s.29-4.84,2.85,0a114.58,114.58,0,0,1,7.11,10s23.34,8.82,23.62,19.35c1.43,3.41,5.41,29.6,3.42,45,.28,4.26.28,12.52.28,12.52l2,19.63-4.27,4.56s-3.7,4.27-6.26,3.41a32.89,32.89,0,0,0,1.7-9.67s-.57-2.56-9.39-1.71c-2.84.28-15.08,1.71-18.78,4.27-1.42,1.42-6.26,2.27-6.26,2.27l-6.55,1.14-19.07-30.73Z"/><path id="B_mom_shirt_right_bottom" data-name="B mom shirt right bottom" class="cls-58" d="M633.55,575l21.06-2-.85,2.85s5.69,11.67,4,14.51c1.14,2.28,6.26,10,6.26,10s1.71,5.41.86,5.69-26.47.29-26.47.29Z"/><g id="B_mom_shirt_details" data-name="B mom shirt details"><path class="cls-19" d="M633.27,533.15S653.76,524.33,664,528"/><path class="cls-19" d="M665.71,546.81s2.56-15.37-.57-20.21c.29-1.42,3.13-6,3.7-.85"/><path class="cls-19" d="M669.7,531.44s2.56,8.82,1.13,15.65"/><path class="cls-19" d="M663.72,477.08s6.54,28.46,5.69,32.73"/><path class="cls-19" d="M648.35,466.55s-11.38,38.14-11.1,41.84"/><path class="cls-19" d="M635,512.09s-2.28,14.8-1.14,17.36"/><path class="cls-19" d="M643.23,467.41s-7.12,15.93-7.12,20.77"/><path class="cls-19" d="M644.08,453.18s-1.14,6.83-9.67,13.09"/><path class="cls-19" d="M647.21,597.47s12,4.55,12.81,6"/></g><path id="B_mom_right_shirt_shadow" data-name="B mom right shirt shadow" class="cls-59" d="M664.57,548l3.7,1.14s2.85-1.43,3.13,1.42l.44,1s-4.59,6-9,6.06C663.38,556.46,665,548.87,664.57,548Z"/><path id="B_mom_head" data-name="B mom head" class="cls-60" d="M603.49,446.1l1.38-12.67.46-5.53A18.19,18.19,0,0,1,604,417.77c-1.15-.69-4.38-1.62-3.69-7.6.23-2.54.46-15.44,3.69-10.14a15.11,15.11,0,0,1,2.07,4.15s3.23-9.45,5.07-10.14c1.61-2.76,3-9.44,8.06-9.44,3-.7,8.06-3.69,10.6-1.85,2.53,0,3,0,5.06,1.62s10.6-2.08,15,14.28c1.15,3-.69,15.2-3.23,17.74.69,1.15,6.45-6,6.22-1.16-2.53,4.38-3.45,5.76-5.07,6.68-.23.92-2.53,9.45-4.83,6.45-.23,1.39-4.38,8.3-7.37,9a10.57,10.57,0,0,0-.93,3.91l.93,14.29-32.25-3.23Z"/><g id="B_mom_face_details" data-name="B mom face details"><path class="cls-19" d="M602.56,406.48s.7-2.3,1.85-.92"/><path class="cls-19" d="M601.18,414.08s1.62.23,1.15,1.61"/><path class="cls-19" d="M601.18,410.86s1.62,1.84,2.08,1.15"/><path class="cls-19" d="M646.79,418.46s1.39.69.23,1.61"/><path class="cls-19" d="M643.57,427.21s.69-1.84,1.15-1.15"/><path class="cls-19" d="M612.89,398.12s5.65-.84,7.21.43a30.47,30.47,0,0,1,4.1,2.83s3,2.12.7-1.56c-2-2-4.52-3.82-8-3.53C614.73,396.57,613.31,397.13,612.89,398.12Z"/><path class="cls-19" d="M647.63,408.73s-4.13-4-6.14-3.82a31,31,0,0,0-5-.05s-3.64,0,.32-1.68c2.76-.48,5.9-.51,8.62,1.76C647,406.4,647.85,407.67,647.63,408.73Z"/><path class="cls-19" d="M614.16,404.06s5.23-3.11,9.47,2.55C621.79,407.31,618.83,408.3,614.16,404.06Z"/><path class="cls-19" d="M632.82,409.72s7.07-2.55,10.18,2.4c-2.83.56-4.38,2.12-10.32-1.84"/><path class="cls-19" d="M626,407.88s-.71,6.5-3.4,4.95"/><path class="cls-19" d="M620.52,413s-2.54,3.95.29,3.67"/><path class="cls-19" d="M630,415.23s2,1.13,1.28,2.26"/><path class="cls-19" d="M621.8,417.27s1.4.47,1.29,1.4"/><path class="cls-19" d="M626.34,419.84s2.57-1.17,3.61.11"/><path class="cls-19" d="M611.21,418.67s3.73-4.54,5.47-3.37"/><path class="cls-19" d="M633.56,420.07s2.56,2.79,2.56,4.54"/><path class="cls-19" d="M610.63,421.47s.46-2.1,1.75-2"/><path class="cls-19" d="M635.31,426.59s1.05,2.21.11,2.67"/><path class="cls-19" d="M613.07,421.12s9,.11,10.95,2.56c.7.35,6.52.35,8.84,3.26-.58,1-5.23,6.17-10.47,4.3C619.36,430,613.54,426.24,613.07,421.12Z"/><path class="cls-19" d="M608.77,423.56s.46,7.45,2,7.45"/><path class="cls-19" d="M619.71,442.42s2.91,3.61,13.39-4.08"/><path class="cls-19" d="M605.74,406.68s-.7,4.31-.35,4.77"/><path class="cls-19" d="M645.55,420.53s-.46,2.33-.93,2.56"/></g><path id="B_girls_hair" data-name="B girls hair" class="cls-61" d="M609.64,506.76l-32.78.62s-12.57,3.51-12.57,4.74c-2.47-.41-4.95-1.65-3.5-3.91-4.74.2-7.42-2.48-6-4.95-.21-2.68-1.24-2.47-.41-3.92-3.3-1-2.48.62-3.3-1s-5.56-3.09-3.3-7.42c-.62-4.12-3.5-4.53-.41-6-5.36-.83-7.63-4.74-3.92-7.63-2.88-2.27-6.8-7.42-2.06-8.66,0-2.26,2.27-7.21,6-4.94,1.65-.62,1.65-6.39,4.33-6.39,2.88-3.92,1.24-5.16,3.3-4.33-.21-4.33,4.74-7.83,7.83-7,1.85-2.68,1-5.77,7.42-7.42,2.06-1.24,7.42-8.24,13-3.5a20.92,20.92,0,0,1,6.39,3.91s6.39-7.83,13.19-6,12.17,4.12,14,7.83c1,1.44,6.8,2.88,7.21,6.18,1.45-.82,10.31-.41,5.36,5.15.42,1.24,9.9,12,3.09,18.55,2.07,2.68,13.61,20.41,1.45,15.67-.62,1.85.2,9.69-1.24,10.92-.41,3.51-1,14.84-4.53,6.39a28.47,28.47,0,0,0-.83-4.74s-3.5,12.16-4.94,12.37c-2.27.2-1.65-6.39-.62-9.48-2.27,2.88-4.13,10.92-8.45,8.86C611.49,509.65,609.64,506.76,609.64,506.76Z"/><path id="B_girls_left_arm" data-name="B girls left arm" class="cls-52" d="M543.62,580s-17.48-16.71-7.42-34.43c6-9.46,22.51-28.19,22.51-28.19s12.45-13.28,19.87,1.61c1.68,4.23,3.83,9.26-3.11,20.34,0,4.43-11.26,20.33-15.57,21.54S543.62,580,543.62,580Z"/><path id="B_girls_right_arm" data-name="B girls right arm" class="cls-52" d="M619.74,515.63l-6.6,45.75,20.2-2.26-3.92-6.19s1.45-5.15.21-7.62C630.66,541.39,635.61,517.28,619.74,515.63Z"/><path id="B_girls_head" data-name="B girls head" class="cls-52" d="M576.86,507.38l11.55,43.29,24.94-.21L616,521.81l-6.19-10.51.21-3.71s7-4.33,7.42-11.13c.82-1.44,2.06-2.89,1.85-3.92s1.86-9.07-3.09-9.89c-.62-2.68-4.12-20-8-22.67s-16.9-7-24.52-1.45c-4.33,3.3-11.34,3.51-10.1,14-.42,5.15-.62,13.81.2,17.93-2.26.83-5.56,4.74-4.12,8s4.12,5.77,6.39,3.92l1.44.2Z"/><path id="B_girls_shirt" data-name="B girls shirt" class="cls-53" d="M560.58,514.14l3.71-2.28,12.57-4.77s6.19,4.35,10.1,19.48c1.24,2.28,5.36,22.39,13.4,22.18,3.51.21,11.75.21,13.19-6.43-.41-5.59,0-14.71-2.06-18.65a51.42,51.42,0,0,0-1.85-10.57s-.21-4.56,3.09-.21c2.27.63,7-.62,8,5.18,1.65,2.7,5.56,17.62-.42,20.94,0,2.07-2.06,10.57-2.68,11s-3.5,7.88-3.5,7.88l-5.56,1.24-45.76,1,5.36-7.67s4.53-7.88,4.53-11.4c1.65-3.11,6.6-13.47,2.68-20.93C571.3,514.76,572.54,511,560.58,514.14Z"/><g id="B_girl_s_face_details" data-name="B girl&apos;s face details"><path class="cls-19" d="M574.25,498.7c0-.51,1.21,2.78,0,2.6"/><path class="cls-19" d="M571.13,497s-.35-2.42,1-1.56"/><path class="cls-19" d="M586.19,515.85s6.24,2.94,12.47,2.08"/><path class="cls-19" d="M587.06,523s6.93,4,8.66,3.46"/><path class="cls-19" d="M581.52,508.75A19,19,0,0,0,602,514.12"/><path class="cls-19" d="M587.93,502.69s6.06,11.77,12.81,9.69"/><path class="cls-19" d="M577.19,483.47s8.83-6.06,12.12-4.85c1.91-.18,2.42-2.25-3.64-1.56C582.56,477.93,576.67,481.91,577.19,483.47Z"/><path class="cls-19" d="M613.33,477.31s-10.32-2.87-13-.65c-1.85.45-3-1.35,2.94-2.66C606.46,473.81,613.32,475.67,613.33,477.31Z"/><path class="cls-19" d="M578.57,486.24l3.81-2.08s5.37,1.21,7.28,0c-.18-1.56-1-3.64-6.76-1.56S578.57,486.24,578.57,486.24Z"/><path class="cls-19" d="M600.57,481.73s4-5,8.83-2.94a15.39,15.39,0,0,1,2.77.87l-4.5.52S601.43,482.6,600.57,481.73Z"/><path class="cls-19" d="M591,481.91a2.19,2.19,0,0,1,.87,2.6"/><path class="cls-19" d="M592.08,487.45s-2.25,4.5.35,4"/><path class="cls-19" d="M593.81,491.09s.7-1.56,2.25,0"/><path class="cls-19" d="M600.05,489.87a2.44,2.44,0,0,1,2.59-.86"/><path class="cls-19" d="M604.72,488.14s3.47,5,4.85,5.54"/><path class="cls-19" d="M589,491.61s-2.25,3.8-1.55,5.36"/><path class="cls-19" d="M610.26,496.45s.18,3.64,1.22,3.81"/><path class="cls-19" d="M589,499.22s5.55-5.88,9.35-4.15c1.56-.35,6.41-2.08,9.53.69-.17,1.56-2.94,7.27-6.58,6.93C599,503,589.31,503,589,499.22Z"/><path class="cls-19" d="M605.59,511.17a5.67,5.67,0,0,0,3.29-2.77"/><path class="cls-19" d="M616.32,487.45a13.57,13.57,0,0,1,.87,3.46"/><path class="cls-19" d="M554.5,435.33a22,22,0,0,1-.69,3.29"/><path class="cls-19" d="M616,491.09a7.21,7.21,0,0,1,.17,1.55"/><path class="cls-19" d="M590,529.87s10.22,4.85,14.55,1.39"/></g><path id="B_mom_s_arm" data-name="B mom&apos;s arm" class="cls-60" d="M664.57,548s-.61,8.73-1.7,9.67-2.27,9.91-3.69,10.39c-.24,2.36.47,9.43-9.91,9-2.83.95-40.58,8-51.66,5-5-.24-9.44-1.66-12-.71-3.54-1.89-12.74-3.78-34,5.42-2.12-.23-4-2.59,0-3.3-4.48.24-9.44-1.18-2.83-4.25-6.61,2.6-10.14.71-10.14.71s-2.36-3.06,3.77-2.12c-10.38-3.3-12.27-8.26-3.3-8a37.39,37.39,0,0,0,6.84-1.42l4.95-3.06s-9.67,5.42-16.75,2.83c-.7-.48-7.31-4.72,3.54-5.43,3.07-.71,11.09-2.36,11.09-2.36a17.34,17.34,0,0,1,8.26-.47c3.06,0,11.56.24,11.56.24l11.09-.24,3.53,5,5.9-.7,23.83-5.67,17.2-5.55,6.26-2.27a72.35,72.35,0,0,1,18.78-4.27C661.07,545.83,664.78,547,664.57,548Z"/><path id="B_girls_pretend_shorts" data-name="B girls pretend shorts" class="cls-53" d="M595.25,606c.47-18.64-9.68-24.77-9.68-24.77s24.07,2.36,26.9,1.18c1.65,5.19,1.41,23.12-.47,23.59S595.25,606,595.25,606Z"/><g id="B_girls_leg_details" data-name="B girls leg details"><path class="cls-19" d="M562.93,601.51s3.3,2.12,3.3,3.3"/><path class="cls-19" d="M615.77,604.81s5.9-5.19,5.66-7.08"/><path class="cls-19" d="M608.69,587.82s-2.83,10.86-.23,14.16"/></g><path class="cls-52" d="M565.39,560.08s-3.86,6.43-2.9,8.85c-.48,1.77,1.29,6.11,2.9,2.25l1.61-3.86,3.7-6.92-4.83,9s-2.25,11.26,3.22,6.11c.59-1.4,1.1-2.64,1.51-3.67.8-2,1.22-3.24,1.22-3.24l1.77-4.51,1.77-2.89-3.05,5.63-1.61,3.86s-1,9.49,4,2.73c.59-1.1,1.09-2,1.51-2.86.28-.52.52-1,.73-1.4,1.1-2.1,1.46-2.82,1.46-2.82l1.77-3.21-5.63,11.58s4.18,2.89,7.56-5.47c3.7-2.74,11.74-7.72,17.7-7.72,8.52-1,5.95-2.58,5.95-2.58S570.22,557.67,565.39,560.08Z"/><path class="cls-19" d="M563.08,570.06s1.15-.11,1.53.54"/><path class="cls-19" d="M535.56,566.26s.26-1.13-.34-1.59"/><path class="cls-19" d="M537.81,573.61s.26-1.12-.34-1.58"/><path class="cls-19" d="M541,579.81s.25-1.13-.35-1.59"/><path class="cls-19" d="M567,572.78s1.14-.1,1.53.55"/><path class="cls-19" d="M572.3,571.75s1.15-.11,1.53.54"/><path class="cls-19" d="M566.36,574.37s1.14-.11,1.52.54"/><path class="cls-19" d="M571.43,573.44s1.15-.11,1.53.54"/><path class="cls-19" d="M577.22,572.13s1.14-.11,1.52.55"/><path class="cls-62" d="M509.56,574s-1.33,3.78,0,4.45"/><path class="cls-62" d="M546.4,570.25s1.33,3.78,0,4.44"/><path class="cls-62" d="M553.13,579.6s1.34,3.78,0,4.45"/><path class="cls-62" d="M544,562.47s1.33,3.78,0,4.45"/><path class="cls-62" d="M508.45,583.51s-1.33,3.78,0,4.45"/><path class="cls-62" d="M510,583.73s-1.33,3.78,0,4.45"/><path class="cls-62" d="M507.34,592s-1.34,3.78,0,4.44"/><path class="cls-62" d="M506.45,600.63s-1.33,3.77,0,4.44"/></g></g></g></g></g></svg>