<svg xmlns="http://www.w3.org/2000/svg" xmlns:xlink="http://www.w3.org/1999/xlink" viewBox="0 0 510.77 464.68"><defs><style>.cls-1,.cls-14,.cls-16,.cls-2,.cls-37{fill:none;}.cls-10,.cls-2{stroke:#004649;}.cls-10,.cls-13,.cls-14,.cls-15,.cls-16,.cls-17,.cls-18,.cls-19,.cls-2,.cls-20,.cls-21,.cls-22,.cls-23,.cls-24,.cls-25,.cls-26,.cls-27,.cls-28,.cls-31,.cls-32,.cls-33,.cls-34,.cls-35,.cls-36,.cls-37,.cls-38,.cls-39,.cls-40,.cls-41,.cls-42,.cls-43,.cls-44,.cls-45,.cls-46,.cls-53,.cls-54,.cls-55,.cls-56,.cls-57,.cls-58,.cls-59,.cls-60,.cls-61,.cls-62,.cls-63{stroke-miterlimit:10;}.cls-3{font-size:14.24px;font-family:Futura-Bold, Futura;font-weight:700;}.cls-3,.cls-9{fill:#00464a;}.cls-4{letter-spacing:0em;}.cls-5{letter-spacing:0.01em;}.cls-6{letter-spacing:0em;}.cls-7{letter-spacing:-0.01em;}.cls-8{letter-spacing:0.01em;}.cls-10{fill:#004649;}.cls-11{clip-path:url(#clip-path);}.cls-12{fill:#e3948a;}.cls-13{fill:#a97656;}.cls-13,.cls-14,.cls-17,.cls-18,.cls-21,.cls-23,.cls-24,.cls-26,.cls-27,.cls-28{stroke:#939598;}.cls-13,.cls-14,.cls-15,.cls-16,.cls-17,.cls-18,.cls-19,.cls-20,.cls-21,.cls-22,.cls-23,.cls-24,.cls-25,.cls-26,.cls-27,.cls-28,.cls-31,.cls-32,.cls-33,.cls-34,.cls-35,.cls-36,.cls-37,.cls-38,.cls-39,.cls-40,.cls-41,.cls-42,.cls-43,.cls-44,.cls-45,.cls-46,.cls-53,.cls-54,.cls-55,.cls-56,.cls-57,.cls-58,.cls-59,.cls-60,.cls-61,.cls-62,.cls-63{stroke-width:0.25px;}.cls-15{fill:#153e4b;}.cls-15,.cls-16,.cls-20,.cls-22,.cls-25{stroke:#6d6f71;}.cls-17,.cls-19{fill:#f7dfd8;}.cls-18{fill:#4da1c8;}.cls-19{stroke:#a7aaac;}.cls-20{fill:#67473a;}.cls-21,.cls-22{fill:#e6c3b8;}.cls-23{fill:#fff;}.cls-24,.cls-59{fill:#a5bde2;}.cls-25,.cls-26{fill:#86a7d7;}.cls-27{fill:#dac0a2;}.cls-28,.cls-58{fill:#523e33;}.cls-29{clip-path:url(#clip-path-2);}.cls-30{fill:#7d9a9b;}.cls-31{fill:#d49f77;}.cls-31,.cls-32,.cls-33,.cls-34,.cls-35,.cls-36,.cls-37,.cls-38,.cls-39,.cls-40,.cls-41,.cls-42,.cls-43,.cls-44,.cls-45,.cls-46,.cls-53,.cls-54,.cls-55,.cls-56,.cls-57,.cls-58,.cls-59,.cls-60,.cls-61,.cls-62,.cls-63{stroke:#fff;}.cls-32{fill:#e7b290;}.cls-33{fill:#c6baa4;}.cls-34{fill:#4c6067;}.cls-35{fill:#d9dada;}.cls-36{fill:#978e7d;}.cls-38{fill:#0f0e0d;}.cls-39{fill:#110e0d;}.cls-40{fill:#cda19f;}.cls-41{fill:#94795e;}.cls-42{fill:#4b688a;}.cls-43{fill:#373c51;}.cls-44{fill:#23150f;}.cls-45{fill:#e04742;}.cls-46{fill:#3f5774;}.cls-47{clip-path:url(#clip-path-3);}.cls-48{font-size:17.7px;fill:#595a5c;font-family:Futura-Medium, Futura;font-weight:500;}.cls-49{letter-spacing:0.03em;}.cls-50{letter-spacing:0em;}.cls-51{fill:#e1c478;}.cls-52{fill:#314779;}.cls-53{fill:#b78b74;}.cls-54{fill:#e57c59;}.cls-55{fill:#8e94a6;}.cls-56{fill:#3f465e;}.cls-57{fill:#3e271b;}.cls-60{fill:#879ab9;}.cls-61{fill:#d1ab94;}.cls-62{fill:#775041;}.cls-63{fill:#b89884;}</style><clipPath id="clip-path"><circle class="cls-1" cx="402.94" cy="101.19" r="101.19"/></clipPath><clipPath id="clip-path-2"><circle class="cls-1" cx="116.52" cy="216.96" r="101.6"/></clipPath><clipPath id="clip-path-3"><circle class="cls-1" cx="403.24" cy="334.51" r="101.6"/></clipPath></defs><g id="Layer_2" data-name="Layer 2"><g id="Layer_1-2" data-name="Layer 1"><polygon id="Triangle_board" data-name="Triangle board" class="cls-2" points="369.59 86.09 133.99 217.42 373.66 355.8 369.59 86.09"/><text class="cls-3" transform="translate(11.09 89.41)">Supe<tspan class="cls-4" x="37.91" y="0">r</tspan><tspan x="44.54" y="0">ior</tspan></text><text class="cls-3" transform="translate(12.17 435.52)">In<tspan class="cls-5" x="14.49" y="0">f</tspan><tspan x="20.21" y="0">e</tspan><tspan class="cls-4" x="29.43" y="0">r</tspan><tspan class="cls-6" x="36.06" y="0">ior</tspan></text><text class="cls-3" transform="translate(11.3 459.78)"><tspan class="cls-7">F</tspan><tspan x="7.7" y="0">o</tspan><tspan class="cls-8" x="17.67" y="0">r</tspan><tspan class="cls-6" x="24.39" y="0">eigner</tspan></text><text class="cls-3" transform="translate(441.66 459.78)">Insider</text><polygon class="cls-9" points="5.02 40.59 0 49.72 10.04 49.72 5.02 40.59"/><line class="cls-10" x1="4.88" y1="48.14" x2="4.8" y2="443.21"/><polygon class="cls-9" points="510.77 443.44 501.35 448.45 501.35 438.42 510.77 443.44"/><line class="cls-10" x1="501.5" y1="443.2" x2="3.99" y2="443.91"/><g class="cls-11"><circle class="cls-12" cx="402.94" cy="101.19" r="101.19"/><circle class="cls-12" cx="402.94" cy="101.19" r="101.19"/><path id="W_dad_shirt" data-name="W dad shirt" class="cls-13" d="M385.6,60.2l6.89-11.59,2.35-2.36A4.13,4.13,0,0,1,398,42.39c3.19-.84,14.11-4.37,14.11-4.37s1.18-4,1.85-3.69c1-.39,15.88.33,15.88.33s2.8.72,2.48,2.56a5,5,0,0,1,.48,2.16l5.84,2.25s4.8,1,6,2.8c.88.56,5.69,2.16,6.17,11,.4,1.36,1.6,9,1.2,10.25.08,1.12.54,5.12.54,5.12s0,4.22-.6,5.43-.2,6-1.41,6.85-2.62,6.24-3.83,7-2.41,4.63-3.42,5.23-3.42,2.62-3.42,2.62.2,4.43-.2,5.23-10.07,2.56-10.07,2.56l-9.2,2.59-23.82-7.58-10.18-30.1Z"/><g id="W_dad_shirt_details" data-name="W dad shirt details"><path class="cls-14" d="M418.91,41.51l-1.41-1.19-.32.43.11,1.74s.21,1.41-.54,2a.87.87,0,0,1-1.3,0l-3.58-6.06"/><path class="cls-14" d="M426.49,41.3s1.73.75-.21,3.14c.32,1.3.21,3,2.49.75L431,42.92,433,41"/><path class="cls-14" d="M420.64,46.93s-3,9.63-1.19,28.48l.11,3.14s.22,9.85.11,10.61,1,7.69.76,8.34-1.19,6-1,6.28"/><path class="cls-14" d="M421.19,47.79s1.18.62.05,1.08"/><path class="cls-14" d="M420.77,56.7s1.29,1.08.06,1.86"/><path class="cls-14" d="M420.88,67.67a.84.84,0,0,1,0,1.55"/><path class="cls-14" d="M421.1,78s1.39,1.17.09,1.86"/><path class="cls-14" d="M421.27,88.73s1.57.83.05,1.52"/><path class="cls-14" d="M421.58,99.59s1.39.44.17,1.39"/><path class="cls-14" d="M423.43,47.43s11.22-1.21,11.78-3.08"/><path class="cls-14" d="M400.06,43.69s6.08,3.46,7.95,3.18"/><path class="cls-14" d="M403.89,69s5.71,8.88,5.71,10.66"/><path class="cls-14" d="M407,69s5.14,10.1,6.45,10.57"/><path class="cls-14" d="M423.15,63.42S430,75.76,431.47,76.6"/><path class="cls-14" d="M428.76,67.91s5.24,9.91,5.8,9.91"/><path class="cls-14" d="M406.6,95.87s6.08.65,7.86,6.35"/><path class="cls-14" d="M425.12,80.81S427.64,90,429,90.72"/><path class="cls-14" d="M416.05,103.91s-.56-8,1.77-.84"/><path class="cls-14" d="M403.52,99.51s3.65.19,4.3,2.34"/><path class="cls-14" d="M433.63,66.41s.18,4,1.4,4.68"/><path class="cls-14" d="M447.37,47.43s-6.26,11.22-4.21,17.39"/></g><path id="W_dad_pants" data-name="W dad pants" class="cls-15" d="M394.72,97.77l21.15,7.28,5.38.7s5-.52,5.54,0c3.82-1,12-3.47,12-3.47s1.74-1,2.26,2.77,3.66,16.5,3.38,19.25c.83,2.48,1.1,8.81,1.1,12.38s.28,12.12,0,13.49.28,12.39.28,14.31.55,17.34.55,19,1.65,9.08,1.93,11,1.1,11.56.55,12.66-10.74,6.33-12.39,1.65-5.23-18.17-5-20.09l.27-1.93c-.83-.28-2.2-11-1.93-13.76s-1.37-12.39-1.37-15.14C426.78,154,421,137.79,421,137.79s-2.48-12.12-5-5.51-5.23,32.75-6.88,33.58c-.27,1.65-.55,6.06-.83,7.16s-.27,23.12-.27,23.12l.65,11.82a11.31,11.31,0,0,1,.33,3c-.11,1.22-12.37,3.31-13-.11a30.79,30.79,0,0,1-.66-5.19s-1-4.64-.34-5.64c-.55-1.65-2.32-13.36-2-14s-2.32-60.53-2.32-60.53l-1.11-24.75Z"/><g id="W_dad_pants_details" data-name="W dad pants details"><line class="cls-16" x1="408.5" y1="102.88" x2="406.83" y2="108.03"/><line class="cls-16" x1="409.82" y1="103.36" x2="408.62" y2="108.51"/><line class="cls-16" x1="406.35" y1="108.63" x2="408.02" y2="109.1"/><path class="cls-16" d="M425.5,105.63s1,5,.6,5.63"/><path class="cls-16" d="M426.79,105.75a38.08,38.08,0,0,1,.62,4.55"/><path class="cls-16" d="M426.22,111.74s1.19-.12,1.31-.48"/><path class="cls-16" d="M437.55,102.58s1,5,.6,5.62"/><path class="cls-16" d="M438.84,102.69a38.27,38.27,0,0,1,.62,4.56"/><path class="cls-16" d="M438.27,108.68s1.19-.12,1.31-.48"/><line class="cls-16" x1="399.29" y1="105.39" x2="404.55" y2="107.55"/><path class="cls-16" d="M410.3,108.75a41.73,41.73,0,0,0,4.78,1.79"/><path class="cls-16" d="M418.08,111.5s6.7.24,7.06-.12"/><path class="cls-16" d="M430.64,110.54s6.35-1.32,6.95-1.67"/><path class="cls-16" d="M417.06,112.63s1.5,11.48.2,14.15"/><path class="cls-16" d="M421.5,112.83s1.37,15.06-2.48,13.3"/><path class="cls-16" d="M404.81,108.07s.65,7.11-8.09,5.41"/><path class="cls-16" d="M396.85,107.74s5.87-.19,4.57,1.7c-.46,1.11-1.24,2.41-.92,3.45"/><path class="cls-16" d="M432.06,112.11s.26,7.15,10.9,3.81"/><path class="cls-16" d="M441.93,110.27s-7.35.92-5.43,2.54c.73,1,1.91,2.15,1.66,3.25"/><path class="cls-16" d="M398.48,117.06s8.5.85,10.08,2.8"/><path class="cls-16" d="M407.46,124.35c1.58.85,7.41,2.67,8.38,4.85"/><path class="cls-16" d="M431,122.16s5.46-2.43,8.62-1"/><path class="cls-16" d="M400.55,132.36s4.49-1.1,6.43-.49"/><path class="cls-16" d="M409.65,131.26s4.13-1.21,5.46-.48"/><path class="cls-16" d="M423.73,137.21s4-2.55,6.43-1.45"/><path class="cls-16" d="M439.63,156.51a7.06,7.06,0,0,1,3.88,1"/><path class="cls-16" d="M437,161a5.34,5.34,0,0,1,5.1.37"/><path class="cls-16" d="M399.33,153s3.64,3.64,5.22,3.28"/><path class="cls-16" d="M409,138.55s2.31,5.46,2.92,6.92"/><path class="cls-16" d="M399.82,171s10.56-5,6.8-1"/><path class="cls-16" d="M432,171.32s7.16-2.79,6.8-1.34"/><path class="cls-16" d="M442.54,137.33s-5,3.16-4.61,4.62"/><path class="cls-16" d="M442.42,198.75s9.47,5.7,2.91,9"/><path class="cls-16" d="M445.33,185.4s-1.33,4.61-2.06,5.09"/><path class="cls-16" d="M406.37,197.41s-4.25,8.5-.73,7.29"/><path class="cls-16" d="M394.48,186.73s2.18,4.25,3.52,4.13"/><path class="cls-16" d="M418.17,107s1.61,1.17.15,2.33"/></g><g id="W_mom_legs" data-name="W mom legs"><path class="cls-17" d="M376.21,184.8l11,.69s-3.9,20.07-4.74,20.91c.28.83-1.67,8.92-1.11,10.17a27.24,27.24,0,0,1,1.11,4.32l-9.05.56Z"/><path class="cls-17" d="M360.05,184.8l8.36-.14,1.39,37.21s-6.41,1.11-6-1.26,1.83-4.55,1.17-6.09a15.41,15.41,0,0,1-.77-5.28c-.55-2.09-2.86-12.43-2.86-12.43Z"/></g><path id="W_mom_skirt" data-name="W mom skirt" class="cls-18" d="M359.26,96.67l31.81-.29.26,1.15s.34,2.21,0,2.38-.38,1.4-.17,1.87c0,.55.79,9.43.79,9.43l2.16,7.8,3.28,21.78s1.54,18.38,1.34,19.82c.2.82.72,22.39.72,22.39s1.33,3.59-1.75,2.67c-1.64,0-5.65.1-5.65.1s.62,2.47-9.55,1.85c-3.9-.2-4.21-1.44-4.21-1.44l-12.22.11s-10.48-.11-13.36-1.34C353,184.23,359.26,96.67,359.26,96.67Z"/><path id="W_dad_head" data-name="W dad head" class="cls-19" d="M413.86,34.8l.46-4.31s-.37-2.11-.83-2.3c-.28-.7,0-1.62-.95-2A7.94,7.94,0,0,1,411,21.8c-.06-1.05.12-3.19,1.1-1.84-.49-1.72-1-5.15-1-5.15s-.43-4.34.61-5.2l2.82-2.33s7.84-5.7,12.8-.61c.49.43,6,.73,5.2,5.08a13.18,13.18,0,0,1-.18,3.86c-.06.73-.06,3.06-.3,3.12.73,0,5.08,0-.49,6.74-.25.73-.49,1.71-.49,1.71a18.29,18.29,0,0,1-1.11,2.39c-.06.62,0,4.35,0,4.35l-.06,2.39s.37,1.47.61,1.53.31.74.31.74a8.35,8.35,0,0,1-4.9,2.69,16.62,16.62,0,0,0-2.08,2.08,1.51,1.51,0,0,0,.24,1.53c.25.43-1.22,1.54-2.57,1.54-.55-1.05-1.53-2.82-1.53-2.82l-.8-1.9a7.31,7.31,0,0,0-1.53-1.84c-.67-.43-2.57-1.47-2.57-1.47S413,36.17,413.86,34.8Z"/><g id="W_dad_face_details" data-name="W dad face details"><path class="cls-14" d="M431.27,19.88s.1,1.73.05,2.08"/><path class="cls-14" d="M431.86,21.57s.65,1.44-.14,1.78"/><path class="cls-14" d="M433,19.83a2.62,2.62,0,0,1,.3,1.83"/><path class="cls-14" d="M412.13,21.42s-.95-.2-.5,1.44"/><path class="cls-14" d="M412.78,21.47a21.1,21.1,0,0,0,.14,2.68"/><path class="cls-14" d="M414.61,17.19s.25-1.39,2.79-1.29c.69-.05,3-.25,2.29.64-.55.25-.8.1-2.39.15C416.65,16.89,415.41,17.49,414.61,17.19Z"/><path class="cls-14" d="M429.36,16.84s-.25-1.39-2.78-1.29c-.7-.05-3-.25-2.29.65.55.24.79.1,2.39.15C427.32,16.54,428.56,17.14,429.36,16.84Z"/><path class="cls-14" d="M415.66,18.63a2.67,2.67,0,0,1,4-.2C419.44,18.88,416.5,19,415.66,18.63Z"/><path class="cls-14" d="M428.19,18.38a2.68,2.68,0,0,0-4-.2C424.41,18.63,427.34,18.73,428.19,18.38Z"/><path class="cls-14" d="M421.08,18.33s.1,2.44-.5,2.79"/><path class="cls-14" d="M419.64,23.16a1.18,1.18,0,0,1,1.49,0"/><path class="cls-14" d="M422.77,23s0-.6,1.14-.05"/><path class="cls-14" d="M424.36,21.66s.79.75.1,1"/><path class="cls-14" d="M417.7,25.69a29.17,29.17,0,0,1,3.92-.2,27.34,27.34,0,0,1,3.53,0,2.74,2.74,0,0,0,1,.15s-1.94,2.74-4.38,2.64A5,5,0,0,1,417.7,25.69Z"/><path class="cls-14" d="M415.66,20a7.74,7.74,0,0,0,2.43-.14"/><path class="cls-14" d="M428,19.78a2.81,2.81,0,0,0,1.44-.2"/></g><path id="W_dad_hair" data-name="W dad hair" class="cls-20" d="M412.05,20l.73.61s-.4-5.27,0-5.77c.09-1.29,1.14-4.47,1.83-4.87.35-.44,2.14-2.48,4.38-2.33l4.47-.15a4,4,0,0,1,1.79.64c.7.55,3.73,5.42,5,5.32a19,19,0,0,1,.7,4.13l.1,1.29.94-.1.3-3.12.18-3.86s1.11-3.71-4.95-5.1l-.65-.3s-2-3.18-9.24-.79l-1,.5s-4.64,2.87-5,3.55A12.2,12.2,0,0,0,411,11l0,3.83Z"/><path class="cls-14" d="M414.88,30.36s3.64,5.74,6.71,5c2-.17,6.55-1.77,7.46-5.24"/><path class="cls-20" d="M416.21,25.24s2.22-2.11,4.85-1.37c.34.34,1.2.69,1.48.29.06-.51,2.46-1.14,4.63-.06a2,2,0,0,1,.45,1.14,11.4,11.4,0,0,0-5.53-.4C420.26,25,421.34,24.16,416.21,25.24Z"/><path class="cls-14" d="M441.87,67.73s.86,8,.28,9.76"/><path class="cls-14" d="M442.15,81.41a67.39,67.39,0,0,1-2.1,6.5"/><path class="cls-14" d="M439.67,90.59s1,5.8.23,7.35"/><path class="cls-14" d="M443.49,77s3.54-1,3.92-2.87"/><path class="cls-14" d="M442.44,85.14s3.25,1.24,4.11-.1"/><path class="cls-14" d="M448.18,79.3c.86-.19,2.68-1,2.87-1.62"/><path class="cls-14" d="M446.65,81.22s3.25-.67,3.82-1.53"/><path class="cls-14" d="M445.6,82.46s3.92.38,4.68-1"/><path class="cls-14" d="M440.33,89.44a6.51,6.51,0,0,0,4.88,0"/><g id="W_mom_skirt_details" data-name="W mom skirt details"><path class="cls-14" d="M396.24,144.85s1.46,34.1.18,35.74"/><path class="cls-14" d="M381.67,184.06a7.75,7.75,0,0,0,0,2.29"/><path class="cls-14" d="M383.2,104.4s6.44.15,6.9-.16"/></g><g id="W_girl_legs" data-name="W girl legs"><path class="cls-21" d="M354.05,179.92s-.55,7.38.14,8.64a40.94,40.94,0,0,0-.83,5.29c0,1.26-1.12,11.29-.14,12.83.28,2.78,2.78,15.88,2.78,15.88l5.44-.14s-.56-3.06-1.11-3.2c.27-1,.41-10,1-13a38.84,38.84,0,0,0-.14-7.39c.56-1.25,2.93-8.36,1.95-10.59.28-2.51.28-6.55.28-6.55Z"/><path class="cls-21" d="M367.71,179.78s-.7,8.08-1,9.2a10.62,10.62,0,0,0,.69,8.36c.14,1.67-2.37,11.15-.28,14.35.42,1.54.42,11.85,0,12.27l5.58-2.37s3.9-19.23,2.93-22c-.14-3.07,0-9.76.55-11,.7-1.95,2.23-11.57,2.23-11.57Z"/><path class="cls-21" d="M354.89,192.46s2.09,5.57,5.71,2.79"/><path class="cls-21" d="M372.31,191.9s-4.32,1-.28,5.58"/></g><path id="W_girl_skirt" data-name="W girl skirt" class="cls-15" d="M349.36,144.06l28.88.58.17,1s1,2.15.49,2.81c.17,1.07,4.21,12.46,4.21,12.46l1,5.53.58,8-.74,3.71s1.57,5.2-.74,4.13c-1.74,0-8.83-.42-8.83-.42l-1.41-.24s.74,1.81-5.77,1.07c-1.33,0-13.13,1.24-13.13,1.24s-5.2.57-6.27-1.08a43.11,43.11,0,0,0-5.94-1.15L346.39,156Z"/><path id="W_girl_left_arm" data-name="W girl left arm" class="cls-21" d="M348.09,141.47s-1.72,8.14-1.17,14.24c.15,1.65.47,8.69.7,9.48.31,1.09-.55,6.26-.47,7.2.47.94,2.51,2.19,2.66,2.74s1,1.88,2.19.07c.63,0,1.88,1.88,2-.62-.39-2.35-1-4.93-.86-5.4-.55-1.49-.47-2.66-1.33-3.21.23-.86.78-13.94,1.64-14.25a56.8,56.8,0,0,0,.39-9.31C353.65,141.86,348.09,141.47,348.09,141.47Z"/><path id="w_girl_right_arm" data-name="w girl right arm" class="cls-22" d="M378.2,139.75l5.77-1.42.17.77s.42,4.34.9,4.93c.29.89,1.78,10.64,1.48,14.63.12,1.07.72,8.2.72,8.2s2.08,5.41,1.48,7.25c.06.89.3,3-1.42,3.27a15.2,15.2,0,0,1-2.44,1h-1.67s-2.26-.59-.41-1.43c-.5.06-1.69-.1-.42-1.1.43-.26,1-.7,1-.7s.43.08.15-2a13.19,13.19,0,0,1-.31-2.42s-1.24,0-.6-3.74c.14-.29.47-.44-.24-3.65-.67-2.1-2.23-8-2.23-8a35.21,35.21,0,0,1-.85-6.56A78.38,78.38,0,0,0,378.2,139.75Z"/><path id="W_girl_shirt" data-name="W girl shirt" class="cls-23" d="M351.18,119.61s4.87-3.09,5.58-2.74,9.85,2.74,9.85,2.74l7.13-3.45s0-2.25,3,.71c1.55.95,8.19,3.45,9,5.58.94,1.78,3.2,5.82,1.3,5.35l-.59.59s3.08,4.51.59,3.8c-.83.83-1.54.83-1.07,3s-1.07,3.91-3.8,4.86a10.39,10.39,0,0,1-4.39.72s1.78,1.18.71,1.78c-.23.95,1.78,3.32-.71,3.32-1.3.83-6.29,1.78-9.26,1.31-2.37.11-4.75.59-8.19-2.14-1.07.59-3.56,2.14-6.05,1.07a1.79,1.79,0,0,1,.71-1.55s.83-1.42-5.58-1.9c-1.07-.35-3.32.24-3.09-.83.84-.71,2-2.61,1.78-3.44a3,3,0,0,0-1.18-1.42s.24-1.07.83-1.07-.95-2.26,1.19-5.58C349.88,125.3,349.76,120.91,351.18,119.61Z"/><path id="W_mom_right_arm" data-name="W mom right arm" class="cls-17" d="M399.65,85.88l.4,2s-1.2,6.21-.5,8c.3,1.3-1.5,13.73-3,15.73-.6,1.61-2.1,8.42-4.81,10-1.2,1.51-6.51,6.82-6.51,6.82l-2.71,2s-1.88,1-1.57-1c.88-.65,2.53-1.65,2.53-1.65l-.15-.15S379,130,378.79,130c-.39,0-3.54-.11-.35-2.15a24.47,24.47,0,0,1,4.07-1.92c.5-.15.42-.31.42-.31L376,127.06s-3.3.26-.3-1.66a7.75,7.75,0,0,1,4.49-1.15c.31-.11-.12-.3-.12-.3l-5,1.3s-2-1.07,1.58-2.49c.73-.27,4.68-1.89,5.72-1.69.84-.08,1.76-1.23,1.76-1.23s.89-.81-.69-.2-2.26.66-2.26.66a3.57,3.57,0,0,1-3.19.27c-.5-.2-1.15-1.19,1.77-2.58,1.3-.38,4-.92,4-.92l5-1.11a2.17,2.17,0,0,0,1.54-1.58,34,34,0,0,0,.3-4.17s.31-8.53.58-8.83l1.27-1.45-.8-5.47-1.35-6.75Z"/><g id="W_mom_right_hand_details" data-name="W mom right hand details"><path class="cls-14" d="M379.6,118.92s.27.91.11,1.06a4.54,4.54,0,0,1-1.17.31s-.76-.08-.49-.53C378.12,119.38,378.39,118.88,379.6,118.92Z"/><path class="cls-14" d="M376.26,124s.27.78.12.91a5.1,5.1,0,0,1-1.18.26s-.76-.07-.49-.46C374.79,124.36,375.05,123.93,376.26,124Z"/><path class="cls-14" d="M376.07,125.75s.27.78.12.91a5.1,5.1,0,0,1-1.18.26s-.76-.06-.49-.45C374.6,126.14,374.86,125.72,376.07,125.75Z"/><path class="cls-14" d="M379,128.67s.27.78.12.91a5.1,5.1,0,0,1-1.18.26s-.76-.06-.49-.45C377.52,129.06,377.78,128.64,379,128.67Z"/><path class="cls-14" d="M382.49,129.62s.25.63.11.73a5.14,5.14,0,0,1-1.11.21s-.72-.05-.47-.37C381.09,129.93,381.34,129.59,382.49,129.62Z"/><path class="cls-14" d="M380.85,123.59a12.3,12.3,0,0,1,3.19-.35"/><path class="cls-14" d="M386.58,122c.15,0,2.69-1.51,3.07-1.4"/><path class="cls-14" d="M379.71,122.37s1,.53.54,1"/><path class="cls-14" d="M380.81,124.53s.46.53.23.88"/><path class="cls-14" d="M384.68,121.65s.68.57.46.8"/><path class="cls-14" d="M386,123.7s.53.72.38.91"/><path class="cls-14" d="M387.68,123.4a7.07,7.07,0,0,0,2-1.22"/><path class="cls-14" d="M381.58,118.23s.52.52.41.87"/><path class="cls-14" d="M382.63,126.6s1,.53.75.76"/><path class="cls-14" d="M384.26,127.94s.58.18.4.35"/><path class="cls-14" d="M391.76,118.93s2-1.52,2.09-2.62"/></g><path id="W_mom_shirt" data-name="W mom shirt" class="cls-24" d="M352.86,92.79l-2-2.13s-1-4.59-3.25-5.15c1-1.12,2.46-2.68,2.46-2.68l1.57-6.72s.22-15.46,9.63-15.35c3.36-.44,6.05-.89,6.05-.89l2.24-4.15,15.12-.22.33.67s1.12-.56,1.46,1.46l1.79,1.57s4.93,1.9,5.37,2.46c.9.11,6.28.9,7.06,5.38,1.23,3.69,1.9,5,2.24,6.27.11,1.45-.45,4.25,0,5.37-.11,1.57-.22,3.7-.56,4.26a8.32,8.32,0,0,1,.9,2.57s-5.27,3.7-6.72,7.73c.11,1.9-3,5.82-7.28,4.26l-6.83.33H359.58s-3.25-4.7-2.69-5.15A28.18,28.18,0,0,1,352.86,92.79Z"/><path id="W_mom_shirt_shadow" data-name="W mom shirt shadow" class="cls-25" d="M349.38,86.86l1.47,3.8,2,2.13,4-.11.37-1.48S351.4,90,349.38,86.86Z"/><path id="W_mom_shirt_pocket" data-name="W mom shirt pocket" class="cls-26" d="M385.12,75.35s10.8,2.83,12.21,6.86C396.83,85,393,96,393,96s-.3,1.08-1.92.34-7.77-2.46-8.48-2.26C382.49,92.71,383,77.37,385.12,75.35Z"/><g id="W_mom_shirt_details" data-name="W mom shirt details"><path class="cls-14" d="M379.4,58.59s.77,4,2.28,2.73A34.85,34.85,0,0,0,387.24,60l1-.81"/><path class="cls-14" d="M373.21,61.22s2.32.91,3,0a16.22,16.22,0,0,0,1.48-2.63"/><path class="cls-14" d="M364.52,72.12s-.4,5.95.91,5.95"/><path class="cls-14" d="M365.33,79.79s-3.43,7.47-2.93,8.78"/><path class="cls-14" d="M359.48,73.83s-2.22,15.35-1.82,16.36"/><path class="cls-14" d="M361.19,63.34s.31,7-1.21,9.18"/><path class="cls-14" d="M350.49,85s5.05,4.14,6.56,4"/><path class="cls-14" d="M379.36,65.25s.31,9.29,0,10.6"/><path class="cls-14" d="M379.26,79.69s-.6,9.29-1.21,9.89"/><path class="cls-14" d="M378.35,59.8a1.14,1.14,0,0,0-.2,1.52"/><path class="cls-14" d="M393.8,82.82s1.21,3.23,1.51,3"/><path class="cls-14" d="M385.32,78.28s10,3,10.6,5.14"/><path class="cls-14" d="M400.46,68.69s-3.33,12-2.72,13.52"/><path class="cls-14" d="M401.57,72.32a22.19,22.19,0,0,1-1.51,2.22"/><path class="cls-14" d="M402.38,75.05s-1.62,3.13-2.42,3.43"/><path class="cls-14" d="M402.08,80.19s-.41,2-1.11,2.43"/><path class="cls-14" d="M400.86,81s-4.34,4-4.54,7.17"/><path class="cls-14" d="M396.93,65.15s-1.52,6.06-1,7.07"/><path class="cls-14" d="M392.69,84.74s.7,2.22,1.31,2.62"/></g><path id="W_girl_hair" data-name="W girl hair" class="cls-27" d="M355.62,117s.52,4.74-.53,5.18c-.53,1.31-2.63,7.37-4.13,7.55-2.1,1.4-2.37,3-3.07,2.81s.79-5.27,1.14-7.2,3.16-14.49,3.78-14c-.71-1.66-.62-5,0-5.09.79-2,.17-5.62.79-5.36.52-1.66-.88-3.16,1.23-3.42.26-1.14.08-5,2-4.57.88-1.23,6.94-5.44,9.75-3.86.79-.18,7.11-2.11,9.39,2.28,1,1.14,2,3.6,1.58,4.66a5.32,5.32,0,0,1,1,5.35c.79,1.76,3.07,1.32,2.37,5.54-.09,1.4,1,2.28-.53,3.51.44,1.4,2.55,3.86,1.67,5.53a19.63,19.63,0,0,0-.52,3.34l-4.83-2.45s-1.41-1.59-2-1.42-9,1.32-9,1.32l-7.47-.17Z"/><path id="W_mom_hair" data-name="W mom hair" class="cls-28" d="M371.55,56.7s5.54,7.33.13,8.35a3.36,3.36,0,0,1-2.11,1.21,3,3,0,0,1-3.25.89c-.95.13,2.87-.32,2.55-1.46.19-.64-.19-2.55-.83-2.87.07,1-.44,3.57-1.59,3.82a2.44,2.44,0,0,1-1.15.58s2.43-2.3,1.85-3.57c-1.08-.51-4.52-2-4.27-3.06.26-.83,2.36-4.14,3.13-4a23.81,23.81,0,0,1,.89-5.36s-1.85-.89-1.66-5.54c.51-4.14,4.08-14.53,4.08-14.53s3.31-6.31,7.58-6.5a22.58,22.58,0,0,1,5.16.13s2.94-2,5,.51a21.84,21.84,0,0,1,5.41,11.79,59.82,59.82,0,0,1,1.15,9.24c.19.64,1.91,4.65-.32,6.37-.25.51-.19,2.68.51,2.87s4.72,4.78,3,6.88a31.48,31.48,0,0,0-3.23-.84l-5.37-2.46-1.79-1.57s-.31-1.79-1.46-1.46S371.55,56.7,371.55,56.7Z"/><path id="W_mom_head" data-name="W mom head" class="cls-17" d="M371.63,56.5s2.37-3.56,1.68-5.14c-.49-1.19-2-6.83-1.68-8.61-.1-1.68.89-7.32,2.28-8.9.49-1.18,3.26-4.55,5.34-5,1.28-.1,6.52-1.58,7.91,4.65.79,1.48,1.68,7.71,1.28,8.4a3.94,3.94,0,0,1-.29,3.46c-.8.2-1.19,4.85-2.38,4.85-.39.89-1.24,5.08-.77,6,.18.27-.05.59-.6.74a26.39,26.39,0,0,1-4.85,1.29,3.56,3.56,0,0,0-.15.39h-1.69a4,4,0,0,0-2.19-.58C374.9,57.81,371.85,57,371.63,56.5Z"/><g id="W_mom_head_details" data-name="W mom head details"><g id="W_mom_head_details-2" data-name="W mom head details"><path class="cls-14" d="M373.54,38.94s1.36-1.35,2.71-.62A9.59,9.59,0,0,1,378,39.45S374.9,40.86,373.54,38.94Z"/><path class="cls-14" d="M381.44,39.51a3.09,3.09,0,0,1,2.94-1.19c.84.4,2,1.3,1.07,1.41S382.46,40.18,381.44,39.51Z"/><path class="cls-14" d="M373,37.36s1.92-.79,2.88-.22c.62,0,2.25.28,2.25.28s.46-.51-.56-.68a5.36,5.36,0,0,0-3.61-.22C372.42,37.14,373,37.36,373,37.36Z"/><path class="cls-14" d="M386.63,37.53s-1.92-.79-2.87-.22c-.63,0-2.26.28-2.26.28s-.45-.51.56-.68a5.37,5.37,0,0,1,3.61-.22C387.2,37.31,386.63,37.53,386.63,37.53Z"/><path class="cls-14" d="M377.21,44.36s1.41-.11,1.47.45"/><path class="cls-14" d="M380.6,44.76s.11-.46.67-.29"/><path class="cls-14" d="M378.4,41.09s-.34,2.31-.74,2.48"/><path class="cls-14" d="M374.62,46.45A2.82,2.82,0,0,1,376.2,44c.45-.51,1.24-1.07,1.46-1.8"/><path class="cls-14" d="M382.35,43.91s1.46,2.26,1.75,2.26"/><path class="cls-14" d="M375.35,46.5a7.08,7.08,0,0,1,3.95-.56c.79,0,3.1-.06,3.72.51l.29.28s-1.7,2.76-4.12,2.6C378.4,49.27,375.86,48.7,375.35,46.5Z"/><path class="cls-14" d="M387.71,42.55a5.77,5.77,0,0,0-.23,1.87"/><path class="cls-14" d="M388.27,43.34c.06.34-.22.68,0,.79"/><path class="cls-14" d="M378.56,39.08a6.51,6.51,0,0,1,.06,1.22"/></g><path class="cls-14" d="M374.09,51.87s6.69,4.06,10.48-.57"/><path class="cls-14" d="M374.28,48.79s1.35,3.79,2.77,3.6"/></g><g id="W_girl_left_arm_details" data-name="W girl left arm details"><path class="cls-14" d="M351.9,173.93s-1.18-.09-1-1.51"/><path class="cls-14" d="M350.78,171.81s1.36,0,1.39,2.43"/><path class="cls-14" d="M352.6,174.88l.76-.46s.7-.3.33.79C353.48,175.6,353.39,176,352.6,174.88Z"/><path class="cls-14" d="M350.29,174.78s.06,1.16.82.64"/><path class="cls-14" d="M352.48,172.9s.7.76.85-.09"/></g><g id="w_girl_right_arm_details" data-name="w girl right arm details"><path class="cls-14" d="M383.36,168.11s1.38,3.68,1.7,3.62"/><path class="cls-14" d="M385.31,171.38s.53,7.32,1.73,4.4a45.58,45.58,0,0,0,.5-5.18"/><path class="cls-14" d="M387.26,174.78s.31,2.86-3.84,2.67c0,0-.46.41-.08.8"/><path class="cls-14" d="M386.13,175.09,387,175s0,1-.35,1.1S386.16,176.32,386.13,175.09Z"/><path class="cls-14" d="M387.32,174.05s.76-.12.85,0"/><path class="cls-14" d="M387.16,175.66s.19-.26.63,0"/><path class="cls-14" d="M383.68,173.83s.75.57,1,.44"/><path class="cls-14" d="M383.39,172.29s.85.29,1,.07"/><path class="cls-14" d="M382.54,175.59s.73.85,1,.82"/><path class="cls-14" d="M388.14,176s-.44.41-.25.66"/><path class="cls-14" d="M384.86,178.39s0-.68-.24-.72"/><path class="cls-14" d="M379.7,143s3,.83,3.75.38"/></g><g id="W_girl_shirt_details" data-name="W girl shirt details"><path class="cls-14" d="M358.44,127.57s12.48,1.25,17.63-1.09"/><path class="cls-14" d="M351,131.71l-.08,5.15s.62,3.28-1.87,1.17"/><path class="cls-14" d="M348.3,140.45a2.79,2.79,0,0,0,2.49-1.33"/><path class="cls-14" d="M379.66,139s4.29-2.73,5.15-4.52"/><path class="cls-14" d="M385,131.48s.08-1.49,1-1.56"/><path class="cls-14" d="M355.47,129.52s-.23,2.19.32,2.19"/><path class="cls-14" d="M354.85,134.6s1-.39,1-2.27"/><path class="cls-14" d="M355,135.45a6.85,6.85,0,0,1,.78,2.27"/><path class="cls-14" d="M360.39,130.23s-.55,6.16-.39,7.17"/><path class="cls-14" d="M364.45,131.16s-.94,5.85-.16,7.42"/><path class="cls-14" d="M374.12,131.4s.78,6.55,1.4,7.33"/><path class="cls-14" d="M378.26,130.54s-.63,5.54-.16,6.4"/><path class="cls-14" d="M377.94,138.11s-1.25,2.42-.7,3.51"/><path class="cls-14" d="M377.94,143.26c.24-1.17-.62-1.1-.62-1.1"/></g><g id="W_girl_skirt_details" data-name="W girl skirt details"><path class="cls-14" d="M355.14,149.35s-1.9,10-2.31,10.23"/><path class="cls-14" d="M358.52,150.17s-.25,27.73.49,29.05"/><path class="cls-14" d="M357,146.87a29,29,0,0,0-.24,3.38"/><path class="cls-14" d="M358.6,146.54a35.13,35.13,0,0,0-.49,3.71"/><path class="cls-14" d="M357,151.24s.25,28.72.5,29.3"/><path class="cls-14" d="M376.26,147a11,11,0,0,1,.09,2.88"/><path class="cls-14" d="M377.25,146.71a16.91,16.91,0,0,1,.17,3"/><path class="cls-14" d="M376.18,151.9s-.82,26-2.48,27.16"/><path class="cls-14" d="M377.5,152.07s-.82,24.1-2.06,26"/><path class="cls-14" d="M342.51,181s4-.08,4.7.33"/><path class="cls-14" d="M348.78,175.26s-.58,5-.49,5.36"/><path class="cls-14" d="M348.62,181s3.38-.17,3.88.49"/><path class="cls-14" d="M354.23,181.28s2.89-.41,4,0"/><path class="cls-14" d="M359.84,181.12s5.86-1.57,7.59-.58"/><path class="cls-14" d="M371,180.21s1.57-.58,2.15-.25"/><path class="cls-14" d="M374.61,179.39s8,.41,8.75.24"/><line class="cls-14" x1="365.45" y1="150.91" x2="367.43" y2="178.15"/><path class="cls-14" d="M359.51,149.1s5.86.49,6.19.41"/><path class="cls-14" d="M369,148.85s5.86.25,6.19-.16"/><path class="cls-14" d="M369.5,150.91s2.14,25.26,1.81,26.17"/><path class="cls-14" d="M346.88,162.8s-1.81,17.16-2.23,17.25"/></g><path id="W_dad_hand" data-name="W dad hand" class="cls-17" d="M351.48,75.79s-3-2.11-2.34-3.7c-.15-1.13-.45-2.18-.22-2.26-.3-.9-.45-1.2-.15-1.5-.08-.61-.68-3.25.53-3.7S353,63.2,353,63.2L354.5,62s2-5.88,4-2.34a4.74,4.74,0,0,1-.68,1.88l-1.88,1.28s5.8.53,4.37,2.26c0,.61,1.88,2.34-2.11,2.42,1.2.3,3.31,1.35.22,2.33-.9.3,1,2.26-2.41,2.87C355.25,73.22,351.86,74.13,351.48,75.79Z"/><g id="W_dad_hand_details" data-name="W dad hand details"><path class="cls-14" d="M355,61.65a1,1,0,0,0,1.27.57"/><path class="cls-14" d="M351.67,66.3s1.27-1.18,6.53-.92"/><path class="cls-14" d="M359.75,63.93s-1.28-.26-1.19.53c.18.44.09.57,1.54.61C360.45,64.72,360.67,64.11,359.75,63.93Z"/><path class="cls-14" d="M360,65.83s-1.28-.27-1.19.52c.18.44.09.57,1.54.62C360.71,66.62,360.93,66,360,65.83Z"/><path class="cls-14" d="M359.34,68.24s-1.08-.19-1,.47c.16.37.09.48,1.32.48C360,68.89,360.12,68.36,359.34,68.24Z"/><path class="cls-14" d="M357.44,70.9s-.95,0-.79.52c.18.3.13.41,1.18.26C358,71.38,358.12,70.91,357.44,70.9Z"/><path class="cls-14" d="M350.8,69.2a9.16,9.16,0,0,1,4.23-1c.84-.1,2.8-.42,2.8-.42"/><path class="cls-14" d="M350.9,72a9,9,0,0,1,3.4-1c.66-.24,2.51-1.12,3.25-.84"/><path class="cls-14" d="M349.09,65.46s.42,1,.1,1.29"/><path class="cls-14" d="M349.47,68a3.2,3.2,0,0,1,.18,1.19"/><path class="cls-14" d="M349.93,73s.45.45.38.8"/><path class="cls-14" d="M353.39,63.57s-.18.87.17,1"/><path class="cls-14" d="M353.84,66.47a.5.5,0,0,0-.17.81"/><path class="cls-14" d="M353,69.2s-.28.94.28,1.08"/><path class="cls-14" d="M352.9,72.35s-.14.94.17.94"/></g><path id="W_girl_head" data-name="W girl head" class="cls-21" d="M355.61,117.32s4.2-3.15,5-3.15a2.79,2.79,0,0,0,.84-3c-.42-1.47-1.16-3.57-1.16-3.57s-5.25-4.83-2.52-4.83c1.85-3,.09-11.07,9.14-8.26,1.05,0,7-1.93,7.46,1,.62,1.32,1.67,4.13,1.32,6.24.79-.44,2.28-2.37,1.93-.18-.35,1-1.32,4.48-2.37,4.66-.26.7-.7,4.39-1.84,5-.27.88-1.41,3.51.17,3.87s1.06.43,1.06.43.35,6.15-5,8.44c-1.41.52-6.94,2.1-11.07-2.64C356.58,118.79,355.61,117.32,355.61,117.32Z"/><g id="W_girl_face_details" data-name="W girl face details"><path class="cls-14" d="M362.27,103.83s1.61-1.44,3-.69c.29.4,1.38,1.26-.34,1.49C364.05,104.63,362.1,104.35,362.27,103.83Z"/><path class="cls-14" d="M373.42,103.24s-1.61-1.44-3-.69c-.29.4-1.38,1.26.34,1.49C371.63,104,373.59,103.76,373.42,103.24Z"/><path class="cls-14" d="M360.94,102.6a4.68,4.68,0,0,1,3-.59c.85.06,1.71.19,1.71.19s.92-.59-.46-.85c-1.45-.07-3.16-.07-3.48.33S360.74,102.4,360.94,102.6Z"/><path class="cls-14" d="M374.41,102a4.65,4.65,0,0,0-3-.6c-.85.07-1.71.2-1.71.2s-.92-.59.46-.85c1.45-.07,3.16-.07,3.49.32S374.61,101.81,374.41,102Z"/><path class="cls-14" d="M366.66,106.48s-1,.26-.33,1.38"/><path class="cls-14" d="M366.66,108.05s.52-.19.72,0"/><path class="cls-14" d="M369,107.72a1.84,1.84,0,0,1,1.05-.19"/><path class="cls-14" d="M365,107.4s-2.56,2.1-.85,3.09"/><path class="cls-14" d="M371.13,107.2s2.23,1.51,1.18,2.3"/><path class="cls-14" d="M364.75,109.63a22.53,22.53,0,0,1,3.61-.39,13.59,13.59,0,0,1,3.16-.27c.39.2-1.31,2.76-2.83,2.7C367.84,111.73,366.33,111.93,364.75,109.63Z"/><path class="cls-14" d="M375.6,102.66s1.38.59.06,2.11"/><path class="cls-14" d="M375.33,103.25s0,1.45-.06,1.71"/><path class="cls-14" d="M358.24,103.71a9.45,9.45,0,0,1,1.51,2"/><path class="cls-14" d="M361.92,111.27l3.95,2.9a4.23,4.23,0,0,0,3.94.33,15.68,15.68,0,0,0,3.64-3.35"/></g><path id="W_mom_left_arm" data-name="W mom left arm" class="cls-17" d="M352.86,92.79s-3.91,12-3,16.08c-.06,1.32-1.32,6.87-1.14,7.37-.37.82-3.84,5.1-2.39,5.42-.57.38-1.07,1.19.5,2,.19.38.07.89.45,1.07-.07.38-.13,1.45.31,1.83-.23.35-.68,1.44.14,2,.21.29,1.57,2.23,2.71,2a1,1,0,0,0-.08-1.52c-.19-.29,2.36.06,2.36.06s3.42.21,1.27-1.78a5.79,5.79,0,0,0-1.78-.32l1.3-.16,1.46.08s3,0,1-1.88l-2.63,0,3-.08s2.12-1.3-2.07-1.83c-1.09-.13-2.47-.26-2.94-.85s-1.57-1.69-1.57-1.69-.13-.69.69-.61.69-.11.69-.11,1,2.57,1.38,2.65,1.75.88,2.36.06a13.54,13.54,0,0,0-1.11-4c.05-.13-.32-3.31-1.57-3.34a15.86,15.86,0,0,1,.16-3l.4-.91s-.95-4.54.12-5.11c.19-.53.82-4.12.55-5.07a4.33,4.33,0,0,0,.24-2.6c.15-.71.68-1.23,1.23-1.11C355,96,355,93.36,356.36,93l.43-.24Z"/><g id="W_mom_left_hand_details" data-name="W mom left hand details"><path class="cls-14" d="M352.42,121.59s.91-.85,1.62-.15c.18.55.3,1.16-.19,1.13C353.52,122.57,352.69,122.81,352.42,121.59Z"/><path class="cls-14" d="M354.83,124.58s1.16-.7,1.58-.33c.16.15.22.73-1.46.61C354.8,124.61,354.83,124.58,354.83,124.58Z"/><path class="cls-14" d="M354.56,126.27s1.24-.75,1.7-.36c.16.16.23.78-1.57.65C354.52,126.3,354.56,126.27,354.56,126.27Z"/><path class="cls-14" d="M352.45,128.44s1.35-.82,1.85-.39c.18.17.25.85-1.71.71C352.42,128.47,352.45,128.44,352.45,128.44Z"/><path class="cls-14" d="M349,129.7s1.2-.26,1.46.18c.09.17,0,.69-1.43.09C348.93,129.71,349,129.7,349,129.7Z"/><path class="cls-14" d="M347.78,122.84l1.86,1.37a5.24,5.24,0,0,0,2.84.65"/><path class="cls-14" d="M348.67,118.6s.7.86,1,.77"/><path class="cls-14" d="M348.51,119.61s.77.58,1.07.49"/><path class="cls-14" d="M347.81,125.13l1.56,1.25a5.87,5.87,0,0,0,1.92.49"/><path class="cls-14" d="M347.78,127.3a3.52,3.52,0,0,0,2,1.15"/><path class="cls-14" d="M352,119.39s.39-1.3,1.31-.35"/><path class="cls-14" d="M350.12,123.56s-.32-.92.49-.77"/><path class="cls-14" d="M349.69,126.07s-.07-.85.5-.81"/><path class="cls-14" d="M350.08,128s-.35-.78.32-.71"/><path class="cls-14" d="M347.54,127.91s-.29-.53.35-.14"/></g></g><g class="cls-29"><circle class="cls-30" cx="116.52" cy="216.96" r="101.6"/><path id="Mom_left_leg" data-name="Mom left leg" class="cls-31" d="M135.49,284.84l10.21.11-.9,2s-.39,6.18-.93,7,3.44,4.73,3.66,11.61c.32,2.58,1.07,7.41-.54,10.53,0,1.83-.11,7.1-.11,7.1l-9.14.1s-3.76-13-3.54-13.65S135.49,284.84,135.49,284.84Z"/><path id="Dad_left_leg" data-name="Dad left leg" class="cls-32" d="M111.67,279.06l.09,2.52s-.9,4.4,0,5c.09.63,2.07,9,1.62,12.78,0,1.35-1.44,6.75-2.7,7.83a9.86,9.86,0,0,0-.45,2.43l-.29,3.45-.56,5.63-.44,4.47h-4.47l-3.93-9.09L96.31,284.3l-.73-4.72Z"/><path id="Dad_right_leg" data-name="Dad right leg" class="cls-32" d="M118.71,279.74l1.54,3.42s1.71,3.91,1.55,5.62a8.71,8.71,0,0,1,.24,2.37c-.08.49-1,6.46-.75,8.14-.07.88.51,6,1.32,7.6.36,1.1,1.24,4.39,1,5.26a7.58,7.58,0,0,0-.17,1.9l.73,4.42,2,4.78h6.24l1.45-11,.25-3.09,3.33-14.24-1.33-16.54Z"/><path id="Dad_shorts" data-name="Dad shorts" class="cls-33" d="M90.52,231.9l.63,2.52.09,3.51.27,44,5.4,1.26,2.25-.27s12-.81,12.6-1.35a9.45,9.45,0,0,0,1,.09s.9-6.93,1.26-7.11a26.65,26.65,0,0,1,.36,7c.63.63,1.8,1.53,1.8,1.53s10.44.44,12.32-.36c1.89,0,9.81.36,9.81.36l-1.08-54.27Z"/><path id="Asian_Dad_Body_Outline" data-name="Asian Dad Body Outline" class="cls-32" d="M86.83,233.35l6.41-17.89a15.89,15.89,0,0,0,1.2-6.41c.27-2.14.67-6.54.67-6.54l-4-.67s-1.47-1.07-4.94-.4L84,200.77s-2.41-4.81-1.87-6a11.91,11.91,0,0,1-.14-1.6s-2.67-.93.4-5.34c.27-2.4,2.94-12.15,4.54-12.55.27-2.27.54-5.74.54-5.74L89.37,167l1.46-3.07.14-1.47s5.74-4.54,8.14-4.14a26.56,26.56,0,0,1,4.28-.4s3.33-2.94,4.4-2.54c1.2-1.6.4-1.47,2.81-3.33.53-.27.4-2.81.4-2.81s-3.34-3.74-2.81-6.81a19.3,19.3,0,0,0,0-3.41s-.54-.39-.23-2.53c-.16-.61-.69-1.3.07-2.22-.15-.69-.23-3.68-.23-3.68s-.76-.84.08-3.68a9.22,9.22,0,0,1,3.75-5.29c2.3-1.3,3.22-1.91,6.75-1.76a11,11,0,0,1,5.67,1.23,23.54,23.54,0,0,1,5.28,4.29,6.16,6.16,0,0,1,.46,1.53,11.75,11.75,0,0,1,.39,3.07c-.08,1.37-.31,4.82-.31,4.82s.92.85,0,3.45c.15,1.15.08,3.68-1.69,4.21l-.46.16s-.61,3.6-1.37,4.14a3,3,0,0,1-1.15,2.29l.84-.38.15,2.61,2-1,2.81,4.39s5.49,2.69,5.85,3.66c1.1.61,5.74,4.76,5.74,4.76l4.39,5.73.61,23.18.49,29.65-.09,8.34Z"/><path id="Dad_shirt_top" data-name="Dad shirt top" class="cls-34" d="M82,193.16s-2.61-.86.4-5.34c.63-2.31,2.59-11.5,4.54-12.55a55.07,55.07,0,0,0,.54-5.74s3.3-4.61,3.33-5.61l0-1s4.12-3.8,6.62-4.45c2.07-.22,5.43-.44,5.43-.44s3.66-2.71,4.87-2.66c.78-1,2.12-3.36,2.81-3.33s-.4,6.65.47,6.86l.54,1.31.32,1.62.55,4.13.21,2.72s4.78-6.3,6.41-6.41a3.29,3.29,0,0,1,1.2-.44l-.11-2.71.32-.76s-2.93-3.15.87-3h1.52s2.36-4.31,3.24-4a13.58,13.58,0,0,0,2-1l2.81,4.39,4.35,2.54,7.24,5.88.8,1.06.65,16.94s-8,12.17-8.58,12.06c-.76-2.5-1.63-4-2.82-5-.76-.76-1.09-2.6-7.17-2.82-.65.11-8.15,1.3-9.12,1.41s-9.67-.54-9.67-.54l-5.1-.33-5.65.44a10.38,10.38,0,0,0-3.09,2.86c-2.66-.67-6.74-3.42-9.78-1.43C82.23,188.65,82,193.16,82,193.16Z"/><path id="Dad_shirt_botttom" data-name="Dad shirt botttom" class="cls-34" d="M95.11,202.51l-.67,6.54-.15,3.06-1.05,3.35,1.14.74S97,215.91,97,218c1,.86,4.08,2,4,5.42.57,1.33,5.22,9.12-2.47,8.83-.19.1-1,1.52-2,1.39a2.47,2.47,0,0,1-2.81,1.07l0,.42a5,5,0,0,0,2.51-.21c.86,0,5.8.81,7,.51,1.58.34,5.25,1.15,6.82.47,2-.11,4.62,0,6.36-.74,1.43-.32,7.72-.11,9.2-.79,1.17,0,7.57-.16,7.57-.16l.7.09a6.31,6.31,0,0,1,1-2.85c.26-1.27.7-5.4.7-5.4s.26-4.76.76-5.46l.39-.76-.2-4-.11-.61s-4-.81-4.67-1c-.53-.16-5.37-1.77-5.85-2s-.64-3.6.48-4.94c.32-1.24,3.44-7.2,3.44-7.2l1.13-1.85a24.36,24.36,0,0,1-4.94.62,13,13,0,0,1-9.28.51c-1,.41-12.27,3.09-14,3.09S95.11,202.51,95.11,202.51Z"/><path id="Dad_right_sock" data-name="Dad right sock" class="cls-35" d="M123.63,312.15l10.06-.26.11.64a7.85,7.85,0,0,1,0,1.85c-.14.29-.21,2.11-.28,2.29s-.32,2.39-.36,2.49-.25,2.15-.32,2.29a15.47,15.47,0,0,0-.18,1.57l-.07.35-8.13-.21s-.5-1.46-.25-1.53-.07-2.36,0-2.39-.53-2.07-.5-2.68-.6-2.67-.5-3,0-1.61.11-1.61S123.63,312.15,123.63,312.15Z"/><path id="Dad_right_sock-2" data-name="Dad right sock" class="cls-35" d="M100.38,312.15l10.06-.26.11.64a8.44,8.44,0,0,1,0,1.85c-.14.29-.21,2.11-.28,2.29s-.33,2.39-.36,2.49-.25,2.15-.32,2.29a15.47,15.47,0,0,0-.18,1.57l-.07.35-8.14-.21s-.5-1.46-.25-1.53-.07-2.36,0-2.39-.53-2.07-.5-2.68-.61-2.67-.5-3,0-1.61.11-1.61S100.38,312.15,100.38,312.15Z"/><path id="Dad_shorts_crotch" data-name="Dad shorts crotch" class="cls-36" d="M108.39,244.44s1.53,11.49,2,11.57c.4,1.13.72,11.5.72,11.5l.25,10.52.56,3.3.48.32,1.6-7.09-.39-13.81S108.31,246.13,108.39,244.44Z"/><path class="cls-37" d="M109.28,256.66s-5.39,3.21-6.35,3.29"/><path class="cls-37" d="M109.2,261.8c-.73.48-4,4-5.07,4.18"/><line class="cls-37" x1="110.16" y1="264.29" x2="109.12" y2="265.09"/><path class="cls-37" d="M109.84,271.84c-.72,1-4.74,5.55-6.19,6"/><path id="Dad_arms" data-name="Dad arms" class="cls-32" d="M83,187.7s2.44-2.28,9.78,1.43a23.69,23.69,0,0,1,2.75-2.65l4.2-.45a20.09,20.09,0,0,1,5.89.23c1.61,0,8.65.38,8.65.38s3,0,3.9-.16,9-1.91,10.78-.76,2.14-.31,4.44,3.29a26.59,26.59,0,0,1,2,4.1l-4.51,5.06s-4,.63-4.69.63a14.12,14.12,0,0,1-9.53.5c-1.56.49-11.66,2.79-12,2.79a42.71,42.71,0,0,1-5.82.38c-1.6-.08-6.5-.08-6.88-.31a8.19,8.19,0,0,0-5.84-.72c-1.27-.42-2.5,0-3.57-3.87C82.06,195.2,81.39,188.46,83,187.7Z"/><path class="cls-37" d="M93.45,189.54s3.75,1.46,4.74,2.53a17.52,17.52,0,0,1,7.42,2.22,70.4,70.4,0,0,1,7.27,3.67,19.07,19.07,0,0,1,2.45,1.68"/><path class="cls-37" d="M91.54,199.1s13.46,2.14,17.9-1.14"/><path class="cls-37" d="M98.88,189.47s2.76,1.22,2.91,2"/><path class="cls-37" d="M115.63,193.21s8.72,3.83,8.72,4.67"/><path class="cls-37" d="M116.24,196.35s4.9,2.14,6.81,1.53"/><path class="cls-37" d="M95.14,194.13s7.49.92,8.26.23"/><path class="cls-37" d="M128.45,137.31s.78-1.56,1-.71"/><path class="cls-37" d="M128.14,138.32s2,.62.31,2.11"/><path class="cls-37" d="M109.82,133.74A1.34,1.34,0,0,1,111,132.3a5.18,5.18,0,0,1,3-.42c.42.1.45.33.45.33l0,.49a17.5,17.5,0,0,1-2.6.52A5.39,5.39,0,0,1,109.82,133.74Z"/><path class="cls-37" d="M124.07,133.82a1.33,1.33,0,0,0-1.14-1.43,5.06,5.06,0,0,0-3-.42c-.42.09-.45.32-.45.32l0,.49a17.68,17.68,0,0,0,2.61.52A5.2,5.2,0,0,0,124.07,133.82Z"/><path class="cls-37" d="M110.07,135.33l1.1-.49s2-1.21,3.29-.36c.21.29,0,.82-.21.85a9.06,9.06,0,0,1-3.12.11A8.71,8.71,0,0,1,110.07,135.33Z"/><path class="cls-37" d="M119.19,134.9s1-1.05,3.09,0l1.2.58a12.52,12.52,0,0,1-3.5.15l-1.15-.26S119,134.9,119.19,134.9Z"/><path class="cls-37" d="M116,135.16a20.42,20.42,0,0,0-1,2.82c0,.42-1.46,1.94-.52,2.2s.94,0,.94,0"/><path class="cls-37" d="M117.31,140.54c.37,0,.31-.78,1.1,0"/><path class="cls-37" d="M109.68,142.74a45.93,45.93,0,0,1,2.19,4.13c.21.73,1.41,4.5,3.09,4.23"/><path class="cls-37" d="M123.79,143.11s-3.71,8.41-6.11,8.15"/><path class="cls-37" d="M112,142.69s3-1,4.08-.26c.57,0,2.56-.63,3.76.52l.89.47a2.25,2.25,0,0,1-1.67,1.88c-.94-.1-2.51-.31-2.51-.31a11.75,11.75,0,0,0-2.15.15C113.6,144.73,111.77,143.11,112,142.69Z"/><path class="cls-37" d="M117.94,134.5s.43,3.07,1.34,3.07"/><path class="cls-37" d="M120.62,140.4s1.87,1.54,1.73,2.16"/><path id="Dad_Hair" data-name="Dad Hair" class="cls-38" d="M108,134.26l-.16-3.55s-1.4-2.25,1-6.08c1.32-1.78,3.45-4.8,7.57-4.72s3.45-.64,8.59,1.7l3,2.47a6.29,6.29,0,0,1,2.17,5.27c-.13,1.7-.34,5.1-.34,5.1s-2.09,1.79-2.09,2.38a37.82,37.82,0,0,1-.17-4.67s-2.08-.81-1.74-5.32a8.41,8.41,0,0,0-5.44-2.63c-.64.08-2.94.46-4-.17a3.94,3.94,0,0,0-3.23,1.06,8,8,0,0,0-4.38,5.31c0,.94,0,4.09,0,4.09Z"/><path class="cls-37" d="M121,163.13s2.48-3.56,2.69-4.63"/><path class="cls-37" d="M124.19,158.6s2.91,3.45,4.1,1.41,2.69-4.75,2.69-4.75"/><path class="cls-37" d="M103.07,158.93s.32,2.58,1.4,1.18,4.2-4.63,4.2-4.63,2.48,5.93.22,6.68a40.92,40.92,0,0,1,.86,4.31l1.18,3"/><path class="cls-37" d="M114.6,176.28s5.06-11.42,7.87-12.5"/><path class="cls-37" d="M125.7,172.29s2-7.65,4.74-9"/><path class="cls-37" d="M125.48,178.65s1.4-7,3-8"/><path class="cls-37" d="M129.79,170.89s2.81-12,7-10.45"/><path class="cls-37" d="M94.88,186.3s1.5-6,.86-10.13"/><path class="cls-37" d="M95.63,172.83s-.65-5,.32-5.6"/><path class="cls-37" d="M111.46,173.12s.37,1.49-1.12,1.49"/><path class="cls-37" d="M107.84,207.87s1.48,1.13,0,1.55"/><path class="cls-37" d="M107.2,218.75s1.61,1.44-.09,1.36"/><path class="cls-37" d="M111.91,171.8s7.1-7.5,8.55-7.88"/><path id="Mom_left_hair" data-name="Mom left hair" class="cls-39" d="M144,181.05l-2.83,3.89s.82,4.13,3.07,2.48c.59-1.42,1.41-1.18,1.41-1.18s2.36,4.48,3.42,3.3a30.29,30.29,0,0,0-.08-5.91l6.21-3,2.36-6.84L148,152l3.83-4.26,6.66-7.18s-8.84-2.83-14.26,7.67c-.71,2.12-1.07,2.24-1,3.18s0,14.15,0,14.15Z"/><path id="Mom_face_arms" data-name="Mom face arms" class="cls-31" d="M125.83,212.16s-1.08-1.54.48-4.94c.9-1.87,2.09-5.26,2.76-5.85.39-.6,1.31-3.22,1.81-3.2s4.82-5.36,4.82-5.36l2.65-3.45,10.74-6.1s2.92-4.31,5-4.84c.93-1.33.6-1.59,1.6-2.12.13-1.13.13-3.05.13-3.05s-2,.2-2.65-.33-5.51-6.64-5.51-6.64a5.37,5.37,0,0,1-1.39-3.64c-.07-1.46-.73-6.24-.73-6.24s-.27-4.64.86-5.83c.86-1,2.52-3.45,5.37-2.79h1s4,3,4,5.51c.6,1.72,1.79,4.9,1.79,4.9l3.32,6.5.6,3.85-2.79,1.86,6.9,1.12s6.63,4.45,6.83,5,2.3,8.45,2.3,8.45l2.13,7s-2.84,4.58-5,6c-.61,1.32-11,9.66-12.91,10.57-.51.82-4.78,4.07-5.79,4.27s-4.68,1.43-6.1,1-7.42,1-7.63,1.32S129.74,214.56,125.83,212.16Z"/><path id="Mom_shirt_top" data-name="Mom shirt top" class="cls-40" d="M141.13,185.35,138.49,189s-1.73,10-1.22,10.17,1.73,1.93,2.95,1.93a21.89,21.89,0,0,1,4.47.71c2,0,5.49-.1,6.71.61s9-6.71,9-6.71l3.05-4.67s6.4-5.49,11.18-3.66c2,1.93,3.46,3.76,3.25,4.57s-5,6-5,6,3.56.81,4.58.31a12.68,12.68,0,0,1,2.23-.82l.51-5.59s1.12-11.49-3.76-13.62c-3.45-1.53-5.18-2.24-7.32,0-1.52,1.32-12.4,5.89-15.76,5.79a23.26,23.26,0,0,1-4.47-.4S143.47,182.1,141.13,185.35Z"/><path id="Mom_shirt_bottom" data-name="Mom shirt bottom" class="cls-40" d="M136.35,215.22s.36,3.79.31,4.61,3.2,2.08,3.2,2.08,6.24-.81,7.15-.36c1.26-.18,9.76-1.27,11.57-1,1.36-.28,6.06-.37,6.06-.37l2.44-.18s1.63-1.9,1.54-3.25,1.36-6.15,1.36-6.15l5.79-12.21A23.24,23.24,0,0,1,173,198c-.62,1-7.86,7.31-9.21,7.94-.82.64-3.32,2.64-3.7,2.63s-3.09,3.34-5,4-5.6,1.35-5.6,1.35-4.71-.27-7.33.82A12,12,0,0,1,136.35,215.22Z"/><path id="Mom_hand" data-name="Mom hand" class="cls-31" d="M152.12,202.22s3.45-5.17,5.68-5.39c1-.36,1.85-1.56,2.65-1.11s0,1.18-.64,1.54a2.6,2.6,0,0,1-1.58.15s4,.86,2.52,1.43c-.43.44-3.38-.14-3.38-.14l-.51.36s4.25.5,3,1.44a19.2,19.2,0,0,1-3.23.14,2,2,0,0,1-2.45,1.44C153.48,202.15,152.12,202.22,152.12,202.22Z"/><path class="cls-37" d="M137,200.08a4.12,4.12,0,0,0-2.78,4.4"/><path class="cls-37" d="M131.59,204.17s6.95,3,8.26,5"/><path class="cls-37" d="M140.93,209.89s6.06,4.78,8.52,4"/><path class="cls-37" d="M149.05,210.58s1.15,2.55,3.86.77"/><path class="cls-37" d="M128.88,209.81s5.33,2.47,8.81,1.39"/><path id="Mom_right_leg" data-name="Mom right leg" class="cls-31" d="M152.69,283.55v2.69s1.72,11.39,2.47,11.39c.43,1.4-.22,11.07-.22,12.47s.43,13.22.43,13.22l8.17-.1s4.3-16.67,4.41-19.14-.32-10.43-1.83-12.9c0-1.4-.32-8.27-.32-8.27Z"/><path id="Mom_skirt" data-name="Mom skirt" class="cls-41" d="M136.66,219.83s-1.48,10.24-1.95,10.81a12.89,12.89,0,0,0-1.61,3.57c-.11.72-2.11,11.48-2.11,11.48l-2.76,33.25s-.38,4.66.09,5.23a16.86,16.86,0,0,0,1.62,1.53h6.67l4.95.09s-.95,1.62,3.24,1.15c3.53.28,21.53-2.19,21.53-2.19l8.09-1.15s7.84,1,6.26-5.81-7.21-51.45-11.1-53l-1.73-2.88-.77-1.86-7,.33-1.47.22s-9,.46-10.42.82c-1.08.18-5.71-.06-8.3.53l-1.19-.53Z"/><path id="Mom_right_hair" data-name="Mom right hair" class="cls-39" d="M158.47,140.6s5.78-.71,8,4.6c1.06,1.53,4,4.48,4,11.67.36,1.77.47,13.56,2.71,16.75.48.94,2.24,4.36,1.54,5.31s-2.6-2.25-2.6-2.25-8.13,5.08-8.72,6.25a6.45,6.45,0,0,1-.86.45l-.93.87-.56-.87s-1,.67-1.19,1.34c-.41.25-2.47.67-2.72-.06s1.8-15.12,1.8-15.12l-.68-12.21-1.44-4s-.16-2.91-4-5.51a4.45,4.45,0,0,0-1,0Z"/><path class="cls-37" d="M153.23,154.51s-2.11,1-2.11,1.71c.56,0,.08.56,2.23-.63.28-.32,2.27-.32,2.27-.32s1.48-.16.8-.6S153.23,154.51,153.23,154.51Z"/><path class="cls-37" d="M145.58,156.4s2.27.18,2.25.72-1.07.43-2,.43A4.19,4.19,0,0,1,145.58,156.4Z"/><path class="cls-37" d="M148.36,157.8s.59.59.59.84"/><path class="cls-37" d="M145.86,158.6s2.27-.32,2.27.76c-.32.75-2.16.65-2.16.65Z"/><path class="cls-37" d="M152.66,158.21s.43-1.63,3.43-1.11c.6.43-.43,1.11-.43,1.11A3.41,3.41,0,0,1,152.66,158.21Z"/><path class="cls-37" d="M149.22,158s.69.94.6,1.54"/><path class="cls-37" d="M149.56,160.36s-.86,5.93.95,4.73"/><path class="cls-37" d="M151.8,164.92s0-.86,1.37-.43"/><path class="cls-37" d="M154,162.42s1.8,2,2.57,1.89"/><path class="cls-37" d="M154,163.28s0,.86-.26,1"/><path class="cls-37" d="M149.3,166.29a3.83,3.83,0,0,0,.86,1"/><path class="cls-37" d="M150.61,167.36s.89-.63,1.51-.45c.37,0,.5-.53,1.75-.29.77,0,1.91-.17,1.91-.17s-.9,2.12-2.38,2.42a2,2,0,0,1-2-.7A3.33,3.33,0,0,0,150.61,167.36Z"/><path class="cls-37" d="M163.44,188.36s1.3-9.05,8.63-8.62"/><path class="cls-37" d="M162.87,210.64s3.16,5.75,4.6,5.89"/><path class="cls-37" d="M155,218s4.88-.29,7.76,1.15a24.3,24.3,0,0,0,3.45.57"/><path class="cls-37" d="M152.6,188.89a7.22,7.22,0,0,1,3.84-2.82"/><polygon id="Mom_skirt_shadow" data-name="Mom skirt shadow" class="cls-37" points="139.51 232.13 138.09 261 136.87 281.54 136.61 285.7 140.53 285.81 139.51 232.13"/><path class="cls-37" d="M151.3,229.49s2,16.26.61,19.72"/><path class="cls-37" d="M163.5,222a16.22,16.22,0,0,1,0,3.25"/><path class="cls-37" d="M165.13,222.17a11,11,0,0,1,0,2.64"/><path class="cls-37" d="M163.3,227.86s5.89,19.11,5.28,20.54"/><path class="cls-37" d="M150.9,227.05s9.35-.2,10.57-1"/><path class="cls-37" d="M168,225.63a75.14,75.14,0,0,1,2.65,7.52"/><path class="cls-37" d="M134.22,236.2s-1.62,20.74-2,21.75"/><path id="Boy_left_leg" data-name="Boy left leg" class="cls-31" d="M63,308.62l11.59.6-.6,3.86s-.78,8.07-.95,8.76a24.92,24.92,0,0,0-.25,2.92l-10.39.08s-.34-11.16.43-12.7A33.72,33.72,0,0,0,63,308.62Z"/><path id="Boy_left_arm" data-name="Boy left arm" class="cls-31" d="M60.5,240.58h7.32l-.09,1.6a51.34,51.34,0,0,1,.42,6.3c0,1.18-.67,13-.59,14.38.09,1.09,0,6.89,0,6.89s1.26,5.47.68,8.33a29.54,29.54,0,0,1,0,3.95s-1.43,2.27-2.36,2.61a1.05,1.05,0,0,1,.25-1.52,16.89,16.89,0,0,0,.34-3.95l-.59,3.2A11.51,11.51,0,0,1,64.12,284a1.38,1.38,0,0,1-.85-.25s-.25-1,.26-1.17.75-4,.75-4l-.84,2.69-1.09,1.68s-1.77-.25-1.51-.5a7,7,0,0,0,.67-1.43l.5-3.2a12.8,12.8,0,0,1-1.43,2.44,7,7,0,0,0-.42,1.43S58.65,283.29,59,280a14.77,14.77,0,0,1,.84-2.69l.17-4s.42-4.63,1.26-5.05c-.09-1.43-.59-8.32-.42-9.58-.17-1.43-1.26-11.19-.84-15.64C60.08,241,60.5,240.58,60.5,240.58Z"/><path id="Boy_right_leg" data-name="Boy right leg" class="cls-31" d="M85.66,308.11s-.26,8.84.26,10.64c.17.94,1.11,6.09,1.88,6s8.76,0,8.76,0,.85-14-.6-16.91S85.66,308.11,85.66,308.11Z"/><path id="Boy_shorts" data-name="Boy shorts" class="cls-42" d="M66.5,271.34l30.36.48L99,275.7s1.29,14.53.64,17.6c0,1.94.65,9.85.16,10.66v3.88s.49,2.42-4.2,2.58H88.78s-3.55,1.94-4.84-3.07a31.83,31.83,0,0,0-1-4.68l-2.26,9.69s.48,2.26-6,.64c-2.26.17-6.62-1.13-6.62-1.13s-.65,1.62-5.17-1.13c.16-2.26.65-5.49.65-5.49s-1-6,.64-6.94a29.4,29.4,0,0,0,1-6.62l.16-6.79Z"/><path id="Boy_head" data-name="Boy head" class="cls-31" d="M70.54,204.83s5.76-3.46,5.41-4.5A3,3,0,0,0,76,198c-.44-.45-2.75-2.76-2.8-4.24-.25-.3-2.76.3-3.85-1.58-.24-1.33-.79-3.59.59-2.76.64.3,1.63-5.32,1.63-5.32l9.86-4.63,6.5,1.18,2.46,3.45.35,2.66,1.48-.39A3.36,3.36,0,0,1,91.3,190c-.54.69-.1,1.14-1.33.89.1.74.34,3.65-1.68,5.37-.09.74-.14,4.93-.14,4.93L90,204l.2,6-10.06,1.53-10.3-4.83Z"/><path id="Boy_shirt" data-name="Boy shirt" class="cls-43" d="M69.83,243.14s-7.61-1.74-10.95-.94c.67-2.67-.4-.8.81-3.07.13-1.87.8-11.21,1.33-12.82,0-1.6.67-7.07.67-7.07a8.42,8.42,0,0,1,1.6-4.94c1.07-2.14,2.54-4.41,2.54-4.41l3.07-4s.93-3.07,2.8-1.47c1.34.8,2.94,2,2.94,2s4.8,3.2,10.14,2.27a8.28,8.28,0,0,0,3.88-2.4s.66-3.74-.67-5.08c2.94.94,9.88,3.47,12.28,6.95,1.07,2.13,3.87,15,3.87,15s-.93,9.48-2.27,10-2.53,1.07-2.53,1.07,2,13.75,1.6,19.36c0,2.54-.27,21.36-.27,21.36s.27,1.07-4.27,1.47-18.69.67-18.69.67l-9.35-.27v-2.23s-.52-4.39-.84-4.58c0-.19.19-9.69.19-9.69l.26-7.23.19-5.87-.32-4.52Z"/><path id="Boy_hair" data-name="Boy hair" class="cls-44" d="M72.62,192.4s-2-3.2-2.51-3.15c-.44-.2-2.51.59-2.27-3.21-.09-1.77-.39-6.5.94-8.23.69-1.48,2.41-4.19,6.8-6,3.6-.69,7.15-.89,9.86.94,1.38.69,4.18,1.92,6.6,7.29a8.68,8.68,0,0,1,.44,5.47,1.45,1.45,0,0,1-.54.94s0,2.07-1,2.26c-.25.2-.55.89-1.19.74,0-1.08,0-2.36,0-2.36s-.69.19-.59-1.53c-.39-.3-.79-.1-.94-2.07-.14-.49-1.18-.44-1.33-1.38-.24,0-2.12-.44-2.36-.84-.4.4-1,1.28-4.19,1.19-.59,0-1.33.24.15-1-1.28.89-5,3.65-4.34,2.37a13.29,13.29,0,0,1,.74-1.34c-1.43,1.43-3.5,4.64-3.3,3s-1.48.05-1.48.05a14.66,14.66,0,0,0-.39,3.5A32.19,32.19,0,0,0,72.62,192.4Z"/><path class="cls-37" d="M74.21,186.61a2.77,2.77,0,0,1,1.56-.87,9.09,9.09,0,0,0,2.15,0c.34-.12.34-.87-.53-.93s-2.37-.06-2.37-.06l-1,1.05S73.22,186.43,74.21,186.61Z"/><path class="cls-37" d="M85.8,183.3A3.51,3.51,0,0,0,84,184c-.53.52-.76,1.1.69.75a3.72,3.72,0,0,1,2.09-.23,8.8,8.8,0,0,0,1-.23S88.18,183.65,85.8,183.3Z"/><path class="cls-37" d="M74.84,188.06a6.61,6.61,0,0,0,2.79-.12,6.34,6.34,0,0,1,1.33-.23s.12-1.39-2.55-.81C75.6,187.24,74.79,187.59,74.84,188.06Z"/><path class="cls-37" d="M83.48,187s0-1.4,2.15-1.4c.75-.05,3.13.29,1.16.87A6.69,6.69,0,0,1,83.48,187Z"/><path class="cls-37" d="M78.93,188.4a2.16,2.16,0,0,1-2,.83"/><path class="cls-37" d="M79.91,190.71s-2.61,1.83-2.32,2.87"/><path class="cls-37" d="M79.57,191.45s-.35,1.63,1.53.79"/><path class="cls-37" d="M82.53,192.49a.84.84,0,0,1,1.18-.49"/><path class="cls-37" d="M83.07,189.23a1.34,1.34,0,0,0,.89,1.39"/><path class="cls-37" d="M75.23,194.51s2,2.77,3,2.72"/><path class="cls-37" d="M78.83,195.4s2.07-1,3.06-.79a7.87,7.87,0,0,1,3.25-.24c.6.09-1,1.67-2.51,1.87A7.22,7.22,0,0,1,78.83,195.4Z"/><path class="cls-37" d="M76.26,201.22s1.33,2.42,2,2.27"/><path class="cls-37" d="M83.51,205.76s1.58,2.52,2,2"/><path class="cls-37" d="M87.31,204.28a10.08,10.08,0,0,1-.09,2.32"/><path id="Boy_red_shirt_detail" data-name="Boy red shirt detail" class="cls-45" d="M71.37,223.09s10.15-7.94,29.57-6.84c0,.33-.66,10.93-1.33,12.69,0,1.22-.27,5.25-.27,5.25l.94,8s1.21,12.58.66,15.89c0,2.54-.27,16.84-.27,16.84s-.86,1.13-4.27,1.47-18.69.67-18.69.67l-9.35-.27s-.17-6.28-.84-6.81.45-16.92.45-16.92l-.13-10.39,1.58.41s2.28,1.19,1.56-2.28a17.83,17.83,0,0,0-.12-2.7s2.7-2.64,1.56-5.15c1.08-1.08,1.43-3.66.36-6.18A34.81,34.81,0,0,1,71.37,223.09Z"/><path id="Boy_shirt_pocket_detail" data-name="Boy shirt pocket detail" class="cls-43" d="M92.79,221.37s5.46-.3,6.36-.12c.06.36.3,8,.3,8s.17,4.38-1.5,5.39a4.81,4.81,0,0,1-4-3.47c-.18-1.62-.72-3.9-.84-4.68A21,21,0,0,1,92.79,221.37Z"/><path id="Boyy_shorts_detail" data-name="Boyy shorts detail" class="cls-37" d="M87.6,283.81s1.06-3.72,2.47-3.1"/><path class="cls-37" d="M69.63,289.83s0,12.92-.62,14"/><path id="Boy_shorts_shadow" data-name="Boy shorts shadow" class="cls-46" d="M86.44,287.08,83,302.67s1.44,7.33,2.15,7.07a12.07,12.07,0,0,0,2.39-2.3S87,288.94,86.44,287.08Z"/></g><g class="cls-47"><text class="cls-48" transform="translate(305.2 432.8)">Bla<tspan class="cls-49" x="25.49" y="0">c</tspan><tspan class="cls-50" x="34.38" y="0">k</tspan></text><circle class="cls-51" cx="403.24" cy="334.51" r="101.6"/><g id="Black_Family" data-name="Black Family"><polygon id="B_Dad_undershirt" data-name="B Dad undershirt" class="cls-52" points="354.96 339.57 323.38 417.55 402.49 424.57 406.65 335.84 354.96 339.57"/><path id="B_girls_legs" data-name="B girls legs" class="cls-53" d="M385.11,436.26l78.54-.34s3.22-13.74-5.77-19.34c-4.07-1.52-61.24.34-61.24.34l-9,2.72Z"/><path id="B_girls_shorts" data-name="B girls shorts" class="cls-54" d="M389.52,413.19s-17.64,4.24-8.82,21.2a2.88,2.88,0,0,1,.51,1.87h3.9s3.73-15.78,7.63-15.27C396,418.28,389.52,413.19,389.52,413.19Z"/><g id="B_Dad_Undershirt_details" data-name="B Dad Undershirt details"><path class="cls-37" d="M360.79,351.67s4.91,2.14,7.48,1.5"/><path class="cls-37" d="M361.43,354.23s11.75,9.62,10.68,13.89"/><path class="cls-37" d="M387.49,346.33s-3.2,14.53-6,17.3"/><path class="cls-37" d="M391.34,366.41s-11.54,23.5-18.8,25.85"/><path class="cls-37" d="M339.22,410s11.32-7.27,14.09-13.89"/><path class="cls-37" d="M356.09,396.31s12.18-4.27,14.1-10"/><path class="cls-37" d="M352.89,412.76s29.05-22.64,29.47-19.86"/><path class="cls-37" d="M374.67,365.34s-3.41,17.73-2.56,19.44"/><path class="cls-37" d="M370.62,353.38s-1.93,1.28.21,2.56"/><path class="cls-37" d="M374,360.21s-3.63.43-.42,2.35"/><path class="cls-37" d="M377.24,368.55s-3.85.42-1.07,2.77"/><path class="cls-37" d="M376.17,377.09s-3-.85-1.07,2.56"/><path class="cls-37" d="M379,379.65s-.22,4.7-.64,5.56"/><path class="cls-37" d="M348.83,393.32s-9.4,13.25-11.11,14.1"/><path class="cls-37" d="M380.67,404.69s2.45-3,3.39-2.63"/></g><path id="B_Dad_Shirt_Left" data-name="B Dad Shirt Left" class="cls-55" d="M292.89,418.52s2.86-7.43,4.58-8-.19-4.57.38-6.48-.19-4,.19-5-.76-3.81,0-4.95-.19-4,.95-4.77-1.14-3.23,1.14-7.43c.38-2.47-.38-6.47,1.34-8.57.38-1.9,1.71-10.28,2.47-10.85.38-1.91,3.62-13.72,5-14.29.57-2.48,2.47-8.38,4.19-9s13.9-8.77,30.28-10.1c4.58-.76,6.86-1.33,6.86-1.33l4.57-3.24s2.86-3.62,6.67-3.05c.13,1.47-1.38,4.67-1.38,5.8-1.5,0-4.7.57-4.7,1.32s1.69,14.87,3.2,16.94,1.5,4.14.94,4.89c.75,1.32,0,7.34-5.65,9,.55,2.9,2.16,7.14-1.05,10-.46,1.37-15.94,27.85-15.94,27.85a24.51,24.51,0,0,1-4,3.1c-1.15.45-2.06,8-2.06,8s6,3.22,5.82,4.8S329.28,436,329.28,436l-36.64.17Z"/><path id="B_Dad_Jeans" data-name="B Dad Jeans" class="cls-56" d="M292.46,424.2s19.46.35,27.88,9.64c.87.53.17,1.76.17,1.76s4.21-7.72,10.7-6.49a72.48,72.48,0,0,0,7.36,1.23l11.22-2.11,7,4.91,2.1,3L329.28,436l-36.64.17Z"/><path id="B_Dad_arm" data-name="B Dad arm" class="cls-53" d="M318.41,430.67s-5.13-10.25,7.07-19c2.91-1,7.49-.83,8.73-.14a15,15,0,0,1,2.43,1.79s12.55,1.82,15,1.68,4.44.28,9.71-3.61c2.63-1.38,5.68-4.15,7.9-4.15h2.22c-.14-.28,6.23-1.67,6.23-1.67s1.25-.41,3.33,2.5c1.39,1,3.88,1.52,4.58,3.05,0,1.11-1.39,2.49-4.86,1.94l-3.46-.56-.4,0L369.7,412s13,1.66,10.54,5.82c-.69,1.8-.55,2.36-10.95,1,.14.14,14.55,1.11,9.56,6.8a5.09,5.09,0,0,1-3.31.59c-1.32-.14-3.42-.53-7.22-1.29,0,.14,15.25,2.08,8.18,6.93a9.66,9.66,0,0,1-3.59,0c-2.45-.32-5.15-1-6.12-1-1.52,0,13,1.25,5.41,5-2.5,0-13.29.32-13.29.32s-6.81-1.56-8.34-4.47c-1.25,0-17.93-1.33-19.36-2.54-1.43-.24-4.21-.51-8.37,3.09C320.49,431.92,319.66,431.65,318.41,430.67Z"/><g id="B_Dad_Right_Shirt_Details" data-name="B Dad Right Shirt Details"><path class="cls-37" d="M302.08,375.67s14.3-3.79,21,.42"/><path class="cls-37" d="M316.8,402.79c-9.46-5.25-16.19,5.26-16.19,5.26"/><path class="cls-37" d="M298.72,406.37s10.51-10.52,17.24-5.68"/><path class="cls-37" d="M302.92,420.67l9.89-12.41s4-4.42,8.62-2.73"/><path class="cls-37" d="M298.51,413.73s1.26,6.94,5,9.88"/><path class="cls-37" d="M315.75,345.39s9.46,17.66,9.46,22.5"/><path class="cls-37" d="M320.38,344.76s19.76-10.52,25.86-9.25"/><path class="cls-37" d="M350.23,327.85l-4,4.5,1.47,20s-2.73,4.2,4.21.42l6.94-3.79"/><path class="cls-37" d="M357.19,351.6s-2.67-.31-1.33,2"/><path class="cls-37" d="M351.24,365.86s-1.95-.62-1.13,1.95"/><path class="cls-37" d="M341.7,384.12s-2.15-1-1.33,2.15"/><path class="cls-37" d="M343.18,354s-11.45,25.2-11.72,27.22"/><path class="cls-37" d="M333.21,362.21s-5.39,11.85-5.66,13.74"/><path class="cls-37" d="M327.68,384.57s.21,13.88-2.78,16.87"/><path class="cls-37" d="M312.94,410.84s.64,10.89,2.14,10.89"/></g><path id="B_Dad_Shirt_right" data-name="B Dad Shirt right" class="cls-55" d="M389.48,331.68s29,17.69,20.68,33.3c-2.34,3.65-13.53,18.61-13.53,18.61s-2.6-15-1.69-16.13c0-2.21-.78-11.58-1.82-11.19-.65-2.08-2.86-18.48-7.42-20.43C387.52,332.2,389.48,331.68,389.48,331.68Z"/><path id="B_Dad_head" data-name="B Dad head" class="cls-53" d="M361.47,321.56l-1.38,5.8s-5-.1-4.83,1.72,2.21,13,2.21,13,8.59,10.54,12.62,9.1c1.56.26,2-.52,4,3.52,1.17,1.3,2.22,1.3,2.22-1s-.66-3.13,2.21-3.91c1.69-.78,7.15-4,6.63-10,.52-1.18,2.08-2.09,3.12-3.78,2-1.43,9.76-11.84,9.5-14.05.26-1,.78-3.77.78-3.77A19.47,19.47,0,0,0,400.4,314c.26-1.44,2.48-5.21-.39-5.21-.13-1,3-11.45-.13-18.86-1.43-2.74-4.42-10.41-16-10.93-1.56.39-9.11-.39-15.74,8.71-.91,1.31-3,6.77-3.25,12.36-.91,0-2.48-2.6-4.17,2.74a12.66,12.66,0,0,0-.13,9.49,2.13,2.13,0,0,0,1.3.91Z"/><g id="B_Dad_head_details" data-name="B Dad head details"><path class="cls-37" d="M365.27,296.47s6.63-4.88,7.41-8.27c.78-1.87,1.56-2.44,3.71-2.06s17.75,5.26,20.67,4.51c1.37,0,2.74,2.44,2.54,6.57.78,2.63,1.37,5.64,1.37,5.64"/><path class="cls-37" d="M367.4,304.57a5.64,5.64,0,0,1,6.85-1.89c1.3.24,5.67.59,6.61,1.89.59.71-.59,2.24-2.6,1.77-2.36-1.41-4.48-2.12-6.73-1.65l-2.24.47C370.47,305,368.11,305.28,367.4,304.57Z"/><path class="cls-37" d="M388.42,306.93s4.37-.12,6.26,1.07c1.3.23,2.83.35,3.07,2.48.12,1.29-.59.82-4-.71C391.73,309.53,385.59,308.23,388.42,306.93Z"/><path class="cls-37" d="M370,307.64s6.38-2.48,8.86,1.65c.35,1.07-.83,1.42-2.37.71S371.18,309.53,370,307.64Z"/><path class="cls-37" d="M366.93,307.41s1.3.7,1.77.35"/><path class="cls-37" d="M366.57,308.47a7.76,7.76,0,0,0,2.84.35"/><path class="cls-37" d="M387.24,312a7.59,7.59,0,0,1,8.38,1.18c1.07,1.3-1.77,1.65-3.3,1.06S387.71,313.19,387.24,312Z"/><path class="cls-37" d="M379.45,312s.94,5.79-1.42,4.37"/><path class="cls-37" d="M376.26,315.32s-3.66,2.71,0,3.07"/><path class="cls-37" d="M377.08,319.1a5.43,5.43,0,0,1,2.25,2"/><path class="cls-37" d="M383,321.69a3.61,3.61,0,0,1,2.95-.11"/><path class="cls-37" d="M385.35,312.84s-.35,4.13,1.06,4.48"/><path class="cls-37" d="M368.46,321s2-1.89,3.07-1.54"/><path class="cls-37" d="M388.54,319.21s1.06,5.79,2,5.91"/><path class="cls-37" d="M363,304.22s-1.65,1.77-1.53,2.59"/><path class="cls-37" d="M362.91,301.85s-1.65.6-1.65,1.66"/><path class="cls-37" d="M362,308.35c.35.94.71,1.89-.36,1.77"/><path class="cls-37" d="M399.4,311.3s.71-1.06,1-.71"/><path class="cls-37" d="M395.15,304.93s3,1.53,3.19,3.89"/></g><path id="B_Dad_beard" data-name="B Dad beard" class="cls-57" d="M361.89,313.2s-.49,14.89,2.12,16.31c.59,1.19,3.2,12.56,10.19,11.62,2.25.11,9.05.55,11-1.38s9.28-11.31,9.28-11.31l2.26-3.31s-.71-2.73-1.54-1.9-5.57,6.4-5.57,6.4,1.89-4.86-7.94-6.87c-2.26-.6-7.83-3-10.08-1.66-1.18.35-3.91,3.08-4.38,5-.59-.71-1.42-8.41-3.56-9.71A29.51,29.51,0,0,0,361.89,313.2Z"/><path id="B_dad_lips" data-name="B dad lips" class="cls-1" d="M370.82,322.52s5.2-1.42,9.33,1.3c1.07,0,5.44-.35,7.92,3.19,0,1.3-4.61,8.27-10.4,5.9C375.67,332.32,370.59,329.61,370.82,322.52Z"/><path id="B_Dad_teeth" data-name="B Dad teeth" class="cls-53" d="M373,323.7s5.55,1.89,6.26,1.89c.59.36,5.79,1,6.26,1.54s-2.48,4-6,3.07C377.2,329.49,372.24,326.65,373,323.7Z"/><path id="B_DadFace_space_under_lip" data-name="B DadFace space under lip" class="cls-53" d="M370.76,325.13s-3.55-.12.95,10.07c1,.47,2.37,3,7.47,3,3.43-.83,5.92-1.66,7.82-6.28.83-2.13,1.78-4.62-.36-2.37-1.06,1.42-3.91,4.86-8.29,3.68C375.27,331.76,372.78,331.29,370.76,325.13Z"/><path id="B_dad_hair" data-name="B dad hair" class="cls-57" d="M365.31,295.81s1.79-9.45,5.27-11c2-1.79,6.27-5.57,11.64-5.57,2.39-.2,7.46-.1,10.95,2.48,1.69,1,6,4.73,6.71,8.24.95,2.41,2.14,8.08,1.05,11.86-.3-1.19-1.33-4.56-1.33-4.56s.37-6.46-2.54-6.57-9.49-1-20.67-4.51c-.73-.18-2.4-1-3.71,2.06C372.37,289.34,368.49,295.11,365.31,295.81Z"/><path id="B_mom_hair" data-name="B mom hair" class="cls-58" d="M427.7,324.21l-13.63-5.65L416.4,311s.12-3.81,1-3.93c-2.7,0-4.05-1.48-2.45-2.34,1-.61,2-1.1,2-1.1l2-.13s.61-2.58,1.35-2.09.24-4.91,1.47-4.17c.49-1.84.37-3.07,1.23-3.07.61-2.09.25-5.29,1.47-4.43,1-1.22-.12-2.08,1.6-3.31,1-1.35.12-3.2,1.84-3.32.86-1.35,3.32-4.42,3.81-3.93s.86-4.18,2.58-3.69c.74-2.08,4.55-6.26,6.51-5,.74-1.11,6-3.07,8.48-.74,2.7-1,9.21-4.42,10.93-1,.62.49,3.07-.86,3.69,2.09,1,.12,7.25,2.58,9,6.63,1.35,1.47,3.56,4.91,3.44,6.88,1,1.11,3.07,4,3.07,6.76.73,1.72,3.44,4.05,2.94,7.49.74,2.09,2.95,3.44,2.58,6.26,1.11,2,1.85,4.43,2.95,4.55.74,1.23,2,3.56,1.6,5.4a7.56,7.56,0,0,1,2.82,7c.37,1.1,2.34,6,.86,7.12-.24,1,4.18,2.46,1.72,5.16a4.29,4.29,0,0,0-.61,2.34s.49-3.94-.74-4.3-2.94-3.32-2.94-3.32.73-2.83-.62-2.83-.24-4.05-1.72-3.8-.74-2.71-1.47-2.83-1.11-2.46-1.48-2.58-.12-1.72-.61-2.33-2.46.24-1.48,1.47,1.6,4.55,2,4.91.37,2.34,1.11,3.08,1.72,4.29,1.22,7c.5,1.35,4.55,7.49,2.83,9.7-.61,2.09-1.6,2.58-1.6,2.58s-1.72-3.68-3.19-3.56c-.12-2.33,1.1-6.88-.49-7.25.37-3.56,1.23-3.44-.25-4.67-.61,1-2,7.25-.74,9.34a3.9,3.9,0,0,1,.5,3.56s3.56,3.93,1.84,4.3a5.27,5.27,0,0,0-2.83,2l-1.84-3.07-1-2.22Z"/><path id="B_mom_shirt_right" data-name="B mom shirt right" class="cls-59" d="M436.74,325.87h14.12l5.12-7.16s.21-3.48,2,0a82.29,82.29,0,0,1,5.11,7.16s16.78,6.34,17,13.91c1,2.46,3.89,21.29,2.45,32.34.21,3.07.21,9,.21,9l1.43,14.12-3.07,3.28s-2.66,3.07-4.5,2.45a23.54,23.54,0,0,0,1.23-7s-.41-1.84-6.76-1.22c-2,.2-10.84,1.22-13.5,3.07-1,1-4.5,1.63-4.5,1.63l-4.71.82-13.71-22.1Z"/><path id="B_mom_shirt_right_bottom" data-name="B mom shirt right bottom" class="cls-59" d="M455.57,413.46,470.72,412l-.62,2.05s4.09,8.39,2.87,10.44c.81,1.63,4.5,7.16,4.5,7.16s1.23,3.89.61,4.09-19,.21-19,.21Z"/><g id="B_mom_shirt_details" data-name="B mom shirt details"><path class="cls-37" d="M455.37,383.37s14.73-6.34,22.1-3.68"/><path class="cls-37" d="M478.7,393.2s1.84-11.05-.41-14.53c.2-1,2.25-4.3,2.66-.62"/><path class="cls-37" d="M481.56,382.15s1.84,6.34.82,11.25"/><path class="cls-37" d="M477.26,343.06s4.71,20.46,4.1,23.53"/><path class="cls-37" d="M466.21,335.49s-8.18,27.42-8,30.08"/><path class="cls-37" d="M456.59,368.23s-1.63,10.64-.81,12.48"/><path class="cls-37" d="M462.53,336.1s-5.12,11.46-5.12,14.94"/><path class="cls-37" d="M463.14,325.87s-.82,4.91-6.95,9.41"/><path class="cls-37" d="M465.39,429.62s8.6,3.28,9.21,4.3"/></g><path id="B_mom_right_shirt_shadow" data-name="B mom right shirt shadow" class="cls-60" d="M477.88,394l2.66.82s2-1,2.25,1l.31.75s-3.3,4.32-6.45,4.36C477,400.14,478.21,394.68,477.88,394Z"/><path id="B_mom_head" data-name="B mom head" class="cls-61" d="M434,320.78l1-9.11.33-4a13.06,13.06,0,0,1-1-7.28c-.83-.5-3.14-1.16-2.65-5.47.17-1.82.33-11.1,2.65-7.29a10.75,10.75,0,0,1,1.49,3s2.32-6.79,3.65-7.29c1.16-2,2.15-6.79,5.8-6.79,2.15-.49,5.79-2.65,7.62-1.32,1.82,0,2.15,0,3.64,1.16s7.62-1.49,10.77,10.27c.82,2.15-.5,10.93-2.32,12.75.49.83,4.64-4.3,4.47-.83-1.82,3.15-2.49,4.14-3.64,4.81-.17.66-1.83,6.79-3.48,4.64-.17,1-3.15,6-5.3,6.46a7.59,7.59,0,0,0-.67,2.81l.67,10.27-23.19-2.32Z"/><g id="B_mom_face_details" data-name="B mom face details"><path class="cls-37" d="M433.29,292.29s.5-1.66,1.32-.66"/><path class="cls-37" d="M432.3,297.76s1.15.16.82,1.16"/><path class="cls-37" d="M432.3,295.44s1.15,1.32,1.49.82"/><path class="cls-37" d="M465.09,300.9s1,.5.17,1.16"/><path class="cls-37" d="M462.77,307.2s.5-1.33.83-.83"/><path class="cls-37" d="M440.71,286.28s4.07-.61,5.19.31a22,22,0,0,1,3,2s2.13,1.52.5-1.12a7.24,7.24,0,0,0-5.79-2.54C442,285.16,441,285.57,440.71,286.28Z"/><path class="cls-37" d="M465.69,293.9s-3-2.84-4.41-2.74a22.89,22.89,0,0,0-3.58,0s-2.62,0,.23-1.21a7.25,7.25,0,0,1,6.2,1.27C465.26,292.23,465.85,293.15,465.69,293.9Z"/><path class="cls-37" d="M441.63,290.55s3.76-2.24,6.81,1.83C447.12,292.89,445,293.6,441.63,290.55Z"/><path class="cls-37" d="M455.05,294.62s5.08-1.83,7.31,1.72c-2,.41-3.15,1.53-7.42-1.32"/><path class="cls-37" d="M450.17,293.29s-.51,4.68-2.44,3.56"/><path class="cls-37" d="M446.2,297s-1.83,2.85.21,2.65"/><path class="cls-37" d="M453,298.58s1.43.81.92,1.63"/><path class="cls-37" d="M447.12,300.05s1,.34.92,1"/><path class="cls-37" d="M450.39,301.89s1.84-.83,2.59.09"/><path class="cls-37" d="M439.51,301.06s2.68-3.27,3.93-2.43"/><path class="cls-37" d="M455.58,302.06s1.84,2,1.84,3.27"/><path class="cls-37" d="M439.09,303.07s.33-1.51,1.25-1.43"/><path class="cls-37" d="M456.83,306.75s.76,1.59.09,1.92"/><path class="cls-37" d="M440.85,302.81s6.44.09,7.86,1.85c.51.25,4.69.25,6.37,2.34-.42.75-3.77,4.44-7.54,3.1C445.37,309.18,441.18,306.5,440.85,302.81Z"/><path class="cls-37" d="M437.75,304.57s.33,5.36,1.42,5.36"/><path class="cls-37" d="M445.62,318.13s2.09,2.6,9.62-2.93"/><path class="cls-37" d="M435.57,292.43s-.5,3.1-.25,3.44"/><path class="cls-37" d="M464.2,302.4s-.33,1.67-.67,1.84"/></g><path id="B_girls_hair" data-name="B girls hair" class="cls-62" d="M438.37,364.4l-23.56.45s-9,2.52-9,3.4c-1.78-.29-3.56-1.18-2.52-2.81-3.41.15-5.34-1.78-4.3-3.56-.15-1.92-.89-1.78-.3-2.81-2.37-.75-1.77.44-2.37-.75s-4-2.22-2.37-5.33c-.44-3-2.52-3.26-.3-4.3-3.85-.59-5.48-3.41-2.81-5.48-2.08-1.63-4.89-5.34-1.48-6.23,0-1.63,1.63-5.18,4.29-3.55,1.19-.45,1.19-4.6,3.12-4.6,2.07-2.82.89-3.7,2.37-3.11-.15-3.11,3.41-5.63,5.63-5,1.33-1.93.74-4.15,5.34-5.34,1.48-.89,5.33-5.92,9.33-2.52a15.22,15.22,0,0,1,4.6,2.82s4.59-5.63,9.48-4.3,8.75,3,10.08,5.63c.74,1,4.89,2.08,5.19,4.45,1-.59,7.41-.3,3.85,3.71.3.88,7.12,8.59,2.23,13.33,1.48,1.93,9.78,14.68,1,11.27-.44,1.33.15,7-.89,7.85-.29,2.52-.74,10.67-3.26,4.6a19.44,19.44,0,0,0-.59-3.41s-2.52,8.74-3.56,8.89c-1.63.15-1.18-4.59-.44-6.82-1.63,2.08-3,7.86-6.08,6.38A10.24,10.24,0,0,1,438.37,364.4Z"/><path id="B_girls_left_arm" data-name="B girls left arm" class="cls-53" d="M390.91,417.05s-12.57-12-5.34-24.75c4.3-6.81,16.18-20.27,16.18-20.27s8.95-9.56,14.29,1.16c1.21,3,2.76,6.66-2.24,14.62,0,3.18-8.09,14.62-11.19,15.49S390.91,417.05,390.91,417.05Z"/><path id="B_girls_right_arm" data-name="B girls right arm" class="cls-53" d="M445.64,370.77l-4.75,32.91,14.53-1.63-2.82-4.45s1-3.7.15-5.48C453.49,389.3,457.05,372,445.64,370.77Z"/><path id="B_girls_head" data-name="B girls head" class="cls-53" d="M414.81,364.85l8.3,31.12,17.93-.15,1.93-20.6-4.45-7.56.15-2.67s5-3.11,5.34-8c.59-1,1.48-2.07,1.33-2.82s1.33-6.52-2.22-7.11c-.45-1.93-3-14.38-5.78-16.3s-12.16-5-17.64-1c-3.11,2.37-8.15,2.52-7.26,10.08-.3,3.7-.45,9.93.15,12.89-1.63.6-4,3.41-3,5.78s3,4.15,4.6,2.82l1,.15Z"/><path id="B_girls_shirt" data-name="B girls shirt" class="cls-54" d="M403.1,369.7l2.67-1.64,9-3.42s4.44,3.13,7.26,14c.89,1.64,3.85,16.1,9.63,15.95,2.52.15,8.45.15,9.49-4.62-.3-4,0-10.58-1.48-13.41a37,37,0,0,0-1.34-7.6s-.14-3.28,2.23-.15c1.63.45,5-.45,5.78,3.72,1.18,1.94,4,12.67-.3,15.06,0,1.49-1.48,7.6-1.93,7.9s-2.52,5.66-2.52,5.66l-4,.89-32.9.75,3.85-5.52s3.26-5.66,3.26-8.19c1.19-2.24,4.75-9.69,1.93-15.06C410.81,370.15,411.7,367.47,403.1,369.7Z"/><g id="B_girl_s_face_details" data-name="B girl&apos;s face details"><path class="cls-37" d="M412.93,358.61c0-.38.87,2,0,1.86"/><path class="cls-37" d="M410.68,357.36s-.25-1.74.75-1.12"/><path class="cls-37" d="M421.52,370.93a18.1,18.1,0,0,0,9,1.5"/><path class="cls-37" d="M422.14,376s5,2.86,6.23,2.49"/><path class="cls-37" d="M418.15,365.83a13.66,13.66,0,0,0,14.7,3.86"/><path class="cls-37" d="M422.76,361.47s4.36,8.47,9.22,7"/><path class="cls-37" d="M415,347.65s6.35-4.36,8.72-3.49c1.37-.12,1.74-1.62-2.62-1.12C418.9,343.66,414.67,346.53,415,347.65Z"/><path class="cls-37" d="M441,343.22s-7.42-2.06-9.37-.47c-1.34.33-2.18-1,2.11-1.91C436.09,340.7,441,342,441,343.22Z"/><path class="cls-37" d="M416,349.64l2.74-1.49s3.86.87,5.23,0c-.13-1.12-.75-2.62-4.86-1.12S416,349.64,416,349.64Z"/><path class="cls-37" d="M431.85,346.4s2.87-3.61,6.35-2.11a10.82,10.82,0,0,1,2,.62l-3.23.37S432.47,347,431.85,346.4Z"/><path class="cls-37" d="M425,346.53a1.58,1.58,0,0,1,.63,1.87"/><path class="cls-37" d="M425.75,350.51s-1.62,3.24.25,2.87"/><path class="cls-37" d="M427,353.13s.49-1.12,1.61,0"/><path class="cls-37" d="M431.48,352.26a1.77,1.77,0,0,1,1.87-.63"/><path class="cls-37" d="M434.84,351s2.49,3.61,3.49,4"/><path class="cls-37" d="M423.51,353.5s-1.62,2.74-1.12,3.86"/><path class="cls-37" d="M438.82,357s.13,2.61.88,2.74"/><path class="cls-37" d="M423.51,359s4-4.23,6.72-3c1.12-.25,4.61-1.49,6.85.5-.12,1.12-2.12,5.23-4.73,5C430.73,361.72,423.76,361.72,423.51,359Z"/><path class="cls-37" d="M435.46,367.57a4.06,4.06,0,0,0,2.37-2"/><path class="cls-37" d="M443.18,350.51a9.72,9.72,0,0,1,.63,2.49"/><path class="cls-37" d="M398.73,313a16.09,16.09,0,0,1-.5,2.37"/><path class="cls-37" d="M442.93,353.13a5,5,0,0,1,.13,1.12"/><path class="cls-37" d="M424.26,381s7.34,3.49,10.46,1"/></g><path id="B_mom_s_arm" data-name="B mom&apos;s arm" class="cls-61" d="M477.88,394s-.45,6.28-1.23,7S475,408.1,474,408.44c-.17,1.7.34,6.78-7.13,6.45-2,.67-29.17,5.76-37.15,3.56-3.56-.17-6.78-1.19-8.65-.51-2.54-1.36-9.16-2.72-24.43,3.9-1.52-.17-2.88-1.87,0-2.37-3.22.17-6.78-.85-2-3.06-4.75,1.87-7.3.51-7.3.51s-1.69-2.2,2.72-1.53c-7.47-2.37-8.82-5.93-2.38-5.76a27,27,0,0,0,4.92-1l3.56-2.21s-6.95,3.91-12,2c-.51-.34-5.26-3.39,2.54-3.9,2.21-.51,8-1.7,8-1.7a12.35,12.35,0,0,1,5.93-.34c2.21,0,8.32.17,8.32.17l8-.17,2.54,3.56,4.25-.5,17.13-4.08,12.37-4,4.5-1.63a51.93,51.93,0,0,1,13.5-3.07C475.36,392.49,478,393.33,477.88,394Z"/><path id="B_girls_pretend_shorts" data-name="B girls pretend shorts" class="cls-54" d="M428,435.75c.34-13.4-7-17.81-7-17.81s17.3,1.7,19.34.85c1.19,3.73,1,16.62-.34,17S428,435.75,428,435.75Z"/><g id="B_girls_leg_details" data-name="B girls leg details"><path class="cls-37" d="M404.79,432.53s2.37,1.53,2.37,2.37"/><path class="cls-37" d="M442.79,434.9s4.24-3.73,4.07-5.09"/><path class="cls-37" d="M437.7,422.69s-2,7.8-.17,10.18"/></g><path class="cls-53" d="M406.56,402.74s-2.78,4.63-2.08,6.36c-.35,1.27.92,4.4,2.08,1.62l1.15-2.78,2.66-5-3.47,6.48s-1.61,8.1,2.32,4.39c.43-1,.79-1.9,1.08-2.64.58-1.46.88-2.33.88-2.33l1.28-3.24,1.27-2.08-2.2,4.05-1.16,2.77s-.69,6.83,2.9,2l1.08-2.06c.2-.37.38-.71.53-1l1.05-2,1.27-2.31-4.05,8.33s3,2.08,5.44-3.94c2.66-2,8.44-5.55,12.72-5.55,6.13-.69,4.28-1.85,4.28-1.85S410,401,406.56,402.74Z"/><path class="cls-37" d="M404.9,409.91s.82-.08,1.1.4"/><path class="cls-37" d="M385.11,407.18s.18-.81-.25-1.14"/><path class="cls-37" d="M386.73,412.47s.18-.81-.25-1.14"/><path class="cls-37" d="M389,416.92s.18-.8-.25-1.14"/><path class="cls-37" d="M407.68,411.87s.83-.07,1.1.4"/><path class="cls-37" d="M411.53,411.13s.82-.08,1.1.39"/><path class="cls-37" d="M407.25,413s.83-.08,1.1.39"/><path class="cls-37" d="M410.9,412.35s.83-.08,1.1.39"/><path class="cls-37" d="M415.06,411.4s.83-.07,1.1.4"/><path class="cls-63" d="M366.41,412.72s-1,2.71,0,3.19"/><path class="cls-63" d="M392.9,410.05s1,2.72,0,3.2"/><path class="cls-63" d="M397.74,416.78s1,2.71,0,3.19"/><path class="cls-63" d="M391.15,404.46s1,2.72,0,3.2"/><path class="cls-63" d="M365.61,419.59s-1,2.72,0,3.19"/><path class="cls-63" d="M366.73,419.75s-1,2.72,0,3.19"/><path class="cls-63" d="M364.81,425.66s-1,2.72,0,3.2"/><path class="cls-63" d="M364.17,431.89s-.95,2.72,0,3.2"/></g></g></g></g></svg>