<svg xmlns="http://www.w3.org/2000/svg" viewBox="0 0 430.9 684.07"><defs><style>.cls-1{fill:#f5efdf;opacity:0.8;}.cls-2{fill:#00949a;}.cls-3{fill:#73cac5;}.cls-4{fill:#e14935;opacity:0.9;}.cls-5{fill:#d51f26;}.cls-6{font-size:14.14px;}.cls-6,.cls-8{fill:#58595b;}.cls-6,.cls-8,.cls-9{font-family:HelveticaNeue, Helvetica Neue;}.cls-7{fill:none;stroke:#fff;stroke-miterlimit:10;stroke-width:3px;}.cls-8,.cls-9{font-size:13.97px;}.cls-9{fill:#004649;}.cls-10{letter-spacing:-0.11em;}.cls-11{letter-spacing:0em;}.cls-12{letter-spacing:-0.07em;}.cls-13{letter-spacing:-0.02em;}.cls-14{letter-spacing:-0.02em;}</style></defs><g id="Layer_2" data-name="Layer 2"><g id="Layer_1-2" data-name="Layer 1"><rect id="Mobile_yellow_rec" data-name="Mobile yellow rec" class="cls-1" x="-97.48" y="134.21" width="660.92" height="393.75" transform="translate(-98.85 563.01) rotate(-89.82)"/><circle class="cls-2" cx="290.07" cy="216.14" r="7.33"/><circle class="cls-3" cx="70.94" cy="632.6" r="7.33"/><circle class="cls-4" cx="76.54" cy="502.83" r="7.33"/><circle class="cls-3" cx="169.74" cy="549.48" r="7.33"/><circle class="cls-3" cx="253.74" cy="225.29" r="7.33"/><circle class="cls-4" cx="123" cy="567.87" r="7.33"/><circle class="cls-3" cx="138.59" cy="558.65" r="7.33"/><circle class="cls-3" cx="164.49" cy="568" r="7.33"/><circle class="cls-3" cx="264.32" cy="160.43" r="7.33"/><circle class="cls-3" cx="82.79" cy="169.13" r="7.33"/><circle class="cls-3" cx="118.56" cy="336.1" r="7.33"/><circle class="cls-5" cx="180.52" cy="419.73" r="7.33"/><circle class="cls-4" cx="216.85" cy="410.58" r="7.33"/><circle class="cls-2" cx="290.07" cy="216.14" r="0.73"/><circle class="cls-3" cx="70.94" cy="632.6" r="0.73"/><circle class="cls-3" cx="169.74" cy="549.48" r="0.73"/><circle class="cls-3" cx="253.74" cy="225.29" r="0.73"/><circle class="cls-3" cx="305.39" cy="290.35" r="0.73"/><circle class="cls-3" cx="138.59" cy="558.65" r="0.73"/><circle class="cls-3" cx="409.87" cy="49.65" r="0.73"/><circle class="cls-3" cx="274.37" cy="262.44" r="0.73"/><circle class="cls-3" cx="201.94" cy="206.59" r="0.73"/><circle class="cls-3" cx="164.49" cy="568" r="0.73"/><circle class="cls-3" cx="264.32" cy="160.43" r="0.73"/><circle class="cls-3" cx="82.79" cy="169.13" r="0.73"/><circle class="cls-3" cx="118.56" cy="336.1" r="0.73"/><circle class="cls-5" cx="180.52" cy="419.73" r="0.73"/><circle class="cls-3" cx="201.17" cy="447.61" r="0.73"/><text class="cls-6" transform="translate(392.48 675.73) rotate(-0.18)">100K</text><text class="cls-6" transform="translate(294.94 677.27) rotate(-0.18)">80K</text><text class="cls-6" transform="translate(190.68 676.93) rotate(-0.18)">60K</text><text class="cls-6" transform="translate(89.32 676.6) rotate(-0.18)">40K</text><text class="cls-6" transform="translate(0.04 631.26) rotate(-0.18)">10%</text><text class="cls-6" transform="translate(0.36 260.66) rotate(-0.18)">50%</text><text class="cls-6" transform="translate(0.11 69.37) rotate(-0.18)">70%</text><line class="cls-7" x1="409.14" y1="662.15" x2="409.23" y2="1.01"/><line class="cls-7" x1="306.35" y1="661.81" x2="306.36" y2="0.79"/><line class="cls-7" x1="201.37" y1="661.58" x2="201.38" y2="0.51"/><line class="cls-7" x1="99.88" y1="661.23" x2="99.85" y2="0.12"/><circle class="cls-3" cx="409.87" cy="49.65" r="7.33"/><circle class="cls-3" cx="305.39" cy="290.35" r="7.33"/><circle class="cls-3" cx="201.94" cy="206.59" r="7.33"/><text class="cls-8" transform="translate(94.15 172.02) rotate(-0.18)">Mongolian</text><line class="cls-7" x1="35.19" y1="624.08" x2="429.01" y2="624.08"/><line class="cls-7" x1="35.74" y1="444.13" x2="429.43" y2="444.2"/><line class="cls-7" x1="36.4" y1="258.25" x2="430.17" y2="258.23"/><line class="cls-7" x1="36.92" y1="67.35" x2="430.63" y2="67.62"/><text class="cls-8" transform="translate(82.71 615.22) rotate(-0.18)">Bhutanese</text><text class="cls-9" transform="translate(82.73 629.35) rotate(-0.18)">35K<tspan x="0" y="13.08">9% BA</tspan></text><text class="cls-8" transform="translate(84.31 506.85) rotate(-0.18)">Black</text><circle class="cls-3" cx="201.17" cy="447.61" r="7.33"/><circle class="cls-3" cx="274.37" cy="262.44" r="7.33"/><text class="cls-9" transform="translate(44.76 21.38) rotate(-0.18)">% 25 <tspan class="cls-10" x="37.27" y="0">Y</tspan><tspan class="cls-11" x="44.77" y="0">ears </tspan><tspan x="0" y="13.08">and Older with a </tspan><tspan x="0" y="26.16">Bachelor</tspan><tspan class="cls-12" x="55.61" y="26.16">’</tspan><tspan x="58.46" y="26.16">s Deg</tspan><tspan class="cls-13" x="94.69" y="26.16">r</tspan><tspan x="99.09" y="26.16">ee</tspan></text><text class="cls-9" transform="translate(363.99 52.83) rotate(-0.18)">100K<tspan x="-19.39" y="13.08">72% BA</tspan></text><text class="cls-8" transform="translate(359.01 38.73) rotate(-0.18)">Indian</text><text class="cls-8" transform="translate(87.92 416.2) rotate(-0.18)">U.S. <tspan class="cls-13" x="30.79" y="0">A</tspan><tspan x="39.59" y="0">verage </tspan><tspan x="23.55" y="13.08">All Races</tspan></text><text class="cls-9" transform="translate(374.42 603.37) rotate(-0.18)">Median <tspan x="3.37" y="13.08">Annual </tspan><tspan x="-21.21" y="26.16">Household </tspan><tspan x="0" y="39.24">Income</tspan></text><text class="cls-8" transform="translate(184.72 554.07) rotate(-0.18)">Cambodian</text><text class="cls-8" transform="translate(226.66 414.66) rotate(-0.18)">White</text><text class="cls-8" transform="translate(129.07 328.22) rotate(-0.18)">Nepalese</text><text class="cls-9" transform="translate(130.15 342.39) rotate(-0.18)">44K<tspan x="0" y="13.08">41% BA</tspan></text><text class="cls-8" transform="translate(146.98 209.69) rotate(-0.18)">Ko<tspan class="cls-13" x="17.34" y="0">r</tspan><tspan x="21.74" y="0">ean</tspan></text><text class="cls-8" transform="translate(193.1 227.31) rotate(-0.18)">Chinese</text><text class="cls-8" transform="translate(203.42 264.52) rotate(-0.18)">Japanese</text><text class="cls-8" transform="translate(314.92 293.89) rotate(-0.18)">Filipino</text><text class="cls-8" transform="translate(301.94 192.38) rotate(-0.18)">Asian <tspan x="0" y="13.08">American </tspan><tspan class="cls-14" x="0" y="26.16">A</tspan><tspan x="8.8" y="26.16">verage</tspan></text><text class="cls-9" transform="translate(302.55 232.73) rotate(-0.18)">77K<tspan x="0" y="13.08">54% BA</tspan></text><text class="cls-8" transform="translate(59.37 572.08) rotate(-0.18)">Hispanic</text><text class="cls-8" transform="translate(85.9 554.31) rotate(-0.18)">Hmong</text><text class="cls-8" transform="translate(175 571.19) rotate(-0.18)">Laotian</text><text class="cls-8" transform="translate(211.8 451.9) rotate(-0.18)"><tspan class="cls-13">V</tspan><tspan x="8.28" y="0">ietnamese</tspan></text><text class="cls-8" transform="translate(277.52 163.52) rotate(-0.18)">Malaysian</text><text class="cls-6" transform="translate(1.48 448.35) rotate(-0.18)">30%</text></g></g></svg>