<svg xmlns="http://www.w3.org/2000/svg" viewBox="0 0 366 211.55"><defs><style>.cls-1{fill:#ddbd68;}.cls-2{font-size:7px;}.cls-11,.cls-2,.cls-8{fill:#fff;font-family:Futura-Medium, Futura;font-weight:500;}.cls-3{letter-spacing:0.01em;}.cls-4{letter-spacing:0.02em;}.cls-5{letter-spacing:0.01em;}.cls-6{letter-spacing:0.01em;}.cls-7{fill:#dab658;}.cls-8{isolation:isolate;}.cls-11,.cls-8{font-size:7.19px;}.cls-9{font-family:Futura-Bold, Futura;font-weight:700;}.cls-10{fill:#c6a34f;}.cls-12{fill:#ae9145;}.cls-13{letter-spacing:-0.03em;}.cls-14{letter-spacing:0.01em;}.cls-15,.cls-16,.cls-17{fill:#00959c;}.cls-15{opacity:0.5;}.cls-16{opacity:0.7;}.cls-18{fill:#00757b;}.cls-19{fill:#005b5f;}.cls-20{fill:#00464a;}.cls-21{letter-spacing:-0.05em;}.cls-22{letter-spacing:0em;}.cls-23{letter-spacing:-0.06em;}.cls-24{letter-spacing:0.01em;}.cls-25{letter-spacing:0.01em;}.cls-26{letter-spacing:-0.03em;}.cls-27{letter-spacing:-0.01em;}.cls-28{letter-spacing:-0.02em;}</style></defs><g id="Layer_2" data-name="Layer 2"><g id="Bottom_Layer" data-name="Bottom Layer"><rect class="cls-1" x="325.3" width="40.5" height="19.21"/><rect class="cls-1" x="325.3" y="21.37" width="40.5" height="19.21"/><text class="cls-2" transform="translate(329.42 33.64)">Bhu<tspan class="cls-3" x="11.79" y="0">t</tspan><tspan x="13.77" y="0">anese</tspan></text><rect class="cls-1" x="325.3" y="42.74" width="40.7" height="19.21"/><text class="cls-2" transform="translate(332.25 55.01)">Bu<tspan class="cls-4" x="7.95" y="0">r</tspan><tspan x="10.68" y="0">mese</tspan></text><rect class="cls-1" x="325.3" y="64.11" width="40.7" height="19.21"/><text class="cls-2" transform="translate(334.13 76.38)">Hmong</text><rect class="cls-1" x="325.3" y="85.48" width="40.7" height="19.21"/><text class="cls-2" transform="translate(328.26 97.75)">Indonesian</text><rect class="cls-1" x="325.3" y="106.86" width="40.7" height="19.21"/><text class="cls-2" transform="translate(333.99 119.12)">La<tspan class="cls-5" x="7.3" y="0">o</tspan><tspan x="11.55" y="0">tian</tspan></text><rect class="cls-1" x="325.3" y="128.23" width="40.7" height="19.21"/><text class="cls-2" transform="translate(329.03 140.49)">Mal<tspan class="cls-3" x="12.67" y="0">a</tspan><tspan x="16.93" y="0">ysian</tspan></text><rect class="cls-1" x="325.3" y="149.6" width="40.7" height="19.21"/><text class="cls-2" transform="translate(328.09 161.87)">Mongolian</text><rect class="cls-1" x="325.3" y="170.97" width="40.7" height="19.21"/><text class="cls-2" transform="translate(330.07 183.24)"><tspan class="cls-6">N</tspan><tspan x="5.99" y="0">epalese</tspan></text><rect class="cls-7" x="281.27" width="41.46" height="20.57"/><text class="cls-8" transform="translate(294.71 9.54)">Thai<tspan class="cls-9"><tspan x="0.67" y="7.19">1%</tspan></tspan></text><rect class="cls-10" x="281.27" y="22.81" width="41.46" height="33.46"/><text class="cls-11" transform="translate(283.46 39.2)">Cambodian<tspan class="cls-9"><tspan x="12.92" y="7.19">2%</tspan></tspan></text><rect class="cls-12" x="281.27" y="58.43" width="41.46" height="33.46"/><text class="cls-11" transform="translate(287.41 74.82)"><tspan class="cls-13">P</tspan><tspan x="3.69" y="0">akis</tspan><tspan class="cls-14" x="16.28" y="0">t</tspan><tspan x="18.31" y="0">ani</tspan><tspan class="cls-9"><tspan x="8.09" y="7.19">2%</tspan></tspan></text><rect class="cls-15" x="281.27" y="94.26" width="41.46" height="117.29"/><rect class="cls-16" x="154.38" width="124.85" height="51.27"/><rect class="cls-17" x="154.38" y="53.43" width="124.81" height="51.27"/><rect class="cls-18" x="154.38" y="106.86" width="124.84" height="104.7"/><rect class="cls-19" x="84.29" width="66.91" height="211.55"/><rect class="cls-20" width="81.45" height="211.55"/><text class="cls-11" transform="translate(27.51 104.88)">Chinese<tspan class="cls-9"><tspan x="4.26" y="7.19">23%</tspan></tspan></text><text class="cls-11" transform="translate(107.27 104.8)">Indian<tspan class="cls-9"><tspan class="cls-21" x="1.88" y="7.19">1</tspan><tspan x="6.37" y="7.19">9%</tspan></tspan></text><text class="cls-11" transform="translate(206.14 158.64)"><tspan class="cls-22">F</tspan><tspan x="3.67" y="0">ilipino</tspan><tspan class="cls-9"><tspan class="cls-23" x="3.38" y="7.19">1</tspan><tspan x="7.85" y="7.19">8%</tspan></tspan></text><text class="cls-11" transform="translate(198.83 81.24)"><tspan class="cls-24">V</tspan><tspan x="4.93" y="0">i</tspan><tspan class="cls-25" x="6.72" y="0">e</tspan><tspan x="10.76" y="0">tnamese</tspan><tspan class="cls-9"><tspan x="12.68" y="7.19">9%</tspan></tspan></text><text class="cls-11" transform="translate(203.1 25.87)"><tspan class="cls-26">K</tspan><tspan x="4.52" y="0">o</tspan><tspan class="cls-27" x="8.84" y="0">r</tspan><tspan x="11.47" y="0">ean</tspan><tspan class="cls-9"><tspan x="5.77" y="7.19">9%</tspan></tspan></text><text class="cls-11" transform="translate(288.24 151.33)">Japanese<tspan class="cls-9"><tspan x="9.26" y="7.19">7%</tspan></tspan></text><rect class="cls-1" x="325.3" y="192.34" width="40.7" height="19.21"/><text class="cls-2" transform="translate(328.68 204.74)">S<tspan class="cls-4" x="4.08" y="0">r</tspan><tspan x="6.81" y="0">i Lan</tspan><tspan class="cls-28" x="21.85" y="0">k</tspan><tspan x="25.21" y="0">an</tspan></text><text class="cls-2" transform="translate(326.09 11.84)">Bangladeshi</text></g></g></svg>