<svg xmlns="http://www.w3.org/2000/svg" viewBox="0 0 395.85 684.56"><defs><style>.cls-1{fill:#dbbb67;}.cls-2{font-size:13.09px;}.cls-15,.cls-2,.cls-4,.cls-6{fill:#fff;font-family:HelveticaNeue, Helvetica Neue;}.cls-3{fill:#d9b557;}.cls-4{isolation:isolate;}.cls-4,.cls-6{font-size:13.44px;}.cls-5{fill:#c5a24e;}.cls-7{fill:#ad9044;}.cls-10,.cls-8,.cls-9{fill:#00949a;}.cls-8{opacity:0.5;}.cls-9{opacity:0.7;}.cls-11{fill:#00757a;}.cls-12{fill:#005a5f;}.cls-13{fill:#004649;}.cls-14{letter-spacing:-0.02em;}.cls-15{font-size:13.1px;}</style></defs><g id="Layer_2" data-name="Layer 2"><g id="Layer_1-2" data-name="Layer 1"><rect class="cls-1" x="320.01" y="608.46" width="75.76" height="35.94"/><rect class="cls-1" x="320.01" y="648.44" width="75.76" height="35.94"/><text class="cls-2" transform="translate(326.73 671.39)">Bhutanese</text><rect class="cls-1" x="239.87" y="608.65" width="76.13" height="35.94"/><text class="cls-2" transform="translate(251.74 631.6)">Burmese</text><rect class="cls-1" x="239.87" y="648.62" width="76.13" height="35.94"/><text class="cls-2" transform="translate(256.34 671.58)">Hmong</text><rect class="cls-1" x="159.91" y="608.65" width="76.13" height="35.94"/><text class="cls-2" transform="translate(165.84 631.6)">Indonesian</text><rect class="cls-1" x="159.91" y="648.62" width="76.13" height="35.94"/><text class="cls-2" transform="translate(176.32 671.58)">Laotian</text><rect class="cls-1" x="79.96" y="608.65" width="76.13" height="35.94"/><text class="cls-2" transform="translate(88.79 631.6)">Malaysian</text><rect class="cls-1" x="79.96" y="648.62" width="76.13" height="35.94"/><text class="cls-2" transform="translate(86.95 671.58)">Mongolian</text><rect class="cls-1" y="648.62" width="76.13" height="35.94"/><rect class="cls-3" x="357.38" y="526.17" width="38.48" height="77.57"/><text class="cls-4" transform="translate(363.78 560.83)">Thai<tspan x="2.24" y="13.44">1%</tspan></text><rect class="cls-5" x="223.24" y="567.86" width="129.95" height="35.88"/><text class="cls-6" transform="translate(253.85 586.43)">Cambodian<tspan x="24.41" y="13.44">2%</tspan></text><rect class="cls-7" x="223.24" y="526.17" width="130.23" height="38.46"/><text class="cls-6" transform="translate(261.06 543.95)">Pakistani<tspan x="16.8" y="13.44">2%</tspan></text><rect class="cls-8" x="0.11" y="526.17" width="219.42" height="77.57"/><rect class="cls-9" x="299.95" y="288.8" width="95.91" height="233.56"/><rect class="cls-10" x="200" y="288.8" width="95.91" height="233.48"/><rect class="cls-11" x="0.11" y="288.8" width="195.85" height="233.53"/><rect class="cls-12" x="0.11" y="157.68" width="395.75" height="125.17"/><rect class="cls-13" x="0.11" width="395.75" height="152.37"/><text class="cls-6" transform="translate(171.08 69.72)">Chinese<tspan x="10.2" y="13.44">23%</tspan></text><text class="cls-6" transform="translate(177.32 214.09)">Indian<tspan x="4.11" y="13.44">19%</tspan></text><text class="cls-6" transform="translate(77.48 402.64)">Filipino<tspan x="7.21" y="13.44">18%</tspan></text><text class="cls-6" transform="translate(214.77 402.56)"><tspan class="cls-14">V</tspan><tspan x="7.97" y="0">ietnamese</tspan><tspan x="24.41" y="13.44">9%</tspan></text><text class="cls-6" transform="translate(326.23 402.39)">Ko<tspan class="cls-14" x="16.68" y="0">r</tspan><tspan x="20.92" y="0">ean</tspan><tspan x="10.96" y="13.44">9%</tspan></text><text class="cls-6" transform="translate(81.55 564.21)">Japanese<tspan x="18.55" y="13.44">7%</tspan></text><rect class="cls-1" y="608.65" width="76.13" height="35.94"/><text class="cls-15" transform="translate(321.64 630.61)">Bangladeshi</text><text class="cls-2" transform="translate(12.16 630.7)">Nepalese</text><text class="cls-2" transform="translate(6.23 669.03)">Sri Lankan</text></g></g></svg>