<svg id="Layer_1" data-name="Layer 1" xmlns="http://www.w3.org/2000/svg" viewBox="0 0 828.85 479.09"><defs><style>.cls-1{fill:#dbbb67;}.cls-2{font-size:15.85px;}.cls-12,.cls-2,.cls-9{fill:#fff;font-family:Futura-Medium, Futura;font-weight:500;}.cls-3{letter-spacing:0.01em;}.cls-4{letter-spacing:0.02em;}.cls-5{letter-spacing:0.01em;}.cls-6{letter-spacing:0em;}.cls-7{letter-spacing:0.01em;}.cls-8{fill:#d9b557;}.cls-9{isolation:isolate;}.cls-12,.cls-9{font-size:16.27px;}.cls-10{font-family:Futura-Bold, Futura;font-weight:700;}.cls-11{fill:#c5a24e;}.cls-13{fill:#ad9044;}.cls-14{letter-spacing:-0.03em;}.cls-15{letter-spacing:0.01em;}.cls-16{letter-spacing:0em;}.cls-17,.cls-18,.cls-19{fill:#00949a;}.cls-17{opacity:0.5;}.cls-18{opacity:0.7;}.cls-20{fill:#00757a;}.cls-21{fill:#005a5f;}.cls-22{fill:#004649;}.cls-23{letter-spacing:-0.05em;}.cls-24{letter-spacing:0em;}.cls-25{letter-spacing:-0.06em;}.cls-26{letter-spacing:0.01em;}.cls-27{letter-spacing:0.01em;}.cls-28{letter-spacing:-0.03em;}.cls-29{letter-spacing:-0.01em;}.cls-30{letter-spacing:0.02em;}.cls-31{letter-spacing:-0.02em;}</style></defs><rect class="cls-1" x="736.69" width="91.71" height="43.51"/><rect class="cls-1" x="736.69" y="48.4" width="91.71" height="43.51"/><text class="cls-2" transform="translate(746.03 76.18)">Bhu<tspan class="cls-3" x="26.7" y="0">t</tspan><tspan x="31.18" y="0">anese</tspan></text><rect class="cls-1" x="736.69" y="96.8" width="92.16" height="43.51"/><text class="cls-2" transform="translate(752.43 124.58)">Bu<tspan class="cls-4" x="18.01" y="0">r</tspan><tspan x="24.18" y="0">mese</tspan></text><rect class="cls-1" x="736.69" y="145.19" width="92.16" height="43.51"/><text class="cls-2" transform="translate(756.68 172.98)">Hmong</text><rect class="cls-1" x="736.69" y="193.59" width="92.16" height="43.51"/><text class="cls-2" transform="translate(743.4 221.38)">Indonesian</text><rect class="cls-1" x="736.69" y="241.99" width="92.16" height="43.51"/><text class="cls-2" transform="translate(756.36 269.77)">La<tspan class="cls-5" x="16.53" y="0">o</tspan><tspan class="cls-6" x="26.16" y="0">tian</tspan></text><rect class="cls-1" x="736.69" y="290.39" width="92.16" height="43.51"/><text class="cls-2" transform="translate(745.14 318.17)">Mal<tspan class="cls-3" x="28.69" y="0">a</tspan><tspan class="cls-6" x="38.34" y="0">ysian</tspan></text><rect class="cls-1" x="736.69" y="338.78" width="92.16" height="43.51"/><text class="cls-2" transform="translate(743.02 366.57)">Mongolian</text><rect class="cls-1" x="736.69" y="387.18" width="92.16" height="43.51"/><text class="cls-2" transform="translate(747.5 414.96)"><tspan class="cls-7">N</tspan><tspan x="13.56" y="0">epalese</tspan></text><rect class="cls-8" x="636.98" width="93.9" height="46.58"/><text class="cls-9" transform="translate(667.42 21.61)">Thai<tspan class="cls-10"><tspan x="1.52" y="16.27">1%</tspan></tspan></text><rect class="cls-11" x="636.98" y="51.65" width="93.9" height="75.77"/><text class="cls-12" transform="translate(641.94 88.78)">Cambodian<tspan class="cls-10"><tspan x="29.26" y="16.27">2%</tspan></tspan></text><rect class="cls-13" x="636.98" y="132.32" width="93.9" height="75.77"/><text class="cls-12" transform="translate(650.87 169.44)"><tspan class="cls-14">P</tspan><tspan x="8.35" y="0">akis</tspan><tspan class="cls-15" x="36.87" y="0">t</tspan><tspan class="cls-16" x="41.47" y="0">ani</tspan><tspan class="cls-10"><tspan x="18.32" y="16.27">2%</tspan></tspan></text><rect class="cls-17" x="636.98" y="213.46" width="93.9" height="265.62"/><rect class="cls-18" x="349.61" width="282.75" height="116.11"/><rect class="cls-19" x="349.61" y="120.99" width="282.64" height="116.11"/><rect class="cls-20" x="349.61" y="241.99" width="282.71" height="237.1"/><rect class="cls-21" x="190.89" width="151.53" height="479.09"/><rect class="cls-22" width="184.46" height="479.09"/><text class="cls-12" transform="translate(62.31 237.51)">Chinese<tspan class="cls-10"><tspan x="9.65" y="16.27">23%</tspan></tspan></text><text class="cls-12" transform="translate(242.93 237.34)">Indian<tspan class="cls-10"><tspan class="cls-23" x="4.25" y="16.27">1</tspan><tspan x="14.42" y="16.27">9%</tspan></tspan></text><text class="cls-12" transform="translate(466.84 359.26)"><tspan class="cls-24">F</tspan><tspan x="8.3" y="0">ilipino</tspan><tspan class="cls-10"><tspan class="cls-25" x="7.66" y="16.27">1</tspan><tspan x="17.77" y="16.27">8%</tspan></tspan></text><text class="cls-12" transform="translate(450.27 183.97)"><tspan class="cls-26">V</tspan><tspan x="11.17" y="0">i</tspan><tspan class="cls-27" x="15.22" y="0">e</tspan><tspan x="24.36" y="0">tnamese</tspan><tspan class="cls-10"><tspan x="28.71" y="16.27">9%</tspan></tspan></text><text class="cls-12" transform="translate(459.95 58.58)"><tspan class="cls-28">K</tspan><tspan x="10.23" y="0">o</tspan><tspan class="cls-29" x="20.01" y="0">r</tspan><tspan x="25.98" y="0">ean</tspan><tspan class="cls-10"><tspan x="13.06" y="16.27">9%</tspan></tspan></text><text class="cls-12" transform="translate(652.75 342.7)">Japanese<tspan class="cls-10"><tspan x="20.97" y="16.27">7%</tspan></tspan></text><rect class="cls-1" x="736.69" y="435.58" width="92.16" height="43.51"/><text class="cls-2" transform="translate(744.35 463.66)">S<tspan class="cls-30" x="9.24" y="0">r</tspan><tspan x="15.41" y="0">i Lan</tspan><tspan class="cls-31" x="49.48" y="0">k</tspan><tspan x="57.1" y="0">an</tspan></text><text class="cls-2" transform="translate(738.47 26.81)">Bangladeshi</text></svg>